<svg width="3922" height="1141" viewBox="0 0 3922 1141" fill="none" xmlns="http://www.w3.org/2000/svg">
<g clip-path="url(#clip0_106_831)">
<path d="M121 -125V1001.5M121 1081.5V1001.5M121 1001.5H-444.5M121 1001.5H432.5M4115.5 1001.5H3733.5M3733.5 1001.5V1470V-262V369.75M3733.5 1001.5V369.75M3733.5 1001.5H3533.5M3733.5 369.75H3533.5H4391.5M3270.5 -211V103" stroke="#DADADA" stroke-opacity="0.3" stroke-width="10"/>
<mask id="path-2-inside-1_106_831" fill="white">
<path d="M280 -71L3037 -93.5L3535.5 322V1319.5L710.5 1211.5L280 888.5V-71Z"/>
</mask>
<path d="M280 -71L3037 -93.5L3535.5 322V1319.5L710.5 1211.5L280 888.5V-71Z" fill="#7FAE46" fill-opacity="0.24"/>
<g clip-path="url(#paint0_angular_106_831_clip_path)" data-figma-skip-parse="true" mask="url(#path-2-inside-1_106_831)"><g transform="matrix(0 0.7065 -1.62775 0 1907.75 613)"><foreignObject x="-1011.32" y="-1011.32" width="2022.65" height="2022.65"><div xmlns="http://www.w3.org/1999/xhtml" style="background:conic-gradient(from 90deg,rgba(122, 168, 67, 1) 0deg,rgba(97, 134, 53, 1) 360deg);height:100%;width:100%;opacity:1"></div></foreignObject></g></g><path d="M280 -71L279.935 -78.9997L272 -78.935V-71H280ZM3535.5 322H3543.5V318.253L3540.62 315.855L3535.5 322ZM3535.5 1319.5L3535.19 1327.49L3543.5 1327.81V1319.5H3535.5ZM280 888.5H272V892.499L275.199 894.899L280 888.5ZM710.5 1211.5L705.699 1217.9L707.698 1219.4L710.194 1219.49L710.5 1211.5ZM3037 -93.5L3042.12 -99.6453L3039.87 -101.524L3036.93 -101.5L3037 -93.5ZM3535.5 322H3527.5V1319.5H3535.5H3543.5V322H3535.5ZM280 888.5H288V-71H280H272V888.5H280ZM3535.5 1319.5L3535.81 1311.51L710.806 1203.51L710.5 1211.5L710.194 1219.49L3535.19 1327.49L3535.5 1319.5ZM710.5 1211.5L715.301 1205.1L284.801 882.101L280 888.5L275.199 894.899L705.699 1217.9L710.5 1211.5ZM280 -71L280.065 -63.0003L3037.07 -85.5003L3037 -93.5L3036.93 -101.5L279.935 -78.9997L280 -71ZM3037 -93.5L3031.88 -87.3547L3530.38 328.145L3535.5 322L3540.62 315.855L3042.12 -99.6453L3037 -93.5Z" data-figma-gradient-fill="{&#34;type&#34;:&#34;GRADIENT_ANGULAR&#34;,&#34;stops&#34;:[{&#34;color&#34;:{&#34;r&#34;:0.47843137383460999,&#34;g&#34;:0.65882354974746704,&#34;b&#34;:0.26274511218070984,&#34;a&#34;:1.0},&#34;position&#34;:0.0},{&#34;color&#34;:{&#34;r&#34;:0.38039216399192810,&#34;g&#34;:0.52549022436141968,&#34;b&#34;:0.20784313976764679,&#34;a&#34;:1.0},&#34;position&#34;:1.0}],&#34;stopsVar&#34;:[{&#34;color&#34;:{&#34;r&#34;:0.47843137383460999,&#34;g&#34;:0.65882354974746704,&#34;b&#34;:0.26274511218070984,&#34;a&#34;:1.0},&#34;position&#34;:0.0},{&#34;color&#34;:{&#34;r&#34;:0.38039216399192810,&#34;g&#34;:0.52549022436141968,&#34;b&#34;:0.20784313976764679,&#34;a&#34;:1.0},&#34;position&#34;:1.0}],&#34;transform&#34;:{&#34;m00&#34;:1.9934188577163531e-13,&#34;m01&#34;:-3255.50,&#34;m02&#34;:3535.50,&#34;m10&#34;:1413.0,&#34;m11&#34;:8.6521298480780884e-14,&#34;m12&#34;:-93.50},&#34;opacity&#34;:1.0,&#34;blendMode&#34;:&#34;NORMAL&#34;,&#34;visible&#34;:true}" mask="url(#path-2-inside-1_106_831)"/>
<rect x="739.17" y="221" width="2444.34" height="1171.72" rx="27" fill="#767676"/>
<rect x="742.67" y="224.5" width="2437.34" height="1164.72" rx="23.5" stroke="black" stroke-opacity="0.5" stroke-width="7"/>
<rect x="620.412" y="308" width="2682.17" height="1285.73" rx="27" fill="#C0C0C0"/>
<rect x="623.912" y="311.5" width="2675.17" height="1278.73" rx="23.5" stroke="black" stroke-opacity="0.5" stroke-width="7"/>
<mask id="path-8-inside-2_106_831" fill="white">
<path d="M520 434C520 419.088 532.088 407 547 407H3376C3390.91 407 3403 419.088 3403 434V1762C3403 1776.91 3390.91 1789 3376 1789H547C532.088 1789 520 1776.91 520 1762V434Z"/>
</mask>
<path d="M520 434C520 419.088 532.088 407 547 407H3376C3390.91 407 3403 419.088 3403 434V1762C3403 1776.91 3390.91 1789 3376 1789H547C532.088 1789 520 1776.91 520 1762V434Z" fill="#EBEBEB"/>
<g clip-path="url(#paint1_angular_106_831_clip_path)" data-figma-skip-parse="true" mask="url(#path-8-inside-2_106_831)"><g transform="matrix(-0.9525 0.9275 -1.45845 -1.49776 1961.5 1098)"><foreignObject x="-1147.92" y="-1147.92" width="2295.85" height="2295.85"><div xmlns="http://www.w3.org/1999/xhtml" style="background:conic-gradient(from 90deg,rgba(127, 174, 70, 1) 0deg,rgba(97, 134, 53, 1) 360deg);height:100%;width:100%;opacity:1"></div></foreignObject></g></g><path d="M547 407V415H3376V407V399H547V407ZM3403 434H3395V1762H3403H3411V434H3403ZM3376 1789V1781H547V1789V1797H3376V1789ZM520 1762H528V434H520H512V1762H520ZM547 1789V1781C536.507 1781 528 1772.49 528 1762H520H512C512 1781.33 527.67 1797 547 1797V1789ZM3403 1762H3395C3395 1772.49 3386.49 1781 3376 1781V1789V1797C3395.33 1797 3411 1781.33 3411 1762H3403ZM3376 407V415C3386.49 415 3395 423.507 3395 434H3403H3411C3411 414.67 3395.33 399 3376 399V407ZM547 407V399C527.67 399 512 414.67 512 434H520H528C528 423.507 536.507 415 547 415V407Z" data-figma-gradient-fill="{&#34;type&#34;:&#34;GRADIENT_ANGULAR&#34;,&#34;stops&#34;:[{&#34;color&#34;:{&#34;r&#34;:0.49803921580314636,&#34;g&#34;:0.68235296010971069,&#34;b&#34;:0.27450981736183167,&#34;a&#34;:1.0},&#34;position&#34;:0.0},{&#34;color&#34;:{&#34;r&#34;:0.38039216399192810,&#34;g&#34;:0.52549022436141968,&#34;b&#34;:0.20784313976764679,&#34;a&#34;:1.0},&#34;position&#34;:1.0}],&#34;stopsVar&#34;:[{&#34;color&#34;:{&#34;r&#34;:0.49803921580314636,&#34;g&#34;:0.68235296010971069,&#34;b&#34;:0.27450981736183167,&#34;a&#34;:1.0},&#34;position&#34;:0.0},{&#34;color&#34;:{&#34;r&#34;:0.38039216399192810,&#34;g&#34;:0.52549022436141968,&#34;b&#34;:0.20784313976764679,&#34;a&#34;:1.0},&#34;position&#34;:1.0}],&#34;transform&#34;:{&#34;m00&#34;:-1905.0003662109375,&#34;m01&#34;:-2916.898925781250,&#34;m02&#34;:4372.449707031250,&#34;m10&#34;:1854.999511718750,&#34;m11&#34;:-2995.522949218750,&#34;m12&#34;:1668.2618408203125},&#34;opacity&#34;:1.0,&#34;blendMode&#34;:&#34;NORMAL&#34;,&#34;visible&#34;:true}" mask="url(#path-8-inside-2_106_831)"/>
<rect x="593.379" y="480" width="2737.21" height="1338" rx="27" fill="#7FAE46" fill-opacity="0.12"/>
<rect x="594.379" y="481" width="2735.21" height="1336" rx="26" stroke="black" stroke-opacity="0.5" stroke-width="2"/>
<path d="M2127 827.75C2127 873.589 2108.42 915.089 2078.38 945.131L2107.73 974.475C2145.27 936.924 2168.5 885.049 2168.5 827.75C2168.5 713.151 2075.6 620.25 1961 620.25C1846.4 620.25 1753.5 713.151 1753.5 827.75C1753.5 885.049 1776.73 936.924 1814.28 974.475L1843.62 945.131C1813.58 915.089 1795 873.589 1795 827.75C1795 736.071 1869.32 661.75 1961 661.75C2052.68 661.75 2127 736.071 2127 827.75ZM2029.33 730.079L1935.95 823.455L1965.3 852.799L2058.67 759.424L2029.33 730.079Z" fill="#7FAE46"/>
</g>
<defs>
<clipPath id="paint0_angular_106_831_clip_path"><path d="M280 -71L279.935 -78.9997L272 -78.935V-71H280ZM3535.5 322H3543.5V318.253L3540.62 315.855L3535.5 322ZM3535.5 1319.5L3535.19 1327.49L3543.5 1327.81V1319.5H3535.5ZM280 888.5H272V892.499L275.199 894.899L280 888.5ZM710.5 1211.5L705.699 1217.9L707.698 1219.4L710.194 1219.49L710.5 1211.5ZM3037 -93.5L3042.12 -99.6453L3039.87 -101.524L3036.93 -101.5L3037 -93.5ZM3535.5 322H3527.5V1319.5H3535.5H3543.5V322H3535.5ZM280 888.5H288V-71H280H272V888.5H280ZM3535.5 1319.5L3535.81 1311.51L710.806 1203.51L710.5 1211.5L710.194 1219.49L3535.19 1327.49L3535.5 1319.5ZM710.5 1211.5L715.301 1205.1L284.801 882.101L280 888.5L275.199 894.899L705.699 1217.9L710.5 1211.5ZM280 -71L280.065 -63.0003L3037.07 -85.5003L3037 -93.5L3036.93 -101.5L279.935 -78.9997L280 -71ZM3037 -93.5L3031.88 -87.3547L3530.38 328.145L3535.5 322L3540.62 315.855L3042.12 -99.6453L3037 -93.5Z" mask="url(#path-2-inside-1_106_831)"/></clipPath><clipPath id="paint1_angular_106_831_clip_path"><path d="M547 407V415H3376V407V399H547V407ZM3403 434H3395V1762H3403H3411V434H3403ZM3376 1789V1781H547V1789V1797H3376V1789ZM520 1762H528V434H520H512V1762H520ZM547 1789V1781C536.507 1781 528 1772.49 528 1762H520H512C512 1781.33 527.67 1797 547 1797V1789ZM3403 1762H3395C3395 1772.49 3386.49 1781 3376 1781V1789V1797C3395.33 1797 3411 1781.33 3411 1762H3403ZM3376 407V415C3386.49 415 3395 423.507 3395 434H3403H3411C3411 414.67 3395.33 399 3376 399V407ZM547 407V399C527.67 399 512 414.67 512 434H520H528C528 423.507 536.507 415 547 415V407Z" mask="url(#path-8-inside-2_106_831)"/></clipPath><clipPath id="clip0_106_831">
<rect width="3922" height="1141" fill="white"/>
</clipPath>
</defs>
</svg>
