<svg width="2096" height="1492" viewBox="0 0 2096 1492" fill="none" xmlns="http://www.w3.org/2000/svg">
<g clip-path="url(#clip0_97_1114)">
<g clip-path="url(#paint0_diamond_97_1114_clip_path)" data-figma-skip-parse="true"><g transform="matrix(0 0.937 -1.142 0 931 801)"><rect x="0" y="0" width="1009.61" height="1007.88" fill="url(#paint0_diamond_97_1114)" opacity="1" shape-rendering="crispEdges"/><rect x="0" y="0" width="1009.61" height="1007.88" transform="scale(1 -1)" fill="url(#paint0_diamond_97_1114)" opacity="1" shape-rendering="crispEdges"/><rect x="0" y="0" width="1009.61" height="1007.88" transform="scale(-1 1)" fill="url(#paint0_diamond_97_1114)" opacity="1" shape-rendering="crispEdges"/><rect x="0" y="0" width="1009.61" height="1007.88" transform="scale(-1)" fill="url(#paint0_diamond_97_1114)" opacity="1" shape-rendering="crispEdges"/></g></g><path d="M456.5 119.5H461V110.454L453.785 115.911L456.5 119.5ZM78.1697 405.65V410.15H78.2062L78.2428 410.149L78.1697 405.65ZM864.457 405.65L864.389 410.149L864.458 410.15L864.526 410.149L864.457 405.65ZM1512.48 1091L1516 1093.8L1512.48 1091ZM456.5 690.419H452V1091H456.5H461V690.419H456.5ZM464.708 793.661L469.194 793.304L460.986 690.063L456.5 690.419L452.014 690.776L460.222 794.017L464.708 793.661ZM456.5 119.5H452V399.5H456.5H461V119.5H456.5ZM456.5 399.5H452V690.419H456.5H461V399.5H456.5ZM456.5 399.5V404H868.86V399.5V395H456.5V399.5ZM868.86 399.5H873.36V85.1614H868.86H864.36V399.5H868.86ZM868.86 399.5V404H1264.21V399.5V395H868.86V399.5ZM1264.21 -136H1259.71V1711.58H1264.21H1268.71V-136H1264.21ZM1264.21 399.5V404H1637.5V399.5V395H1264.21V399.5ZM1642.18 1403.08H1637.68V1738H1642.18H1646.68V1403.08H1642.18ZM868.86 1403.08H864.36V1658.24H868.86H873.36V1403.08H868.86ZM868.86 1091H864.36V1403.08H868.86H873.36V1091H868.86ZM456.5 1091V1095.5H868.86V1091V1086.5H456.5V1091ZM456.5 1091H452V1403.08H456.5H461V1091H456.5ZM456.5 1403.08H452V1735H456.5H461V1403.08H456.5ZM456.5 1403.08V1398.58H-93.0814V1403.08V1407.58H456.5V1403.08ZM456.5 1403.08L459.216 1406.67L871.576 1094.59L868.86 1091L866.145 1087.41L453.784 1399.49L456.5 1403.08ZM456.5 690.419V685.919H126.854V690.419V694.919H456.5V690.419ZM126.854 690.419V685.919H-211V690.419V694.919H126.854V690.419ZM456.5 1091V1086.5H118V1091V1095.5H456.5V1091ZM118 1091V1086.5H-141V1091V1095.5H118V1091ZM126.854 690.419L122.355 690.32L113.501 1090.9L118 1091L122.499 1091.1L131.353 690.519L126.854 690.419ZM456.5 399.5L456.427 395.001L78.0965 401.15L78.1697 405.65L78.2428 410.149L456.573 403.999L456.5 399.5ZM78.1697 405.65V401.15H-43.174V405.65V410.15H78.1697V405.65ZM78.1697 405.65L80.8842 409.239L459.215 123.089L456.5 119.5L453.785 115.911L75.4551 402.061L78.1697 405.65ZM1264.21 399.5L1264.14 395.001L864.388 401.15L864.457 405.65L864.526 410.149L1264.27 403.999L1264.21 399.5ZM864.457 405.65L864.525 401.15L456.568 395L456.5 399.5L456.432 404L864.389 410.149L864.457 405.65ZM1264.21 399.5H1268.71V134.825H1264.21H1259.71V399.5H1264.21ZM1264.21 134.825H1268.71V-136H1264.21H1259.71V134.825H1264.21ZM1637.5 399.5H1642V134.825H1637.5H1633V399.5H1637.5ZM1264.21 134.825V139.325H1637.5V134.825V130.325H1264.21V134.825ZM1642.18 1403.08V1398.58H1264.21V1403.08V1407.58H1642.18V1403.08ZM1264.21 1403.08V1398.58H868.86V1403.08V1407.58H1264.21V1403.08ZM1637.5 399.5H1633V690.419H1637.5H1642V399.5H1637.5ZM456.5 690.419V694.919H868.86V690.419V685.919H456.5V690.419ZM868.86 690.419V694.919H1637.5V690.419V685.919H868.86V690.419ZM868.86 690.419H864.36V1091H868.86H873.36V690.419H868.86ZM1264.21 1711.58H1268.71V1091H1264.21H1259.71V1711.58H1264.21ZM1264.21 1091H1268.71V399.5H1264.21H1259.71V1091H1264.21ZM1264.21 1091V1086.5H868.86V1091V1095.5H1264.21V1091ZM868.86 399.5H864.36V690.419H868.86H873.36V399.5H868.86ZM1642.18 1403.08V1407.58H1831.17V1403.08V1398.58H1642.18V1403.08ZM1831.17 1403.08V1407.58H2020.16V1403.08V1398.58H1831.17V1403.08ZM1637.5 690.419V694.919H1831.17V690.419V685.919H1637.5V690.419ZM1831.17 690.419V694.919H2073V690.419V685.919H1831.17V690.419ZM1264.21 1403.08L1267.73 1405.88L1516 1093.8L1512.48 1091L1508.96 1088.2L1260.68 1400.28L1264.21 1403.08ZM1264.21 1091V1095.5H1512.48V1091V1086.5H1264.21V1091ZM1512.48 1091L1516 1093.8L1641.02 936.658L1637.5 933.856L1633.98 931.055L1508.96 1088.2L1512.48 1091ZM1637.5 933.856L1641.02 936.658L1834.69 693.221L1831.17 690.419L1827.65 687.618L1633.98 931.055L1637.5 933.856ZM1831.17 933.856H1835.67V690.419H1831.17H1826.67V933.856H1831.17ZM1637.5 933.856V938.356H1831.17V933.856V929.356H1637.5V933.856ZM1831.17 1403.08H1835.67V1168.47H1831.17H1826.67V1403.08H1831.17ZM1831.17 1168.47H1835.67V933.856H1831.17H1826.67V1168.47H1831.17ZM1831.17 1168.47V1172.97H1999V1168.47V1163.97H1831.17V1168.47ZM1999 1168.47V1172.97H2042.5V1168.47V1163.97H1999V1168.47ZM1999 1168.47H2003.5V828.5H1999H1994.5V1168.47H1999ZM1831.17 1168.47H1835.67V690.419H1831.17H1826.67V1168.47H1831.17ZM1637.5 134.825H1642V42.4124H1637.5H1633V134.825H1637.5ZM1637.5 42.4124H1642V-50H1637.5H1633V42.4124H1637.5ZM1637.5 42.4124V46.9124H1941V42.4124V37.9124H1637.5V42.4124ZM1637.5 42.4124H1633V399.5H1637.5H1642V42.4124H1637.5ZM1637.5 399.5V404H1941V399.5V395H1637.5V399.5ZM1941 399.5V404H2020.16V399.5V395H1941V399.5ZM1941 399.5H1945.5V151H1941H1936.5V399.5H1941Z" data-figma-gradient-fill="{&#34;type&#34;:&#34;GRADIENT_DIAMOND&#34;,&#34;stops&#34;:[{&#34;color&#34;:{&#34;r&#34;:0.49803921580314636,&#34;g&#34;:0.68235296010971069,&#34;b&#34;:0.27450981736183167,&#34;a&#34;:1.0},&#34;position&#34;:0.53365385532379150},{&#34;color&#34;:{&#34;r&#34;:0.55769228935241699,&#34;g&#34;:0.55769228935241699,&#34;b&#34;:0.55769228935241699,&#34;a&#34;:0.15000000596046448},&#34;position&#34;:1.0}],&#34;stopsVar&#34;:[{&#34;color&#34;:{&#34;r&#34;:0.49803921580314636,&#34;g&#34;:0.68235296010971069,&#34;b&#34;:0.27450981736183167,&#34;a&#34;:1.0},&#34;position&#34;:0.53365385532379150},{&#34;color&#34;:{&#34;r&#34;:0.55769228935241699,&#34;g&#34;:0.55769228935241699,&#34;b&#34;:0.55769228935241699,&#34;a&#34;:0.15000000596046448},&#34;position&#34;:1.0}],&#34;transform&#34;:{&#34;m00&#34;:1.3985466701827570e-13,&#34;m01&#34;:-2284.0,&#34;m02&#34;:2073.0,&#34;m10&#34;:1874.0,&#34;m11&#34;:1.1474941006076045e-13,&#34;m12&#34;:-136.0},&#34;opacity&#34;:1.0,&#34;blendMode&#34;:&#34;NORMAL&#34;,&#34;visible&#34;:true}"/>
<rect x="458" y="402" width="1180" height="688" fill="#D9D9D9" stroke="#AAC38D" stroke-width="6"/>
<rect x="505" y="445" width="1087" height="601" rx="35" fill="#EBEBEB"/>
<rect x="506" y="446" width="1085" height="599" rx="34" stroke="black" stroke-opacity="0.5" stroke-width="2"/>
<path d="M1046.57 666.431V634.291L1023 657.86V690H1055.14L1078.71 666.525L1046.57 666.431Z" fill="#618635" stroke="black" stroke-linecap="round" stroke-linejoin="round"/>
<path d="M1023 600L1046.57 623.569H1089.43V666.423L1113 689.992V600H1023Z" fill="#618635" stroke="black" stroke-linecap="round" stroke-linejoin="round"/>
<path d="M740.238 600.641L779.896 690H755.973L748.617 672.346H708.639L701.987 690H678.384L714.396 600.641H740.238ZM742.029 656.738L727.637 622.005L714.524 656.738H742.029ZM838.36 633.775L867.08 600.641H886.461V690H864.202V634.223L840.087 662.239H836.697L812.582 634.223V690H790.322V600.641H809.704L838.36 633.775ZM906.099 600.641H945.501C960.725 600.641 972.75 604.82 981.577 613.178C990.447 621.494 994.882 632.261 994.882 645.48C994.882 659.34 990.383 670.235 981.385 678.167C972.43 686.056 959.637 690 943.006 690H906.099V600.641ZM928.358 617.016V673.625H942.878C952.303 673.625 959.509 671.045 964.499 665.885C969.488 660.683 971.982 653.839 971.982 645.353C971.982 636.568 969.445 629.66 964.371 624.628C959.339 619.553 952.089 617.016 942.623 617.016H928.358Z" fill="#618635"/>
<path d="M678 893V800.6H832V831.4H708.8V862.2H832V893H678ZM678 769.8V739H832V769.8H678ZM862.83 893V800.6H986.03V769.8H862.83V739H986.03C1003.05 739 1016.83 752.783 1016.83 769.8V800.6C1016.83 817.617 1003.05 831.4 986.03 831.4H893.63V893H862.83ZM1109.26 893V831.4L1047.66 739H1081L1124.66 804.45L1168.32 739H1201.66L1140.06 831.4V893H1109.26ZM1263.29 893C1246.27 893 1232.49 879.217 1232.49 862.2V769.8C1232.49 752.783 1246.27 739 1263.29 739H1386.49V769.8H1263.29V862.2H1386.49V893H1263.29Z" fill="black"/>
</g>
<defs>
<clipPath id="paint0_diamond_97_1114_clip_path"><path d="M456.5 119.5H461V110.454L453.785 115.911L456.5 119.5ZM78.1697 405.65V410.15H78.2062L78.2428 410.149L78.1697 405.65ZM864.457 405.65L864.389 410.149L864.458 410.15L864.526 410.149L864.457 405.65ZM1512.48 1091L1516 1093.8L1512.48 1091ZM456.5 690.419H452V1091H456.5H461V690.419H456.5ZM464.708 793.661L469.194 793.304L460.986 690.063L456.5 690.419L452.014 690.776L460.222 794.017L464.708 793.661ZM456.5 119.5H452V399.5H456.5H461V119.5H456.5ZM456.5 399.5H452V690.419H456.5H461V399.5H456.5ZM456.5 399.5V404H868.86V399.5V395H456.5V399.5ZM868.86 399.5H873.36V85.1614H868.86H864.36V399.5H868.86ZM868.86 399.5V404H1264.21V399.5V395H868.86V399.5ZM1264.21 -136H1259.71V1711.58H1264.21H1268.71V-136H1264.21ZM1264.21 399.5V404H1637.5V399.5V395H1264.21V399.5ZM1642.18 1403.08H1637.68V1738H1642.18H1646.68V1403.08H1642.18ZM868.86 1403.08H864.36V1658.24H868.86H873.36V1403.08H868.86ZM868.86 1091H864.36V1403.08H868.86H873.36V1091H868.86ZM456.5 1091V1095.5H868.86V1091V1086.5H456.5V1091ZM456.5 1091H452V1403.08H456.5H461V1091H456.5ZM456.5 1403.08H452V1735H456.5H461V1403.08H456.5ZM456.5 1403.08V1398.58H-93.0814V1403.08V1407.58H456.5V1403.08ZM456.5 1403.08L459.216 1406.67L871.576 1094.59L868.86 1091L866.145 1087.41L453.784 1399.49L456.5 1403.08ZM456.5 690.419V685.919H126.854V690.419V694.919H456.5V690.419ZM126.854 690.419V685.919H-211V690.419V694.919H126.854V690.419ZM456.5 1091V1086.5H118V1091V1095.5H456.5V1091ZM118 1091V1086.5H-141V1091V1095.5H118V1091ZM126.854 690.419L122.355 690.32L113.501 1090.9L118 1091L122.499 1091.1L131.353 690.519L126.854 690.419ZM456.5 399.5L456.427 395.001L78.0965 401.15L78.1697 405.65L78.2428 410.149L456.573 403.999L456.5 399.5ZM78.1697 405.65V401.15H-43.174V405.65V410.15H78.1697V405.65ZM78.1697 405.65L80.8842 409.239L459.215 123.089L456.5 119.5L453.785 115.911L75.4551 402.061L78.1697 405.65ZM1264.21 399.5L1264.14 395.001L864.388 401.15L864.457 405.65L864.526 410.149L1264.27 403.999L1264.21 399.5ZM864.457 405.65L864.525 401.15L456.568 395L456.5 399.5L456.432 404L864.389 410.149L864.457 405.65ZM1264.21 399.5H1268.71V134.825H1264.21H1259.71V399.5H1264.21ZM1264.21 134.825H1268.71V-136H1264.21H1259.71V134.825H1264.21ZM1637.5 399.5H1642V134.825H1637.5H1633V399.5H1637.5ZM1264.21 134.825V139.325H1637.5V134.825V130.325H1264.21V134.825ZM1642.18 1403.08V1398.58H1264.21V1403.08V1407.58H1642.18V1403.08ZM1264.21 1403.08V1398.58H868.86V1403.08V1407.58H1264.21V1403.08ZM1637.5 399.5H1633V690.419H1637.5H1642V399.5H1637.5ZM456.5 690.419V694.919H868.86V690.419V685.919H456.5V690.419ZM868.86 690.419V694.919H1637.5V690.419V685.919H868.86V690.419ZM868.86 690.419H864.36V1091H868.86H873.36V690.419H868.86ZM1264.21 1711.58H1268.71V1091H1264.21H1259.71V1711.58H1264.21ZM1264.21 1091H1268.71V399.5H1264.21H1259.71V1091H1264.21ZM1264.21 1091V1086.5H868.86V1091V1095.5H1264.21V1091ZM868.86 399.5H864.36V690.419H868.86H873.36V399.5H868.86ZM1642.18 1403.08V1407.58H1831.17V1403.08V1398.58H1642.18V1403.08ZM1831.17 1403.08V1407.58H2020.16V1403.08V1398.58H1831.17V1403.08ZM1637.5 690.419V694.919H1831.17V690.419V685.919H1637.5V690.419ZM1831.17 690.419V694.919H2073V690.419V685.919H1831.17V690.419ZM1264.21 1403.08L1267.73 1405.88L1516 1093.8L1512.48 1091L1508.96 1088.2L1260.68 1400.28L1264.21 1403.08ZM1264.21 1091V1095.5H1512.48V1091V1086.5H1264.21V1091ZM1512.48 1091L1516 1093.8L1641.02 936.658L1637.5 933.856L1633.98 931.055L1508.96 1088.2L1512.48 1091ZM1637.5 933.856L1641.02 936.658L1834.69 693.221L1831.17 690.419L1827.65 687.618L1633.98 931.055L1637.5 933.856ZM1831.17 933.856H1835.67V690.419H1831.17H1826.67V933.856H1831.17ZM1637.5 933.856V938.356H1831.17V933.856V929.356H1637.5V933.856ZM1831.17 1403.08H1835.67V1168.47H1831.17H1826.67V1403.08H1831.17ZM1831.17 1168.47H1835.67V933.856H1831.17H1826.67V1168.47H1831.17ZM1831.17 1168.47V1172.97H1999V1168.47V1163.97H1831.17V1168.47ZM1999 1168.47V1172.97H2042.5V1168.47V1163.97H1999V1168.47ZM1999 1168.47H2003.5V828.5H1999H1994.5V1168.47H1999ZM1831.17 1168.47H1835.67V690.419H1831.17H1826.67V1168.47H1831.17ZM1637.5 134.825H1642V42.4124H1637.5H1633V134.825H1637.5ZM1637.5 42.4124H1642V-50H1637.5H1633V42.4124H1637.5ZM1637.5 42.4124V46.9124H1941V42.4124V37.9124H1637.5V42.4124ZM1637.5 42.4124H1633V399.5H1637.5H1642V42.4124H1637.5ZM1637.5 399.5V404H1941V399.5V395H1637.5V399.5ZM1941 399.5V404H2020.16V399.5V395H1941V399.5ZM1941 399.5H1945.5V151H1941H1936.5V399.5H1941Z"/></clipPath><linearGradient id="paint0_diamond_97_1114" x1="0" y1="0" x2="500" y2="500" gradientUnits="userSpaceOnUse">
<stop offset="0.533654" stop-color="#7FAE46"/>
<stop offset="1" stop-color="#8E8E8E" stop-opacity="0.15"/>
</linearGradient>
<clipPath id="clip0_97_1114">
<rect width="2096" height="1492" fill="white"/>
</clipPath>
</defs>
</svg>
