<svg width="2096" height="1492" viewBox="0 0 2096 1492" fill="none" xmlns="http://www.w3.org/2000/svg">
<g clip-path="url(#clip0_97_1126)">
<g clip-path="url(#paint0_diamond_97_1126_clip_path)" data-figma-skip-parse="true"><g transform="matrix(0 0.937 -1.142 0 931 801)"><rect x="0" y="0" width="1009.61" height="1007.88" fill="url(#paint0_diamond_97_1126)" opacity="1" shape-rendering="crispEdges"/><rect x="0" y="0" width="1009.61" height="1007.88" transform="scale(1 -1)" fill="url(#paint0_diamond_97_1126)" opacity="1" shape-rendering="crispEdges"/><rect x="0" y="0" width="1009.61" height="1007.88" transform="scale(-1 1)" fill="url(#paint0_diamond_97_1126)" opacity="1" shape-rendering="crispEdges"/><rect x="0" y="0" width="1009.61" height="1007.88" transform="scale(-1)" fill="url(#paint0_diamond_97_1126)" opacity="1" shape-rendering="crispEdges"/></g></g><path d="M456.5 119.5H461V110.454L453.785 115.911L456.5 119.5ZM78.1697 405.65V410.15H78.2062L78.2428 410.149L78.1697 405.65ZM864.457 405.65L864.389 410.149L864.458 410.15L864.526 410.149L864.457 405.65ZM1512.48 1091L1516 1093.8L1512.48 1091ZM456.5 690.419H452V1091H456.5H461V690.419H456.5ZM464.708 793.661L469.194 793.304L460.986 690.063L456.5 690.419L452.014 690.776L460.222 794.017L464.708 793.661ZM456.5 119.5H452V399.5H456.5H461V119.5H456.5ZM456.5 399.5H452V690.419H456.5H461V399.5H456.5ZM456.5 399.5V404H868.86V399.5V395H456.5V399.5ZM868.86 399.5H873.36V85.1614H868.86H864.36V399.5H868.86ZM868.86 399.5V404H1264.21V399.5V395H868.86V399.5ZM1264.21 -136H1259.71V1711.58H1264.21H1268.71V-136H1264.21ZM1264.21 399.5V404H1637.5V399.5V395H1264.21V399.5ZM1642.18 1403.08H1637.68V1738H1642.18H1646.68V1403.08H1642.18ZM868.86 1403.08H864.36V1658.24H868.86H873.36V1403.08H868.86ZM868.86 1091H864.36V1403.08H868.86H873.36V1091H868.86ZM456.5 1091V1095.5H868.86V1091V1086.5H456.5V1091ZM456.5 1091H452V1403.08H456.5H461V1091H456.5ZM456.5 1403.08H452V1735H456.5H461V1403.08H456.5ZM456.5 1403.08V1398.58H-93.0814V1403.08V1407.58H456.5V1403.08ZM456.5 1403.08L459.216 1406.67L871.576 1094.59L868.86 1091L866.145 1087.41L453.784 1399.49L456.5 1403.08ZM456.5 690.419V685.919H126.854V690.419V694.919H456.5V690.419ZM126.854 690.419V685.919H-211V690.419V694.919H126.854V690.419ZM456.5 1091V1086.5H118V1091V1095.5H456.5V1091ZM118 1091V1086.5H-141V1091V1095.5H118V1091ZM126.854 690.419L122.355 690.32L113.501 1090.9L118 1091L122.499 1091.1L131.353 690.519L126.854 690.419ZM456.5 399.5L456.427 395.001L78.0965 401.15L78.1697 405.65L78.2428 410.149L456.573 403.999L456.5 399.5ZM78.1697 405.65V401.15H-43.174V405.65V410.15H78.1697V405.65ZM78.1697 405.65L80.8842 409.239L459.215 123.089L456.5 119.5L453.785 115.911L75.4551 402.061L78.1697 405.65ZM1264.21 399.5L1264.14 395.001L864.388 401.15L864.457 405.65L864.526 410.149L1264.27 403.999L1264.21 399.5ZM864.457 405.65L864.525 401.15L456.568 395L456.5 399.5L456.432 404L864.389 410.149L864.457 405.65ZM1264.21 399.5H1268.71V134.825H1264.21H1259.71V399.5H1264.21ZM1264.21 134.825H1268.71V-136H1264.21H1259.71V134.825H1264.21ZM1637.5 399.5H1642V134.825H1637.5H1633V399.5H1637.5ZM1264.21 134.825V139.325H1637.5V134.825V130.325H1264.21V134.825ZM1642.18 1403.08V1398.58H1264.21V1403.08V1407.58H1642.18V1403.08ZM1264.21 1403.08V1398.58H868.86V1403.08V1407.58H1264.21V1403.08ZM1637.5 399.5H1633V690.419H1637.5H1642V399.5H1637.5ZM456.5 690.419V694.919H868.86V690.419V685.919H456.5V690.419ZM868.86 690.419V694.919H1637.5V690.419V685.919H868.86V690.419ZM868.86 690.419H864.36V1091H868.86H873.36V690.419H868.86ZM1264.21 1711.58H1268.71V1091H1264.21H1259.71V1711.58H1264.21ZM1264.21 1091H1268.71V399.5H1264.21H1259.71V1091H1264.21ZM1264.21 1091V1086.5H868.86V1091V1095.5H1264.21V1091ZM868.86 399.5H864.36V690.419H868.86H873.36V399.5H868.86ZM1642.18 1403.08V1407.58H1831.17V1403.08V1398.58H1642.18V1403.08ZM1831.17 1403.08V1407.58H2020.16V1403.08V1398.58H1831.17V1403.08ZM1637.5 690.419V694.919H1831.17V690.419V685.919H1637.5V690.419ZM1831.17 690.419V694.919H2073V690.419V685.919H1831.17V690.419ZM1264.21 1403.08L1267.73 1405.88L1516 1093.8L1512.48 1091L1508.96 1088.2L1260.68 1400.28L1264.21 1403.08ZM1264.21 1091V1095.5H1512.48V1091V1086.5H1264.21V1091ZM1512.48 1091L1516 1093.8L1641.02 936.658L1637.5 933.856L1633.98 931.055L1508.96 1088.2L1512.48 1091ZM1637.5 933.856L1641.02 936.658L1834.69 693.221L1831.17 690.419L1827.65 687.618L1633.98 931.055L1637.5 933.856ZM1831.17 933.856H1835.67V690.419H1831.17H1826.67V933.856H1831.17ZM1637.5 933.856V938.356H1831.17V933.856V929.356H1637.5V933.856ZM1831.17 1403.08H1835.67V1168.47H1831.17H1826.67V1403.08H1831.17ZM1831.17 1168.47H1835.67V933.856H1831.17H1826.67V1168.47H1831.17ZM1831.17 1168.47V1172.97H1999V1168.47V1163.97H1831.17V1168.47ZM1999 1168.47V1172.97H2042.5V1168.47V1163.97H1999V1168.47ZM1999 1168.47H2003.5V828.5H1999H1994.5V1168.47H1999ZM1831.17 1168.47H1835.67V690.419H1831.17H1826.67V1168.47H1831.17ZM1637.5 134.825H1642V42.4124H1637.5H1633V134.825H1637.5ZM1637.5 42.4124H1642V-50H1637.5H1633V42.4124H1637.5ZM1637.5 42.4124V46.9124H1941V42.4124V37.9124H1637.5V42.4124ZM1637.5 42.4124H1633V399.5H1637.5H1642V42.4124H1637.5ZM1637.5 399.5V404H1941V399.5V395H1637.5V399.5ZM1941 399.5V404H2020.16V399.5V395H1941V399.5ZM1941 399.5H1945.5V151H1941H1936.5V399.5H1941Z" data-figma-gradient-fill="{&#34;type&#34;:&#34;GRADIENT_DIAMOND&#34;,&#34;stops&#34;:[{&#34;color&#34;:{&#34;r&#34;:0.49803921580314636,&#34;g&#34;:0.68235296010971069,&#34;b&#34;:0.27450981736183167,&#34;a&#34;:1.0},&#34;position&#34;:0.53365385532379150},{&#34;color&#34;:{&#34;r&#34;:0.55769228935241699,&#34;g&#34;:0.55769228935241699,&#34;b&#34;:0.55769228935241699,&#34;a&#34;:0.15000000596046448},&#34;position&#34;:1.0}],&#34;stopsVar&#34;:[{&#34;color&#34;:{&#34;r&#34;:0.49803921580314636,&#34;g&#34;:0.68235296010971069,&#34;b&#34;:0.27450981736183167,&#34;a&#34;:1.0},&#34;position&#34;:0.53365385532379150},{&#34;color&#34;:{&#34;r&#34;:0.55769228935241699,&#34;g&#34;:0.55769228935241699,&#34;b&#34;:0.55769228935241699,&#34;a&#34;:0.15000000596046448},&#34;position&#34;:1.0}],&#34;transform&#34;:{&#34;m00&#34;:1.3985466701827570e-13,&#34;m01&#34;:-2284.0,&#34;m02&#34;:2073.0,&#34;m10&#34;:1874.0,&#34;m11&#34;:1.1474941006076045e-13,&#34;m12&#34;:-136.0},&#34;opacity&#34;:1.0,&#34;blendMode&#34;:&#34;NORMAL&#34;,&#34;visible&#34;:true}"/>
<rect x="458" y="402" width="1180" height="688" fill="#D9D9D9" stroke="#AAC38D" stroke-width="6"/>
<rect x="505" y="445" width="1087" height="601" rx="35" fill="#EBEBEB"/>
<rect x="506" y="446" width="1085" height="599" rx="34" stroke="black" stroke-opacity="0.5" stroke-width="2"/>
<path d="M788.204 603.814H739.572V652.447H788.204V603.814Z" fill="#618635"/>
<path d="M786.994 857.186V681.868H740.785V857.013H786.994V857.186ZM1092.98 858.917V815.996C1086.23 815.996 1080.52 815.65 1076.37 814.958C1071.52 814.266 1067.88 812.535 1065.46 810.112C1063.04 807.689 1061.48 804.227 1060.62 799.555C1059.92 795.228 1059.58 789.517 1059.58 782.594V721.501H1092.98V681.868H1059.58V613.679H1013.37V783.113C1013.37 797.478 1014.58 809.592 1017 819.285C1019.43 828.803 1023.58 836.591 1029.29 842.475C1035 848.36 1042.62 852.513 1051.79 855.11C1061.14 857.705 1072.9 858.917 1086.92 858.917H1092.98ZM1357.43 857.186V600.18H1311.22V857.186H1357.43ZM968.889 699.175C956.083 685.329 938.083 678.407 915.238 678.407C904.162 678.407 893.951 680.657 884.951 685.156C875.779 689.656 868.163 695.887 861.933 703.848L859.51 707.136V681.868H813.993V857.013H859.856V763.729V770.133V767.018C860.376 750.576 864.356 738.461 871.971 730.673C880.105 722.366 889.97 718.212 901.22 718.212C914.546 718.212 924.757 722.366 931.507 730.327C938.083 738.289 941.545 749.537 941.545 763.903V857.013H988.1V757.672C988.273 732.75 981.697 713.02 968.889 699.175ZM1287.34 769.267C1287.34 756.634 1285.09 744.865 1280.76 733.789C1276.26 722.885 1270.03 713.193 1262.24 704.886C1254.28 696.579 1244.76 690.175 1233.68 685.502C1222.61 680.829 1210.32 678.58 1196.99 678.58C1184.36 678.58 1172.42 681.003 1161.34 685.676C1150.27 690.521 1140.57 696.925 1132.44 705.059C1124.3 713.193 1117.73 722.885 1113.06 733.962C1108.21 745.038 1105.96 756.98 1105.96 769.614C1105.96 782.248 1108.21 794.189 1112.71 805.266C1117.21 816.342 1123.61 826.034 1131.57 834.168C1139.53 842.302 1149.4 848.879 1160.82 853.552C1172.25 858.398 1184.88 860.821 1198.38 860.821C1237.49 860.821 1261.72 842.995 1276.26 826.38L1243.03 801.112C1236.11 809.419 1219.49 820.669 1198.72 820.669C1185.74 820.669 1175.01 817.727 1166.88 811.669C1158.75 805.785 1153.21 797.478 1150.27 787.267L1149.75 785.709H1287.34V769.267ZM1150.09 753.172C1150.09 740.365 1164.8 718.039 1196.47 717.867C1228.15 717.867 1243.03 740.192 1243.03 752.999L1150.09 753.172Z" fill="black"/>
</g>
<defs>
<clipPath id="paint0_diamond_97_1126_clip_path"><path d="M456.5 119.5H461V110.454L453.785 115.911L456.5 119.5ZM78.1697 405.65V410.15H78.2062L78.2428 410.149L78.1697 405.65ZM864.457 405.65L864.389 410.149L864.458 410.15L864.526 410.149L864.457 405.65ZM1512.48 1091L1516 1093.8L1512.48 1091ZM456.5 690.419H452V1091H456.5H461V690.419H456.5ZM464.708 793.661L469.194 793.304L460.986 690.063L456.5 690.419L452.014 690.776L460.222 794.017L464.708 793.661ZM456.5 119.5H452V399.5H456.5H461V119.5H456.5ZM456.5 399.5H452V690.419H456.5H461V399.5H456.5ZM456.5 399.5V404H868.86V399.5V395H456.5V399.5ZM868.86 399.5H873.36V85.1614H868.86H864.36V399.5H868.86ZM868.86 399.5V404H1264.21V399.5V395H868.86V399.5ZM1264.21 -136H1259.71V1711.58H1264.21H1268.71V-136H1264.21ZM1264.21 399.5V404H1637.5V399.5V395H1264.21V399.5ZM1642.18 1403.08H1637.68V1738H1642.18H1646.68V1403.08H1642.18ZM868.86 1403.08H864.36V1658.24H868.86H873.36V1403.08H868.86ZM868.86 1091H864.36V1403.08H868.86H873.36V1091H868.86ZM456.5 1091V1095.5H868.86V1091V1086.5H456.5V1091ZM456.5 1091H452V1403.08H456.5H461V1091H456.5ZM456.5 1403.08H452V1735H456.5H461V1403.08H456.5ZM456.5 1403.08V1398.58H-93.0814V1403.08V1407.58H456.5V1403.08ZM456.5 1403.08L459.216 1406.67L871.576 1094.59L868.86 1091L866.145 1087.41L453.784 1399.49L456.5 1403.08ZM456.5 690.419V685.919H126.854V690.419V694.919H456.5V690.419ZM126.854 690.419V685.919H-211V690.419V694.919H126.854V690.419ZM456.5 1091V1086.5H118V1091V1095.5H456.5V1091ZM118 1091V1086.5H-141V1091V1095.5H118V1091ZM126.854 690.419L122.355 690.32L113.501 1090.9L118 1091L122.499 1091.1L131.353 690.519L126.854 690.419ZM456.5 399.5L456.427 395.001L78.0965 401.15L78.1697 405.65L78.2428 410.149L456.573 403.999L456.5 399.5ZM78.1697 405.65V401.15H-43.174V405.65V410.15H78.1697V405.65ZM78.1697 405.65L80.8842 409.239L459.215 123.089L456.5 119.5L453.785 115.911L75.4551 402.061L78.1697 405.65ZM1264.21 399.5L1264.14 395.001L864.388 401.15L864.457 405.65L864.526 410.149L1264.27 403.999L1264.21 399.5ZM864.457 405.65L864.525 401.15L456.568 395L456.5 399.5L456.432 404L864.389 410.149L864.457 405.65ZM1264.21 399.5H1268.71V134.825H1264.21H1259.71V399.5H1264.21ZM1264.21 134.825H1268.71V-136H1264.21H1259.71V134.825H1264.21ZM1637.5 399.5H1642V134.825H1637.5H1633V399.5H1637.5ZM1264.21 134.825V139.325H1637.5V134.825V130.325H1264.21V134.825ZM1642.18 1403.08V1398.58H1264.21V1403.08V1407.58H1642.18V1403.08ZM1264.21 1403.08V1398.58H868.86V1403.08V1407.58H1264.21V1403.08ZM1637.5 399.5H1633V690.419H1637.5H1642V399.5H1637.5ZM456.5 690.419V694.919H868.86V690.419V685.919H456.5V690.419ZM868.86 690.419V694.919H1637.5V690.419V685.919H868.86V690.419ZM868.86 690.419H864.36V1091H868.86H873.36V690.419H868.86ZM1264.21 1711.58H1268.71V1091H1264.21H1259.71V1711.58H1264.21ZM1264.21 1091H1268.71V399.5H1264.21H1259.71V1091H1264.21ZM1264.21 1091V1086.5H868.86V1091V1095.5H1264.21V1091ZM868.86 399.5H864.36V690.419H868.86H873.36V399.5H868.86ZM1642.18 1403.08V1407.58H1831.17V1403.08V1398.58H1642.18V1403.08ZM1831.17 1403.08V1407.58H2020.16V1403.08V1398.58H1831.17V1403.08ZM1637.5 690.419V694.919H1831.17V690.419V685.919H1637.5V690.419ZM1831.17 690.419V694.919H2073V690.419V685.919H1831.17V690.419ZM1264.21 1403.08L1267.73 1405.88L1516 1093.8L1512.48 1091L1508.96 1088.2L1260.68 1400.28L1264.21 1403.08ZM1264.21 1091V1095.5H1512.48V1091V1086.5H1264.21V1091ZM1512.48 1091L1516 1093.8L1641.02 936.658L1637.5 933.856L1633.98 931.055L1508.96 1088.2L1512.48 1091ZM1637.5 933.856L1641.02 936.658L1834.69 693.221L1831.17 690.419L1827.65 687.618L1633.98 931.055L1637.5 933.856ZM1831.17 933.856H1835.67V690.419H1831.17H1826.67V933.856H1831.17ZM1637.5 933.856V938.356H1831.17V933.856V929.356H1637.5V933.856ZM1831.17 1403.08H1835.67V1168.47H1831.17H1826.67V1403.08H1831.17ZM1831.17 1168.47H1835.67V933.856H1831.17H1826.67V1168.47H1831.17ZM1831.17 1168.47V1172.97H1999V1168.47V1163.97H1831.17V1168.47ZM1999 1168.47V1172.97H2042.5V1168.47V1163.97H1999V1168.47ZM1999 1168.47H2003.5V828.5H1999H1994.5V1168.47H1999ZM1831.17 1168.47H1835.67V690.419H1831.17H1826.67V1168.47H1831.17ZM1637.5 134.825H1642V42.4124H1637.5H1633V134.825H1637.5ZM1637.5 42.4124H1642V-50H1637.5H1633V42.4124H1637.5ZM1637.5 42.4124V46.9124H1941V42.4124V37.9124H1637.5V42.4124ZM1637.5 42.4124H1633V399.5H1637.5H1642V42.4124H1637.5ZM1637.5 399.5V404H1941V399.5V395H1637.5V399.5ZM1941 399.5V404H2020.16V399.5V395H1941V399.5ZM1941 399.5H1945.5V151H1941H1936.5V399.5H1941Z"/></clipPath><linearGradient id="paint0_diamond_97_1126" x1="0" y1="0" x2="500" y2="500" gradientUnits="userSpaceOnUse">
<stop offset="0.533654" stop-color="#7FAE46"/>
<stop offset="1" stop-color="#8E8E8E" stop-opacity="0.15"/>
</linearGradient>
<clipPath id="clip0_97_1126">
<rect width="2096" height="1492" fill="white"/>
</clipPath>
</defs>
</svg>
