<svg width="1783" height="691" viewBox="0 0 1783 691" fill="none" xmlns="http://www.w3.org/2000/svg">
<g clip-path="url(#clip0_67_211)">
<path d="M1108 -54H1920V690.832L1829 709.021L1108 292.689V-54Z" fill="url(#paint0_linear_67_211)" fill-opacity="0.52"/>
<path fill-rule="evenodd" clip-rule="evenodd" d="M1108 292.689L1829 709.021H179L1108 292.689Z" fill="url(#paint1_linear_67_211)" fill-opacity="0.12"/>
<path d="M1296.02 567C1296.02 567 1301.5 539.5 1327.5 511.5C1353.5 483.5 1302.61 466.136 1287.52 440C1274.7 417.782 1298.5 401 1298.5 401" stroke="#BABABA" stroke-width="5"/>
<path d="M1161.14 401.592L1221.21 366.911L1281.28 332.23L1281.28 391.53L1161.14 460.892L1161.14 401.592Z" fill="#D9D9D9"/>
<path d="M1221.21 366.911L1161.14 401.592L1041 341.277L1161.14 271.915L1281.28 332.23L1221.21 366.911Z" fill="#CCCCCC"/>
<path d="M1273 455.053L1214.77 488.673L1161.14 460.892L1281.28 391.53L1330.69 421.75L1273 455.053Z" fill="url(#paint2_linear_67_211)"/>
<path d="M1281.1 392.136L1329.66 421.841L1214.95 488.073L1162.23 460.765L1281.1 392.136ZM1280.85 332.98L1280.85 391.28L1161.57 460.143L1161.57 401.843L1280.85 332.98ZM1160.97 272.513L1280.18 332.364L1161.31 400.994L1042.1 341.144L1160.97 272.513Z" stroke="black" stroke-opacity="0.02"/>
<path d="M1041 341.277L1161.14 401.592L1161.14 460.892L1041 396.667L1041 341.277Z" fill="#F6F5F5"/>
<path d="M1160.71 402.059L1160.71 459.967L1041.43 396.204L1041.43 342.179L1160.71 402.059Z" stroke="black" stroke-opacity="0.02"/>
<path d="M1104.13 399.966L1151.94 423.842L1151.94 433.617L1104.13 409.089L1104.13 399.966Z" fill="#C7C7C7"/>
<path d="M1072.26 377.197L1077.78 379.938L1077.78 399.379L1072.26 396.437L1072.26 377.197Z" fill="#C7C7C7"/>
<path d="M1048.36 365.123L1053.87 367.963L1053.87 386.587L1048.36 383.65L1048.36 365.123Z" fill="#C7C7C7"/>
<path d="M1056.32 369.184L1061.84 371.907L1061.84 390.864L1056.32 387.912L1056.32 369.184Z" fill="#C7C7C7"/>
<path d="M1064.29 373.189L1069.81 375.957L1069.81 395.123L1064.29 392.179L1064.29 373.189Z" fill="#C7C7C7"/>
<path d="M1161.14 336.656L1281.28 267.293L1281.28 325.704L1161.14 395.067L1161.14 336.656Z" fill="#D9D9D9"/>
<path d="M1281.28 267.293L1161.14 336.656L1041 278.283L1161.14 208.921L1281.28 267.293Z" fill="#CCCCCC"/>
<path d="M1280.85 268.042L1280.85 325.455L1161.57 394.317L1161.57 336.905L1280.85 268.042ZM1160.97 209.519L1280.17 267.433L1161.31 336.058L1042.11 278.143L1160.97 209.519Z" stroke="black" stroke-opacity="0.02"/>
<path d="M1041 278.283L1161.14 336.656L1161.14 395.067L1041 335.732L1041 278.283Z" fill="#F6F5F5"/>
<path d="M1160.71 337.125L1160.71 394.171L1041.43 335.264L1041.43 279.173L1160.71 337.125Z" stroke="black" stroke-opacity="0.02"/>
<path d="M1104.13 335.548L1151.94 358.653L1151.94 368.281L1104.13 344.534L1104.13 335.548Z" fill="#C7C7C7"/>
<path d="M1072.26 313.395L1077.78 316.047L1077.78 335.197L1072.26 332.346L1072.26 313.395Z" fill="#C7C7C7"/>
<path d="M1048.36 301.71L1053.87 304.46L1053.87 322.804L1048.36 319.96L1048.36 301.71Z" fill="#C7C7C7"/>
<path d="M1056.32 305.639L1061.84 308.273L1061.84 326.947L1056.32 324.087L1056.32 305.639Z" fill="#C7C7C7"/>
<path d="M1064.29 309.518L1069.81 312.196L1069.81 331.075L1064.29 328.222L1064.29 309.518Z" fill="#C7C7C7"/>
<path d="M1161.14 273.401L1281.28 204.039L1281.28 262.006L1221.21 296.687L1161.14 331.368L1161.14 273.401Z" fill="#7FAE46"/>
<path d="M1281.28 204.039L1161.14 273.401L1041 216L1161.14 146.638L1281.28 204.039Z" fill="#618635"/>
<path d="M1274.84 204.145L1161.14 269.791L1048.05 215.469L1161.14 150.176L1274.84 204.145Z" fill="#547130"/>
<path d="M1280.85 204.789L1280.85 261.755L1161.57 330.618L1161.57 273.651L1280.85 204.789ZM1160.97 147.234L1280.16 204.183L1161.31 272.804L1042.12 215.856L1160.97 147.234ZM1047.76 216.006L1160.85 270.329L1160.97 270.388L1275.96 203.999L1275.13 203.607L1161.43 149.638L1161.31 149.58L1046.94 215.612L1047.76 216.006ZM1160.97 150.773L1273.72 204.29L1161.31 269.194L1049.16 215.326L1160.97 150.773Z" stroke="black" stroke-opacity="0.02"/>
<path d="M1041 216L1161.14 273.401L1161.14 331.368L1041 273.012L1041 216Z" fill="#9AC862"/>
<path d="M1160.71 273.871L1160.71 330.478L1041.43 272.541L1041.43 216.884L1160.71 273.871Z" stroke="black" stroke-opacity="0.02"/>
<circle cx="4.95446" cy="4.95446" r="4.95446" transform="matrix(0.866025 -0.5 2.20305e-08 1 1261.66 240.064)" fill="#D9D9D9"/>
<circle cx="4.95446" cy="4.95446" r="4.95446" transform="matrix(0.866025 -0.5 2.20305e-08 1 1248.18 248.558)" fill="#D9D9D9"/>
<path d="M1243.28 257.051C1243.28 259.787 1241.35 263.114 1238.98 264.482C1236.61 265.851 1234.69 264.742 1234.69 262.005C1234.69 259.269 1236.61 255.942 1238.98 254.574C1241.35 253.205 1243.28 254.315 1243.28 257.051Z" fill="#D9D9D9"/>
<g clip-path="url(#clip1_67_211)">
<path d="M1102.3 261.423L1092.4 277.74L1101.31 278.536L1100.32 289.915L1110.23 273.598L1101.31 272.802L1102.3 261.423Z" stroke="#618635" stroke-opacity="0.65" stroke-width="5" stroke-linecap="round" stroke-linejoin="round"/>
</g>
<rect x="0.433013" y="0.75" width="250" height="166" transform="matrix(0.866025 0.5 -2.20305e-08 1 1329.06 260.783)" stroke="black" stroke-opacity="0.05"/>
<path d="M1336.79 257.258L1554.16 382.758L1554.16 549.758L1546.37 553.5L1336.79 424.258L1329 261L1336.79 257.258Z" fill="url(#paint3_linear_67_211)"/>
<path d="M1553.73 383.008L1553.73 549.288L1546.21 552.899L1337.2 424.009L1329.44 261.465L1336.96 257.856L1553.73 383.008Z" stroke="black" stroke-opacity="0.05"/>
<rect width="251" height="167" transform="matrix(0.866025 0.5 -2.20305e-08 1 1329 261)" fill="#F6F5F5"/>
<rect width="66.6836" height="48.6771" transform="matrix(0.866025 0.5 -2.20305e-08 1 1347.82 302.568)" fill="#E8E8E8"/>
<rect x="0.433013" y="0.75" width="65.6836" height="47.6771" transform="matrix(0.866025 0.5 -2.20305e-08 1 1347.88 302.352)" stroke="black" stroke-opacity="0.05"/>
<rect width="211.29" height="49.426" transform="matrix(0.866025 0.5 -2.20305e-08 1 1347.82 365.474)" fill="#E8E8E8"/>
<rect x="0.433013" y="0.75" width="210.29" height="48.426" transform="matrix(0.866025 0.5 -2.20305e-08 1 1347.88 365.257)" stroke="black" stroke-opacity="0.05"/>
<rect width="251" height="14.2287" transform="matrix(0.866025 0.5 -2.20305e-08 1 1329 261)" fill="#CCCCCC"/>
<rect x="0.433013" y="0.75" width="250" height="13.2287" transform="matrix(0.866025 0.5 -2.20305e-08 1 1329.06 260.783)" stroke="black" stroke-opacity="0.05"/>
<ellipse cx="3.37164" cy="3.36996" rx="3.37164" ry="3.36996" transform="matrix(0.866025 0.5 -2.20305e-08 1 1332.24 266.617)" fill="white"/>
<ellipse cx="3.37164" cy="3.36996" rx="3.37164" ry="3.36996" transform="matrix(0.866025 0.5 -2.20305e-08 1 1340.03 271.113)" fill="#618635"/>
<ellipse cx="3.37164" cy="3.36996" rx="3.37164" ry="3.36996" transform="matrix(0.866025 0.5 -2.20305e-08 1 1347.82 275.608)" fill="#7FAE46"/>
<path d="M1554.16 549.759L1575.25 561.934L1566.81 565.301L1546.37 553.5L1554.16 549.759Z" fill="url(#paint4_linear_67_211)" fill-opacity="0.25"/>
<path d="M1275.12 557.031C1263.11 563.966 1243.46 563.865 1231.23 556.805C1219 549.745 1216.5 532.621 1228.51 525.686C1240.52 518.751 1262.5 524.631 1274.73 531.691C1286.96 538.751 1287.13 550.096 1275.12 557.031Z" fill="url(#paint5_linear_67_211)"/>
<path d="M1350.62 600.62C1338.61 607.555 1318.96 607.454 1306.73 600.394C1294.5 593.334 1291.72 576.789 1303.73 569.854C1315.74 562.919 1338 568.22 1350.23 575.28C1362.46 582.34 1362.63 593.685 1350.62 600.62Z" fill="url(#paint6_linear_67_211)"/>
<path d="M1251.95 519.277C1264.31 512.138 1285.71 512.919 1299.75 521.02L1369.07 554.764C1382.37 561.335 1384.09 581.293 1371.73 588.432L1350.62 600.62C1350.62 600.62 1360.16 596.48 1359.48 589.067C1358.79 581.653 1357.59 579.819 1350.23 575.28L1228.51 525.686L1251.95 519.277Z" fill="url(#paint7_linear_67_211)"/>
<g filter="url(#filter0_i_67_211)">
<path d="M1258.74 544.356C1245.19 552.18 1224.32 552.812 1212.12 545.768C1199.91 538.724 1199.96 518.249 1213.38 512.999C1226.94 505.175 1248.99 510.39 1261.19 517.434C1273.39 524.479 1272.3 536.532 1258.74 544.356Z" fill="#85C03D"/>
<path d="M1334.07 587.847C1320.52 595.671 1299.64 596.303 1287.44 589.259C1275.24 582.215 1274.15 564.733 1287.7 556.909C1301.26 549.085 1324.32 553.881 1336.52 560.925C1348.72 567.97 1347.62 580.023 1334.07 587.847Z" fill="#85C03D"/>
<path d="M1238.38 505.097C1252.33 497.042 1274.99 497.066 1288.99 505.15L1358.86 538.408C1372.26 544.892 1371.84 566.042 1357.89 574.097L1334.07 587.847L1213.38 512.999L1238.38 505.097Z" fill="#85C03D"/>
</g>
<g filter="url(#filter1_i_67_211)">
<path d="M1258.72 536.842C1245.17 544.666 1224.29 545.299 1212.09 538.255C1199.89 531.21 1200.99 519.157 1214.54 511.333C1228.09 503.509 1248.97 502.877 1261.17 509.921C1273.37 516.965 1272.27 529.018 1258.72 536.842Z" fill="#F6F5F5"/>
<path d="M1334.05 580.333C1320.5 588.157 1299.62 588.79 1287.42 581.745C1275.22 574.701 1276.31 562.648 1289.87 554.824C1303.42 547 1324.29 546.368 1336.49 553.412C1348.7 560.456 1347.6 572.509 1334.05 580.333Z" fill="#F6F5F5"/>
<path d="M1238.35 497.583C1252.3 489.529 1274.96 489.553 1288.96 497.636L1357.77 537.364C1371.77 545.447 1371.81 558.529 1357.86 566.583L1334.05 580.333L1214.54 511.333L1238.35 497.583Z" fill="#F6F5F5"/>
</g>
<path d="M1271.31 517.863C1264.74 521.66 1254.05 521.649 1247.45 517.838C1240.85 514.027 1240.11 507.024 1246.69 503.227C1253.26 499.43 1265.39 499.443 1271.99 503.254C1278.59 507.064 1277.89 514.066 1271.31 517.863Z" fill="#D9D9D9"/>
<ellipse cx="13.8" cy="13.75" rx="13.8" ry="13.75" transform="matrix(0.866025 0.5 -0.866025 0.5 1259.31 495.519)" fill="#EBE9E9"/>
<path d="M1270.91 505.549L1271.02 506.442L1252.25 517.275L1247.71 514.651L1247.8 513.874L1270.91 505.549Z" fill="#D9D9D9"/>
<path d="M1271.04 514.675L1266.51 517.29L1247.68 506.417L1247.78 505.525L1270.94 513.898L1271.04 514.675Z" fill="#D9D9D9"/>
<path d="M1266.47 502.983L1271.01 505.607L1252.25 516.44L1247.7 513.816L1266.47 502.983Z" fill="#C9C9C9"/>
<path d="M1271.04 513.84L1266.51 516.455L1247.68 505.583L1252.21 502.968L1271.04 513.84Z" fill="#C9C9C9"/>
<path d="M1339.44 546.278C1336.81 547.797 1332.53 547.792 1329.89 546.268C1327.25 544.743 1326.95 541.942 1329.59 540.424C1332.22 538.905 1337.07 538.91 1339.71 540.434C1342.35 541.958 1342.07 544.759 1339.44 546.278Z" fill="#D9D9D9"/>
<ellipse cx="5.52" cy="5.5" rx="5.52" ry="5.5" transform="matrix(0.866025 0.5 -0.866025 0.5 1334.64 537.34)" fill="#C9C9C9"/>
<path d="M1353.92 554.641C1351.29 556.16 1347.02 556.155 1344.38 554.631C1341.74 553.107 1341.44 550.306 1344.07 548.787C1346.7 547.268 1351.55 547.273 1354.19 548.797C1356.83 550.322 1356.55 553.122 1353.92 554.641Z" fill="#D9D9D9"/>
<ellipse cx="5.52" cy="5.5" rx="5.52" ry="5.5" transform="matrix(0.866025 0.5 -0.866025 0.5 1349.12 545.703)" fill="#C9C9C9"/>
<path d="M1340.21 562.557C1337.58 564.076 1333.31 564.071 1330.67 562.547C1328.03 561.023 1327.73 558.222 1330.36 556.703C1332.99 555.184 1337.84 555.189 1340.48 556.713C1343.12 558.238 1342.84 561.038 1340.21 562.557Z" fill="#D9D9D9"/>
<ellipse cx="5.52" cy="5.5" rx="5.52" ry="5.5" transform="matrix(0.866025 0.5 -0.866025 0.5 1335.41 553.619)" fill="#C9C9C9"/>
<path d="M1325.72 554.194C1323.09 555.713 1318.82 555.708 1316.18 554.184C1313.54 552.659 1313.24 549.858 1315.87 548.34C1318.5 546.821 1323.36 546.826 1326 548.35C1328.64 549.874 1328.36 552.675 1325.72 554.194Z" fill="#D9D9D9"/>
<ellipse cx="5.52" cy="5.5" rx="5.52" ry="5.5" transform="matrix(0.866025 0.5 -0.866025 0.5 1320.92 545.256)" fill="#C9C9C9"/>
<g clip-path="url(#clip2_67_211)">
<path d="M1332.97 560.458C1334.36 561.263 1336.62 561.263 1338.02 560.458C1339.41 559.653 1339.41 558.347 1338.02 557.541C1336.62 556.736 1334.36 556.736 1332.97 557.541C1331.57 558.347 1331.57 559.653 1332.97 560.458Z" fill="#7BAE3C" stroke="#7BAE3C" stroke-linecap="round" stroke-linejoin="round"/>
<path d="M1337.01 559L1335.49 558.125L1333.98 559L1335.49 559.875L1337.01 559Z" fill="#7BAE3C" stroke="white" stroke-linecap="round" stroke-linejoin="round"/>
</g>
<g clip-path="url(#clip3_67_211)">
<path d="M1353.39 550.708L1349.85 548.667C1349.57 548.506 1349.12 548.506 1348.84 548.667L1345.31 550.708C1345.03 550.869 1345.03 551.131 1345.31 551.292L1348.84 553.333C1349.12 553.494 1349.57 553.494 1349.85 553.333L1353.39 551.292C1353.67 551.131 1353.67 550.869 1353.39 550.708Z" fill="#7BAE3C" stroke="#7BAE3C" stroke-linecap="round" stroke-linejoin="round"/>
</g>
<g clip-path="url(#clip4_67_211)">
<path d="M1318.24 551.958C1319.64 552.763 1321.9 552.763 1323.3 551.958C1324.69 551.153 1324.69 549.847 1323.3 549.041C1321.9 548.236 1319.64 548.236 1318.24 549.041C1316.85 549.847 1316.85 551.153 1318.24 551.958Z" fill="#7BAE3C" stroke="#7BAE3C" stroke-linecap="round" stroke-linejoin="round"/>
<path d="M1322.29 550.5L1319.25 550.5" stroke="white" stroke-linecap="round" stroke-linejoin="round"/>
<path d="M1320.77 549.625L1320.77 551.375" stroke="white" stroke-linecap="round" stroke-linejoin="round"/>
</g>
<g clip-path="url(#clip5_67_211)">
<g filter="url(#filter2_d_67_211)">
<path d="M1336 540.667L1337.26 544.021L1331.45 543.292L1336 540.667Z" fill="#7BAE3C"/>
<path d="M1336 540.667L1337.26 544.021L1331.45 543.292L1336 540.667Z" stroke="#7BAE3C" stroke-linecap="round" stroke-linejoin="round"/>
</g>
</g>
</g>
<defs>
<filter id="filter0_i_67_211" x="1203.13" y="499.071" width="165.502" height="99.083" filterUnits="userSpaceOnUse" color-interpolation-filters="sRGB">
<feFlood flood-opacity="0" result="BackgroundImageFix"/>
<feBlend mode="normal" in="SourceGraphic" in2="BackgroundImageFix" result="shape"/>
<feColorMatrix in="SourceAlpha" type="matrix" values="0 0 0 0 0 0 0 0 0 0 0 0 0 0 0 0 0 0 127 0" result="hardAlpha"/>
<feOffset dy="4"/>
<feGaussianBlur stdDeviation="2"/>
<feComposite in2="hardAlpha" operator="arithmetic" k2="-1" k3="1"/>
<feColorMatrix type="matrix" values="0 0 0 0 0 0 0 0 0 0 0 0 0 0 0 0 0 0 0.25 0"/>
<feBlend mode="normal" in2="shape" result="effect1_innerShadow_67_211"/>
</filter>
<filter id="filter1_i_67_211" x="1203.61" y="486.559" width="166.689" height="100.083" filterUnits="userSpaceOnUse" color-interpolation-filters="sRGB">
<feFlood flood-opacity="0" result="BackgroundImageFix"/>
<feBlend mode="normal" in="SourceGraphic" in2="BackgroundImageFix" result="shape"/>
<feColorMatrix in="SourceAlpha" type="matrix" values="0 0 0 0 0 0 0 0 0 0 0 0 0 0 0 0 0 0 127 0" result="hardAlpha"/>
<feOffset dx="2" dy="-5"/>
<feGaussianBlur stdDeviation="4.1"/>
<feComposite in2="hardAlpha" operator="arithmetic" k2="-1" k3="1"/>
<feColorMatrix type="matrix" values="0 0 0 0 0 0 0 0 0 0 0 0 0 0 0 0 0 0 0.1 0"/>
<feBlend mode="normal" in2="shape" result="effect1_innerShadow_67_211"/>
</filter>
<filter id="filter2_d_67_211" x="1326.84" y="540.313" width="15.0344" height="12.0615" filterUnits="userSpaceOnUse" color-interpolation-filters="sRGB">
<feFlood flood-opacity="0" result="BackgroundImageFix"/>
<feColorMatrix in="SourceAlpha" type="matrix" values="0 0 0 0 0 0 0 0 0 0 0 0 0 0 0 0 0 0 127 0" result="hardAlpha"/>
<feOffset dy="4"/>
<feGaussianBlur stdDeviation="2"/>
<feComposite in2="hardAlpha" operator="out"/>
<feColorMatrix type="matrix" values="0 0 0 0 1 0 0 0 0 1 0 0 0 0 1 0 0 0 0.25 0"/>
<feBlend mode="normal" in2="BackgroundImageFix" result="effect1_dropShadow_67_211"/>
<feBlend mode="normal" in="SourceGraphic" in2="effect1_dropShadow_67_211" result="shape"/>
</filter>
<linearGradient id="paint0_linear_67_211" x1="640.001" y1="-54.0007" x2="1881.5" y2="683.999" gradientUnits="userSpaceOnUse">
<stop stop-color="#9AC862" stop-opacity="0.29"/>
<stop offset="1" stop-color="#7BAE3C" stop-opacity="0.7"/>
</linearGradient>
<linearGradient id="paint1_linear_67_211" x1="1049.5" y1="-54" x2="1049.5" y2="709.021" gradientUnits="userSpaceOnUse">
<stop offset="0.110577" stop-color="#7FAE46"/>
<stop offset="0.860577" stop-color="#7FAE46" stop-opacity="0"/>
</linearGradient>
<linearGradient id="paint2_linear_67_211" x1="1185.84" y1="257.652" x2="1293.11" y2="443.445" gradientUnits="userSpaceOnUse">
<stop stop-color="#666666" stop-opacity="0.65"/>
<stop offset="1" stop-color="#CCCCCC" stop-opacity="0"/>
</linearGradient>
<linearGradient id="paint3_linear_67_211" x1="1441.58" y1="317.76" x2="1365.7" y2="449.189" gradientUnits="userSpaceOnUse">
<stop stop-color="#9AC862"/>
<stop offset="1" stop-color="#83BF3B"/>
</linearGradient>
<linearGradient id="paint4_linear_67_211" x1="1564.54" y1="567.359" x2="1550.61" y2="564.646" gradientUnits="userSpaceOnUse">
<stop stop-color="#666666" stop-opacity="0"/>
<stop offset="1" stop-opacity="0.19"/>
</linearGradient>
<linearGradient id="paint5_linear_67_211" x1="1367.65" y1="591.204" x2="1332.17" y2="536.562" gradientUnits="userSpaceOnUse">
<stop stop-color="#D2D2D2" stop-opacity="0"/>
<stop offset="0.927885" stop-opacity="0.24"/>
<stop offset="1" stop-color="#6C3C1F" stop-opacity="0"/>
</linearGradient>
<linearGradient id="paint6_linear_67_211" x1="1367.65" y1="591.204" x2="1332.17" y2="536.562" gradientUnits="userSpaceOnUse">
<stop stop-color="#D2D2D2" stop-opacity="0"/>
<stop offset="0.927885" stop-opacity="0.24"/>
<stop offset="1" stop-color="#6C3C1F" stop-opacity="0"/>
</linearGradient>
<linearGradient id="paint7_linear_67_211" x1="1367.65" y1="591.204" x2="1332.17" y2="536.562" gradientUnits="userSpaceOnUse">
<stop stop-color="#D2D2D2" stop-opacity="0"/>
<stop offset="0.927885" stop-opacity="0.24"/>
<stop offset="1" stop-color="#6C3C1F" stop-opacity="0"/>
</linearGradient>
<clipPath id="clip0_67_211">
<rect width="1920" height="745" fill="white" transform="translate(0 -54)"/>
</clipPath>
<clipPath id="clip1_67_211">
<rect width="31.6976" height="34.4035" fill="white" transform="matrix(0.75 0.0669873 2.95153e-09 1 1089.42 257.405)"/>
</clipPath>
<clipPath id="clip2_67_211">
<rect width="7" height="7" fill="white" transform="matrix(0.866025 0.5 -0.866025 0.5 1335.49 555.5)"/>
</clipPath>
<clipPath id="clip3_67_211">
<rect width="7" height="7" fill="white" transform="matrix(0.866025 0.5 -0.866025 0.5 1349.35 547.5)"/>
</clipPath>
<clipPath id="clip4_67_211">
<rect width="7" height="7" fill="white" transform="matrix(0.866025 0.5 -0.866025 0.5 1320.77 547)"/>
</clipPath>
<clipPath id="clip5_67_211">
<rect width="7" height="7" fill="white" transform="matrix(0.866025 0.5 -0.866025 0.5 1335.49 539.5)"/>
</clipPath>
</defs>
</svg>
