<svg width="1592" height="2032" viewBox="0 0 1592 2032" fill="none" xmlns="http://www.w3.org/2000/svg">
<path d="M3.76324e-06 647.677C2.10054e-06 572.204 53.7132 445.846 119.39 407.928L818.394 4.35742C848.574 -13.0672 915.375 25.9506 962.587 47.6074C1009.8 69.2643 1114.57 130.857 1121.94 158.107C1129.3 185.357 1072.15 957.606 1072.15 957.606C1072.15 1033.08 1018.91 1125 953.229 1162.92L271.932 1648.86C238.59 1668.11 199.771 1624.87 160.215 1592.86C121.853 1561.81 2.21331e-05 1481.52 2.13145e-05 1444.36L3.76324e-06 647.677Z" fill="#7FAE46"/>
<path d="M1070.41 958.518L1070.41 958.606C1070.41 1032.97 1017.96 1123.55 953.229 1160.92L953.127 1160.98L953.026 1161.05L271.841 1646.91C264.02 1651.39 255.715 1652.32 246.946 1650.51C238.154 1648.7 229.04 1644.16 219.669 1637.99C200.892 1625.61 181.412 1606.89 161.546 1590.81C151.938 1583.03 137.107 1572.18 120.301 1559.71C103.483 1547.24 84.6676 1533.14 67.0536 1518.85C49.4343 1504.56 33.0441 1490.1 21.0663 1476.91C15.0759 1470.32 10.2137 1464.07 6.85634 1458.34C3.46565 1452.55 1.73207 1447.5 1.73207 1443.36L1.73205 646.677L1.74136 644.922C2.14842 607.873 15.3407 558.769 36.4509 514.121C57.9086 468.739 87.3017 428.454 119.39 409.928L818.394 6.35742C825.415 2.30379 834.888 1.40347 846.106 2.9458C857.247 4.47758 869.828 8.37005 882.992 13.5024C909.341 23.7764 937.753 38.9027 961.43 49.7637C984.995 60.5731 1022.96 81.3656 1055.94 102.858C1072.44 113.605 1087.67 124.513 1099.22 134.424C1105 139.381 1109.84 144.072 1113.46 148.356C1117.11 152.672 1119.42 156.469 1120.26 159.594C1120.44 160.253 1120.6 161.647 1120.71 163.904C1120.82 166.114 1120.86 169.015 1120.86 172.573C1120.84 179.686 1120.61 189.347 1120.18 201.199C1119.32 224.897 1117.69 257.278 1115.53 295.388C1111.21 371.603 1104.76 470.678 1098.08 568.91C1091.39 667.139 1084.48 764.518 1079.24 837.34C1076.61 873.751 1074.41 904.022 1072.86 925.191C1072.09 935.775 1071.48 944.084 1071.06 949.747C1070.85 952.578 1070.69 954.747 1070.59 956.209C1070.53 956.94 1070.49 957.494 1070.46 957.865C1070.45 958.05 1070.44 958.19 1070.43 958.284C1070.43 958.33 1070.43 958.366 1070.42 958.39C1070.42 958.401 1070.42 958.41 1070.42 958.416C1070.42 958.421 1070.42 958.425 1072.15 957.606L1070.42 958.425L1070.41 958.518Z" stroke="black" stroke-opacity="0.29" stroke-width="4"/>
<g filter="url(#filter0_i_28_339)">
<rect width="1084" height="1084" rx="126" transform="matrix(0.866025 -0.5 2.20305e-08 1 197.887 619.107)" fill="#618635"/>
</g>
<rect x="2.59808" y="1.5" width="1078" height="1078" rx="123" transform="matrix(0.866025 -0.5 2.20305e-08 1 198.235 620.406)" stroke="white" stroke-opacity="0.7" stroke-width="6"/>
<path d="M434.312 932.107C434.312 862.52 456.395 746.857 545.596 695.357L1274.79 274.357C1302.48 258.369 1365.69 306.027 1402.53 323.107C1440.88 340.89 1553.5 395.078 1578.85 433.373C1583.9 441.004 1582.46 454.093 1579.51 467.359L1422.56 1173.11C1419.61 1186.37 1418.48 1199.08 1417 1211.87C1410.19 1270.42 1373.04 1335.16 1325.92 1370.83C1314.8 1379.25 1303.54 1387.27 1292.82 1397.41L741.475 1918.81C730.754 1928.95 719.261 1937.23 709.656 1936.01C664.111 1930.19 561.778 1857.78 530.007 1831.86C494.807 1803.13 434.312 1756.37 434.312 1722.11L434.312 932.107Z" fill="white"/>
<path d="M434.312 932.107C434.312 862.52 456.395 746.857 545.596 695.357L1274.79 274.357C1302.48 258.369 1365.69 306.027 1402.53 323.107C1440.88 340.89 1553.5 395.078 1578.85 433.373C1583.9 441.004 1582.46 454.093 1579.51 467.359L1422.56 1173.11C1419.61 1186.37 1418.48 1199.08 1417 1211.87C1410.19 1270.42 1373.04 1335.16 1325.92 1370.83C1314.8 1379.25 1303.54 1387.27 1292.82 1397.41L741.475 1918.81C730.754 1928.95 719.261 1937.23 709.656 1936.01C664.111 1930.19 561.778 1857.78 530.007 1831.86C494.807 1803.13 434.312 1756.37 434.312 1722.11L434.312 932.107Z" fill="black" fill-opacity="0.08"/>
<path d="M545.596 697.357L1274.79 276.357C1277.9 274.563 1281.65 273.584 1285.99 273.396C1290.31 273.207 1295.1 273.806 1300.25 275.038C1310.55 277.501 1322.13 282.458 1334.05 288.475C1345.96 294.488 1358.16 301.535 1369.7 308.159C1381.23 314.774 1392.12 320.974 1401.37 325.262C1420.54 334.15 1458.25 352.132 1494.34 372.672C1512.39 382.942 1530.01 393.845 1544.7 404.562C1559.41 415.297 1571.09 425.789 1577.34 435.215C1582.03 442.309 1580.77 454.605 1577.85 467.753L1420.9 1173.5C1417.91 1186.97 1416.76 1199.9 1415.28 1212.58C1408.58 1270.19 1372.02 1333.9 1325.65 1369.01C1314.62 1377.36 1303.18 1385.51 1292.29 1395.81L740.949 1917.21C730.35 1927.23 719.495 1934.92 710.558 1933.78C688.012 1930.9 651.196 1911.46 615.916 1889.37C580.694 1867.31 547.197 1842.75 531.341 1829.81C513.722 1815.43 489.842 1796.6 470.357 1777.07C460.615 1767.31 452.004 1757.41 445.836 1747.84C439.629 1738.21 436.044 1729.13 436.044 1721.11L436.044 931.107C436.044 896.498 441.543 850.579 458.016 807.053C474.429 763.682 501.717 722.691 545.596 697.357Z" stroke="black" stroke-opacity="0.29" stroke-width="4"/>
<g filter="url(#filter1_i_28_339)">
<rect width="1084" height="1084" rx="126" transform="matrix(0.866025 -0.5 2.20305e-08 1 652.983 899.857)" fill="white"/>
<rect width="1084" height="1084" rx="126" transform="matrix(0.866025 -0.5 2.20305e-08 1 652.983 899.857)" fill="black" fill-opacity="0.2"/>
</g>
<rect x="2.59808" y="1.5" width="1078" height="1078" rx="123" transform="matrix(0.866025 -0.5 2.20305e-08 1 653.331 901.156)" stroke="white" stroke-opacity="0.21" stroke-width="6"/>
<g clip-path="url(#clip0_28_339)" filter="url(#filter2_i_28_339)">
<path d="M1332.24 1313.69L1332.24 1257.02C1332.24 1226.97 1321.89 1204.11 1303.49 1193.48C1285.08 1182.86 1260.12 1185.33 1234.09 1200.36L1037.79 1313.69C1011.76 1328.72 986.791 1355.07 968.385 1386.95C949.978 1418.84 939.637 1453.63 939.637 1483.69L939.637 1540.36" stroke="#618635" stroke-width="94" stroke-linecap="round" stroke-linejoin="round"/>
<path d="M1136.51 1124.36C1190.72 1093.06 1234.66 1016.95 1234.66 954.357C1234.66 891.765 1190.72 866.395 1136.51 897.691C1082.31 928.987 1038.36 1005.1 1038.36 1067.69C1038.36 1130.28 1082.31 1155.65 1136.51 1124.36Z" stroke="#618635" stroke-width="94" stroke-linecap="round" stroke-linejoin="round"/>
</g>
<defs>
<filter id="filter0_i_28_339" x="197.887" y="125.205" width="938.771" height="1533.8" filterUnits="userSpaceOnUse" color-interpolation-filters="sRGB">
<feFlood flood-opacity="0" result="BackgroundImageFix"/>
<feBlend mode="normal" in="SourceGraphic" in2="BackgroundImageFix" result="shape"/>
<feColorMatrix in="SourceAlpha" type="matrix" values="0 0 0 0 0 0 0 0 0 0 0 0 0 0 0 0 0 0 127 0" result="hardAlpha"/>
<feMorphology radius="20" operator="erode" in="SourceAlpha" result="effect1_innerShadow_28_339"/>
<feOffset dy="4"/>
<feGaussianBlur stdDeviation="2"/>
<feComposite in2="hardAlpha" operator="arithmetic" k2="-1" k3="1"/>
<feColorMatrix type="matrix" values="0 0 0 0 1 0 0 0 0 1 0 0 0 0 1 0 0 0 0.18 0"/>
<feBlend mode="normal" in2="shape" result="effect1_innerShadow_28_339"/>
</filter>
<filter id="filter1_i_28_339" x="652.983" y="405.955" width="938.771" height="1533.8" filterUnits="userSpaceOnUse" color-interpolation-filters="sRGB">
<feFlood flood-opacity="0" result="BackgroundImageFix"/>
<feBlend mode="normal" in="SourceGraphic" in2="BackgroundImageFix" result="shape"/>
<feColorMatrix in="SourceAlpha" type="matrix" values="0 0 0 0 0 0 0 0 0 0 0 0 0 0 0 0 0 0 127 0" result="hardAlpha"/>
<feMorphology radius="20" operator="erode" in="SourceAlpha" result="effect1_innerShadow_28_339"/>
<feOffset dy="4"/>
<feGaussianBlur stdDeviation="2"/>
<feComposite in2="hardAlpha" operator="arithmetic" k2="-1" k3="1"/>
<feColorMatrix type="matrix" values="0 0 0 0 1 0 0 0 0 1 0 0 0 0 1 0 0 0 0.18 0"/>
<feBlend mode="normal" in2="shape" result="effect1_innerShadow_28_339"/>
</filter>
<filter id="filter2_i_28_339" x="841.777" y="639.857" width="588.897" height="1020" filterUnits="userSpaceOnUse" color-interpolation-filters="sRGB">
<feFlood flood-opacity="0" result="BackgroundImageFix"/>
<feBlend mode="normal" in="SourceGraphic" in2="BackgroundImageFix" result="shape"/>
<feColorMatrix in="SourceAlpha" type="matrix" values="0 0 0 0 0 0 0 0 0 0 0 0 0 0 0 0 0 0 127 0" result="hardAlpha"/>
<feOffset dx="13" dy="7"/>
<feComposite in2="hardAlpha" operator="arithmetic" k2="-1" k3="1"/>
<feColorMatrix type="matrix" values="0 0 0 0 1 0 0 0 0 1 0 0 0 0 1 0 0 0 0.25 0"/>
<feBlend mode="normal" in2="shape" result="effect1_innerShadow_28_339"/>
</filter>
<clipPath id="clip0_28_339">
<rect width="680" height="680" fill="white" transform="matrix(0.866025 -0.5 2.20305e-08 1 841.777 979.857)"/>
</clipPath>
</defs>
</svg>
