<svg width="1954" height="2438" viewBox="0 0 1954 2438" fill="none" xmlns="http://www.w3.org/2000/svg">
<path d="M24.7637 651.503L1060.07 1246.78C1091.8 1203.99 1112.66 1150.53 1112.66 1103.54L1948.69 610.05C1948.69 569.588 1097.19 38.5847 1072.63 27.8262C1051.54 18.5907 1023.76 21.6246 993.315 39.2023L119.344 543.79C80.8345 566.023 46.5854 606.605 24.7637 651.503Z" fill="#496627"/>
<g filter="url(#filter0_i_20_46)">
<path d="M183.412 619.811C183.412 584.095 193.388 545.832 209.707 512.126C227.744 474.87 253.532 443.18 282.165 426.649L1005.35 9.11612C1059.89 -22.3725 1211.7 31.9506 1211.7 107.142L1104.11 1085.27C1104.11 1160.47 1059.89 1246.95 1005.35 1278.44L282.165 1695.97C255.837 1711.17 231.916 1710.78 214.212 1697.84C195.242 1683.99 183.412 1655.73 183.412 1616.84L183.412 619.811Z" fill="white"/>
</g>
<path d="M282.165 431.649L1005.35 14.1162C1017.76 6.95174 1036.62 4.32175 1058.45 6.15576C1080.07 7.97158 1103.93 14.0918 1126.14 23.5386C1148.36 32.9883 1168.79 45.7128 1183.63 60.6421C1198.51 75.6079 1207.26 92.3043 1207.37 109.33L1099.82 1087.08L1099.78 1087.44L1099.78 1087.77C1099.78 1161.07 1056.81 1243.73 1005.35 1273.44L282.165 1690.97C257.255 1705.35 234.464 1705.08 217.459 1692.66C199.225 1679.34 187.742 1652.08 187.742 1614.34L187.742 617.311C187.742 582.657 197.422 545.654 213.128 513.216C230.484 477.367 255.081 447.286 282.165 431.649Z" stroke="#CCCCCC" stroke-opacity="0.34" stroke-width="10"/>
<g filter="url(#filter1_i_20_46)">
<path d="M297.818 669.438C297.818 594.246 342.031 507.764 396.571 476.276L1119.76 58.7431C1174.3 27.2544 1218.51 62.6828 1218.51 137.875L1218.51 1134.9C1218.51 1210.09 1174.3 1296.57 1119.76 1328.06L396.571 1745.6C370.243 1760.8 346.322 1760.4 328.618 1747.47C309.648 1733.61 297.818 1705.36 297.818 1666.46L297.818 669.438Z" fill="#CCCCCC"/>
</g>
<path d="M396.571 481.276L1119.76 63.7432C1171.22 34.032 1214.18 67.077 1214.18 140.374L1214.18 1137.4C1214.18 1210.7 1171.22 1293.35 1119.76 1323.06L396.571 1740.6C371.661 1754.98 348.87 1754.71 331.864 1742.29C313.63 1728.97 302.148 1701.71 302.148 1663.96L302.148 666.938C302.148 593.64 345.11 510.987 396.571 481.276Z" stroke="#CCCCCC" stroke-opacity="0.3" stroke-width="10"/>
<g filter="url(#filter2_i_20_46)">
<path d="M469.427 752.292C469.427 716.577 479.402 678.314 495.721 644.607C513.759 607.351 539.546 575.662 568.18 559.13L1291.37 141.598C1345.91 110.109 1497.72 164.432 1497.72 239.624L1390.12 1217.76C1390.12 1292.95 1345.91 1379.43 1291.37 1410.92L568.18 1828.45C541.852 1843.65 517.93 1843.26 500.227 1830.33C481.257 1816.47 469.427 1788.21 469.427 1749.32L469.427 752.292Z" fill="white"/>
</g>
<path d="M568.18 564.13L1291.37 146.598C1303.78 139.433 1322.63 136.803 1344.47 138.637C1366.09 140.453 1389.95 146.573 1412.16 156.02C1434.37 165.47 1454.81 178.194 1469.65 193.124C1484.52 208.089 1493.28 224.786 1493.38 241.811L1385.83 1219.56L1385.79 1219.92L1385.79 1220.26C1385.79 1293.55 1342.83 1376.21 1291.37 1405.92L568.18 1823.45C543.27 1837.83 520.478 1837.57 503.473 1825.14C485.239 1811.82 473.757 1784.56 473.757 1746.82L473.757 749.792C473.757 715.139 483.437 678.136 499.142 645.697C516.498 609.849 541.096 579.767 568.18 564.13Z" stroke="#CCCCCC" stroke-opacity="0.34" stroke-width="10"/>
<g filter="url(#filter3_i_20_46)">
<path d="M583.833 801.919C583.833 726.727 628.046 640.246 682.586 608.757L1405.77 191.225C1460.31 159.736 1504.53 195.164 1504.53 270.356L1504.53 1267.38C1504.53 1342.57 1460.31 1429.06 1405.77 1460.55L682.586 1878.08C656.258 1893.28 632.336 1892.89 614.633 1879.95C595.663 1866.1 583.833 1837.84 583.833 1798.95L583.833 801.919Z" fill="#CCCCCC"/>
</g>
<path d="M682.586 613.757L1405.77 196.225C1457.23 166.513 1500.2 199.558 1500.2 272.855L1500.2 1269.88C1500.2 1343.18 1457.23 1425.83 1405.77 1455.54L682.586 1873.08C657.675 1887.46 634.884 1887.19 617.879 1874.77C599.645 1861.45 588.163 1834.19 588.163 1796.45L588.163 799.419C588.163 726.122 631.125 643.469 682.586 613.757Z" stroke="#CCCCCC" stroke-opacity="0.3" stroke-width="10"/>
<g filter="url(#filter4_i_20_46)">
<path d="M758.165 923.163C758.165 887.448 768.141 849.185 784.46 815.478C802.497 778.222 828.285 746.533 856.919 730.001L1580.11 312.469C1634.65 280.98 1786.46 335.303 1786.46 410.495L1678.86 1388.63C1678.86 1463.82 1634.65 1550.3 1580.11 1581.79L856.919 1999.32C830.591 2014.52 806.669 2014.13 788.966 2001.2C769.995 1987.34 758.165 1959.08 758.165 1920.19L758.165 923.163Z" fill="white"/>
</g>
<path d="M856.918 735.001L1580.11 317.469C1592.52 310.304 1611.37 307.674 1633.21 309.508C1654.82 311.324 1678.69 317.444 1700.89 326.891C1723.11 336.341 1743.54 349.065 1758.38 363.995C1773.26 378.96 1782.02 395.657 1782.12 412.682L1674.57 1390.43L1674.53 1390.79L1674.53 1391.13C1674.53 1464.42 1631.57 1547.08 1580.11 1576.79L856.918 1994.32C832.008 2008.7 809.217 2008.44 792.212 1996.01C773.978 1982.69 762.495 1955.43 762.495 1917.69L762.495 920.663C762.495 886.01 772.176 849.007 787.881 816.568C805.237 780.72 829.834 750.639 856.918 735.001Z" stroke="#CCCCCC" stroke-opacity="0.34" stroke-width="10"/>
<g filter="url(#filter5_di_20_46)">
<path d="M872.571 972.791C872.571 897.6 916.784 811.118 971.324 779.629L1694.51 362.097C1749.05 330.608 1793.27 366.036 1793.27 441.228L1793.27 1438.26C1793.27 1513.45 1749.05 1599.93 1694.51 1631.42L971.324 2048.95C944.996 2064.15 921.075 2063.76 903.371 2050.83C884.401 2036.97 872.571 2008.71 872.571 1969.82L872.571 972.791Z" fill="#CCCCCC"/>
<path d="M971.324 784.629L1694.51 367.097C1745.97 337.386 1788.94 370.431 1788.94 443.728L1788.94 1440.75C1788.94 1514.05 1745.97 1596.71 1694.51 1626.42L971.324 2043.95C946.414 2058.33 923.623 2058.06 906.618 2045.64C888.384 2032.32 876.901 2005.06 876.901 1967.32L876.901 970.291C876.901 896.994 919.863 814.341 971.324 784.629Z" stroke="#CCCCCC" stroke-opacity="0.3" stroke-width="10"/>
</g>
<path fill-rule="evenodd" clip-rule="evenodd" d="M24.7634 651.504C9.2354 683.452 2.31084e-06 717.586 2.99957e-06 748.849L2.49659e-05 1745.94C2.58228e-05 1784.83 14.2967 1811.67 37.222 1823.24C42.0548 1825.68 87.3748 1855.68 155.011 1900.44C386.802 2053.85 880.687 2380.71 905.317 2366.49L993.314 1308.6C1018.04 1294.32 1041.02 1272.48 1060.07 1246.78L24.7634 651.504Z" fill="#7FAE46"/>
<path d="M1041.01 1254.9C1026.65 1271.3 1010.46 1285.2 993.314 1295.1L982.743 1301.2L981.682 1313.96L895.678 2347.89C892.151 2346.43 888.06 2344.57 883.42 2342.33C867.301 2334.55 845.228 2322.44 818.568 2306.93C765.282 2275.95 694.071 2231.68 616.323 2182.13C460.847 2083.05 279.468 1963.01 163.565 1886.3C96.2485 1841.75 50.4338 1811.41 45.2169 1808.78L45.2169 1808.78C24.5341 1798.33 11.6914 1774.17 11.6914 1739.19L11.6913 742.099C11.6913 719.462 17.0654 695.168 26.4518 671.546L1041.01 1254.9Z" stroke="#91B665" stroke-width="27"/>
<g filter="url(#filter6_i_20_46)">
<path d="M840.792 1287.71C840.792 1212.51 894.223 1120.7 960.135 1082.65L1834.11 578.063C1900.02 540.009 1953.45 570.118 1953.45 645.315L1953.45 1642.4C1953.45 1717.6 1900.02 1809.41 1834.11 1847.46L960.135 2352.05C928.317 2370.42 899.408 2372.9 878.014 2362.1C855.088 2350.53 840.792 2323.69 840.792 2284.8L840.792 1287.71Z" fill="#618635"/>
</g>
<path d="M960.135 1087.65L1834.11 583.062C1897.68 546.361 1949.12 575.437 1949.12 647.815L1949.12 1644.9C1949.12 1717.28 1897.68 1805.76 1834.11 1842.46L960.135 2347.05C929.454 2364.76 901.593 2367.15 880.975 2356.74C858.88 2345.59 845.122 2319.74 845.122 2282.3L845.122 1285.21C845.122 1212.83 896.565 1124.35 960.135 1087.65Z" stroke="white" stroke-opacity="0.09" stroke-width="10"/>
<g clip-path="url(#clip0_20_46)">
<g filter="url(#filter7_d_20_46)">
<path d="M462.567 1233.93C462.567 1223.6 460.13 1211.72 455.792 1200.91C451.455 1190.1 445.571 1181.25 439.437 1176.29C433.302 1171.34 427.419 1170.69 423.082 1174.5C418.744 1178.3 416.307 1186.25 416.307 1196.58L416.307 1235.54L381.612 1207.53C357.074 1187.71 333.541 1185.13 316.19 1200.35C298.839 1215.56 289.091 1247.33 289.091 1288.67C289.091 1330 298.839 1377.52 316.19 1420.76C333.541 1463.99 357.074 1499.42 381.612 1519.23L497.262 1612.62C509.531 1622.52 521.298 1640.24 529.973 1661.86C538.649 1683.47 543.522 1707.23 543.522 1727.9C543.522 1748.57 538.649 1764.45 529.973 1772.06C521.298 1779.67 509.531 1778.38 497.262 1768.47L323.786 1628.39C317.652 1623.44 311.769 1622.79 307.431 1626.6C303.093 1630.4 300.656 1638.34 300.656 1648.68C300.656 1659.01 303.093 1670.89 307.431 1681.7C311.769 1692.51 317.652 1701.36 323.786 1706.32L416.307 1781.03L416.307 1819.99C416.307 1830.32 418.744 1842.2 423.082 1853.01C427.419 1863.82 433.302 1872.68 439.437 1877.63C445.571 1882.58 451.455 1883.23 455.792 1879.42C460.13 1875.62 462.567 1867.68 462.567 1857.34L462.567 1818.38L497.262 1846.4C521.8 1866.21 545.333 1868.79 562.684 1853.58C580.035 1838.36 589.783 1806.59 589.783 1765.25C589.783 1723.92 580.035 1676.41 562.684 1633.17C545.333 1589.93 521.8 1554.51 497.262 1534.69L381.612 1441.3C369.343 1431.4 357.576 1413.69 348.901 1392.07C340.225 1370.45 335.352 1346.69 335.352 1326.02C335.352 1305.36 340.225 1289.47 348.901 1281.86C357.576 1274.25 369.343 1275.55 381.612 1285.45L555.087 1425.53C558.125 1427.98 561.133 1429.41 563.939 1429.71C566.745 1430.02 569.295 1429.21 571.443 1427.33C573.591 1425.44 575.295 1422.52 576.457 1418.73C577.619 1414.95 578.218 1410.36 578.218 1405.25C578.218 1400.13 577.619 1394.58 576.457 1388.91C575.295 1383.25 573.591 1377.58 571.443 1372.22C569.295 1366.87 566.745 1361.94 563.939 1357.72C561.133 1353.49 558.125 1350.06 555.087 1347.61L462.567 1272.9L462.567 1233.93Z" fill="#618635"/>
</g>
</g>
<defs>
<filter id="filter0_i_20_46" x="183.412" y="0" width="1034.39" height="1713.56" filterUnits="userSpaceOnUse" color-interpolation-filters="sRGB">
<feFlood flood-opacity="0" result="BackgroundImageFix"/>
<feBlend mode="normal" in="SourceGraphic" in2="BackgroundImageFix" result="shape"/>
<feColorMatrix in="SourceAlpha" type="matrix" values="0 0 0 0 0 0 0 0 0 0 0 0 0 0 0 0 0 0 127 0" result="hardAlpha"/>
<feOffset dx="34" dy="21"/>
<feGaussianBlur stdDeviation="3.05"/>
<feComposite in2="hardAlpha" operator="arithmetic" k2="-1" k3="1"/>
<feColorMatrix type="matrix" values="0 0 0 0 1 0 0 0 0 1 0 0 0 0 1 0 0 0 0.19 0"/>
<feBlend mode="plus-lighter" in2="shape" result="effect1_innerShadow_20_46"/>
</filter>
<filter id="filter1_i_20_46" x="297.818" y="47.2485" width="926.795" height="1715.94" filterUnits="userSpaceOnUse" color-interpolation-filters="sRGB">
<feFlood flood-opacity="0" result="BackgroundImageFix"/>
<feBlend mode="normal" in="SourceGraphic" in2="BackgroundImageFix" result="shape"/>
<feColorMatrix in="SourceAlpha" type="matrix" values="0 0 0 0 0 0 0 0 0 0 0 0 0 0 0 0 0 0 127 0" result="hardAlpha"/>
<feOffset dx="34" dy="21"/>
<feGaussianBlur stdDeviation="3.05"/>
<feComposite in2="hardAlpha" operator="arithmetic" k2="-1" k3="1"/>
<feColorMatrix type="matrix" values="0 0 0 0 1 0 0 0 0 1 0 0 0 0 1 0 0 0 0.19 0"/>
<feBlend mode="plus-lighter" in2="shape" result="effect1_innerShadow_20_46"/>
</filter>
<filter id="filter2_i_20_46" x="469.427" y="132.481" width="1034.39" height="1713.56" filterUnits="userSpaceOnUse" color-interpolation-filters="sRGB">
<feFlood flood-opacity="0" result="BackgroundImageFix"/>
<feBlend mode="normal" in="SourceGraphic" in2="BackgroundImageFix" result="shape"/>
<feColorMatrix in="SourceAlpha" type="matrix" values="0 0 0 0 0 0 0 0 0 0 0 0 0 0 0 0 0 0 127 0" result="hardAlpha"/>
<feOffset dx="34" dy="21"/>
<feGaussianBlur stdDeviation="3.05"/>
<feComposite in2="hardAlpha" operator="arithmetic" k2="-1" k3="1"/>
<feColorMatrix type="matrix" values="0 0 0 0 1 0 0 0 0 1 0 0 0 0 1 0 0 0 0.19 0"/>
<feBlend mode="plus-lighter" in2="shape" result="effect1_innerShadow_20_46"/>
</filter>
<filter id="filter3_i_20_46" x="583.833" y="179.73" width="926.795" height="1715.94" filterUnits="userSpaceOnUse" color-interpolation-filters="sRGB">
<feFlood flood-opacity="0" result="BackgroundImageFix"/>
<feBlend mode="normal" in="SourceGraphic" in2="BackgroundImageFix" result="shape"/>
<feColorMatrix in="SourceAlpha" type="matrix" values="0 0 0 0 0 0 0 0 0 0 0 0 0 0 0 0 0 0 127 0" result="hardAlpha"/>
<feOffset dx="34" dy="21"/>
<feGaussianBlur stdDeviation="3.05"/>
<feComposite in2="hardAlpha" operator="arithmetic" k2="-1" k3="1"/>
<feColorMatrix type="matrix" values="0 0 0 0 1 0 0 0 0 1 0 0 0 0 1 0 0 0 0.19 0"/>
<feBlend mode="plus-lighter" in2="shape" result="effect1_innerShadow_20_46"/>
</filter>
<filter id="filter4_i_20_46" x="758.165" y="303.353" width="1034.39" height="1713.56" filterUnits="userSpaceOnUse" color-interpolation-filters="sRGB">
<feFlood flood-opacity="0" result="BackgroundImageFix"/>
<feBlend mode="normal" in="SourceGraphic" in2="BackgroundImageFix" result="shape"/>
<feColorMatrix in="SourceAlpha" type="matrix" values="0 0 0 0 0 0 0 0 0 0 0 0 0 0 0 0 0 0 127 0" result="hardAlpha"/>
<feOffset dx="34" dy="21"/>
<feGaussianBlur stdDeviation="3.05"/>
<feComposite in2="hardAlpha" operator="arithmetic" k2="-1" k3="1"/>
<feColorMatrix type="matrix" values="0 0 0 0 1 0 0 0 0 1 0 0 0 0 1 0 0 0 0.19 0"/>
<feBlend mode="plus-lighter" in2="shape" result="effect1_innerShadow_20_46"/>
</filter>
<filter id="filter5_di_20_46" x="868.571" y="350.602" width="930.795" height="1717.84" filterUnits="userSpaceOnUse" color-interpolation-filters="sRGB">
<feFlood flood-opacity="0" result="BackgroundImageFix"/>
<feColorMatrix in="SourceAlpha" type="matrix" values="0 0 0 0 0 0 0 0 0 0 0 0 0 0 0 0 0 0 127 0" result="hardAlpha"/>
<feOffset dy="4"/>
<feGaussianBlur stdDeviation="2"/>
<feComposite in2="hardAlpha" operator="out"/>
<feColorMatrix type="matrix" values="0 0 0 0 0 0 0 0 0 0 0 0 0 0 0 0 0 0 0.25 0"/>
<feBlend mode="normal" in2="BackgroundImageFix" result="effect1_dropShadow_20_46"/>
<feBlend mode="normal" in="SourceGraphic" in2="effect1_dropShadow_20_46" result="shape"/>
<feColorMatrix in="SourceAlpha" type="matrix" values="0 0 0 0 0 0 0 0 0 0 0 0 0 0 0 0 0 0 127 0" result="hardAlpha"/>
<feOffset dx="34" dy="21"/>
<feGaussianBlur stdDeviation="3.05"/>
<feComposite in2="hardAlpha" operator="arithmetic" k2="-1" k3="1"/>
<feColorMatrix type="matrix" values="0 0 0 0 1 0 0 0 0 1 0 0 0 0 1 0 0 0 0.19 0"/>
<feBlend mode="plus-lighter" in2="shape" result="effect2_innerShadow_20_46"/>
</filter>
<filter id="filter6_i_20_46" x="840.792" y="561.588" width="1118.76" height="1813.03" filterUnits="userSpaceOnUse" color-interpolation-filters="sRGB">
<feFlood flood-opacity="0" result="BackgroundImageFix"/>
<feBlend mode="normal" in="SourceGraphic" in2="BackgroundImageFix" result="shape"/>
<feColorMatrix in="SourceAlpha" type="matrix" values="0 0 0 0 0 0 0 0 0 0 0 0 0 0 0 0 0 0 127 0" result="hardAlpha"/>
<feOffset dx="34" dy="21"/>
<feGaussianBlur stdDeviation="3.05"/>
<feComposite in2="hardAlpha" operator="arithmetic" k2="-1" k3="1"/>
<feColorMatrix type="matrix" values="0 0 0 0 1 0 0 0 0 1 0 0 0 0 1 0 0 0 0.19 0"/>
<feBlend mode="plus-lighter" in2="shape" result="effect1_innerShadow_20_46"/>
</filter>
<filter id="filter7_d_20_46" x="289.091" y="1155.05" width="320.691" height="726.827" filterUnits="userSpaceOnUse" color-interpolation-filters="sRGB">
<feFlood flood-opacity="0" result="BackgroundImageFix"/>
<feColorMatrix in="SourceAlpha" type="matrix" values="0 0 0 0 0 0 0 0 0 0 0 0 0 0 0 0 0 0 127 0" result="hardAlpha"/>
<feOffset dx="16" dy="-13"/>
<feGaussianBlur stdDeviation="2"/>
<feComposite in2="hardAlpha" operator="out"/>
<feColorMatrix type="matrix" values="0 0 0 0 1 0 0 0 0 1 0 0 0 0 1 0 0 0 0.51 0"/>
<feBlend mode="normal" in2="BackgroundImageFix" result="effect1_dropShadow_20_46"/>
<feBlend mode="normal" in="SourceGraphic" in2="effect1_dropShadow_20_46" result="shape"/>
</filter>
<clipPath id="clip0_20_46">
<rect width="828.326" height="1080.15" fill="white" transform="matrix(0.75 0.0669873 2.95153e-09 1 127.965 959.747)"/>
</clipPath>
</defs>
</svg>
