<svg width="1600" height="1983" viewBox="0 0 1600 1983" fill="none" xmlns="http://www.w3.org/2000/svg">
<g filter="url(#filter0_d_16_1217)">
<path d="M4 685.57C4 610.097 57.7132 483.739 123.39 445.82L822.394 42.25C852.574 24.8254 919.375 63.8431 966.587 85.5C1013.8 107.157 1118.57 168.75 1125.94 196C1133.3 223.25 1076.15 995.499 1076.15 995.499C1076.15 1070.97 1022.91 1162.89 957.229 1200.81L275.932 1686.75C242.59 1706 203.771 1662.76 164.215 1630.75C125.853 1599.7 4.00002 1519.41 4.00002 1482.25L4 685.57Z" fill="#7FAE46"/>
<path d="M1074.41 996.41L1074.41 996.499C1074.41 1070.86 1021.96 1161.44 957.229 1198.81L957.127 1198.87L957.026 1198.94L275.841 1684.8C268.02 1689.29 259.715 1690.22 250.946 1688.41C242.154 1686.59 233.04 1682.06 223.669 1675.88C204.892 1663.5 185.412 1644.78 165.546 1628.7C155.938 1620.93 141.107 1610.07 124.301 1597.6C107.483 1585.13 88.6676 1571.03 71.0536 1556.74C53.4343 1542.45 37.0441 1527.99 25.0663 1514.81C19.0759 1508.21 14.2137 1501.96 10.8563 1496.23C7.46565 1490.45 5.73207 1485.39 5.73207 1481.25L5.73205 684.569L5.74136 682.815C6.14842 645.766 19.3407 596.661 40.4509 552.014C61.9086 506.631 91.3017 466.346 123.39 447.82L822.394 44.25C829.415 40.1964 838.888 39.296 850.106 40.8384C861.247 42.3702 873.828 46.2626 886.992 51.395C913.341 61.669 941.753 76.7953 965.43 87.6562C988.995 98.4657 1026.96 119.258 1059.94 140.751C1076.44 151.497 1091.67 162.406 1103.22 172.317C1109 177.273 1113.84 181.965 1117.46 186.249C1121.11 190.565 1123.42 194.362 1124.26 197.487C1124.44 198.145 1124.6 199.54 1124.71 201.797C1124.82 204.006 1124.86 206.907 1124.86 210.465C1124.84 217.579 1124.61 227.24 1124.18 239.091C1123.32 262.79 1121.69 295.171 1119.53 333.28C1115.21 409.496 1108.76 508.571 1102.08 606.802C1095.39 705.032 1088.48 802.411 1083.24 875.233C1080.61 911.644 1078.41 941.915 1076.86 963.083C1076.09 973.668 1075.48 981.977 1075.06 987.639C1074.85 990.47 1074.69 992.64 1074.59 994.102C1074.53 994.832 1074.49 995.386 1074.46 995.757C1074.45 995.943 1074.44 996.083 1074.43 996.176C1074.43 996.223 1074.43 996.259 1074.42 996.282C1074.42 996.293 1074.42 996.302 1074.42 996.308C1074.42 996.314 1074.42 996.317 1076.15 995.499L1074.42 996.317L1074.41 996.41Z" stroke="black" stroke-opacity="0.29" stroke-width="4"/>
<g filter="url(#filter1_i_16_1217)">
<rect width="1084" height="1084" rx="126" transform="matrix(0.866025 -0.5 2.20305e-08 1 201.887 657)" fill="#618635"/>
</g>
<rect x="2.59808" y="1.5" width="1078" height="1078" rx="123" transform="matrix(0.866025 -0.5 2.20305e-08 1 202.235 658.299)" stroke="white" stroke-opacity="0.7" stroke-width="6"/>
<path d="M438.312 970C438.312 900.412 460.396 784.75 549.596 733.25L1278.79 312.25C1306.48 296.261 1369.69 343.92 1406.53 361C1444.88 378.782 1557.5 432.97 1582.85 471.265C1587.9 478.896 1586.46 491.986 1583.51 505.252L1426.56 1211C1423.61 1224.26 1422.49 1236.98 1421 1249.77C1414.19 1308.31 1377.04 1373.05 1329.92 1408.73C1318.8 1417.15 1307.54 1425.16 1296.82 1435.3L745.476 1956.7C734.754 1966.84 723.262 1975.12 713.656 1973.9C668.111 1968.09 565.778 1895.67 534.008 1869.75C498.807 1841.03 438.312 1794.26 438.312 1760L438.312 970Z" fill="white"/>
<path d="M438.312 970C438.312 900.412 460.396 784.75 549.596 733.25L1278.79 312.25C1306.48 296.261 1369.69 343.92 1406.53 361C1444.88 378.782 1557.5 432.97 1582.85 471.265C1587.9 478.896 1586.46 491.986 1583.51 505.252L1426.56 1211C1423.61 1224.26 1422.49 1236.98 1421 1249.77C1414.19 1308.31 1377.04 1373.05 1329.92 1408.73C1318.8 1417.15 1307.54 1425.16 1296.82 1435.3L745.476 1956.7C734.754 1966.84 723.262 1975.12 713.656 1973.9C668.111 1968.09 565.778 1895.67 534.008 1869.75C498.807 1841.03 438.312 1794.26 438.312 1760L438.312 970Z" fill="black" fill-opacity="0.08"/>
<path d="M549.596 735.25L1278.79 314.25C1281.9 312.456 1285.65 311.477 1289.99 311.288C1294.31 311.1 1299.1 311.699 1304.25 312.93C1314.55 315.393 1326.13 320.35 1338.05 326.367C1349.96 332.381 1362.16 339.428 1373.7 346.051C1385.23 352.667 1396.12 358.867 1405.37 363.155C1424.54 372.043 1462.25 390.025 1498.34 410.564C1516.39 420.835 1534.01 431.737 1548.7 442.455C1563.41 453.19 1575.1 463.682 1581.34 473.108C1586.03 480.202 1584.78 492.497 1581.85 505.646L1424.9 1211.39C1421.91 1224.86 1420.76 1237.79 1419.28 1250.47C1412.58 1308.08 1376.02 1371.8 1329.65 1406.9C1318.62 1415.25 1307.18 1423.4 1296.29 1433.7L744.949 1955.1C734.35 1965.12 723.496 1972.81 714.559 1971.67C692.012 1968.79 655.196 1949.35 619.916 1927.26C584.695 1905.21 551.197 1880.64 535.342 1867.7C517.722 1853.33 493.842 1834.49 474.358 1814.96C464.616 1805.2 456.005 1795.3 449.837 1785.73C443.629 1776.1 440.044 1767.02 440.044 1759L440.044 969C440.044 934.391 445.544 888.471 462.016 844.945C478.43 801.574 505.717 760.584 549.596 735.25Z" stroke="black" stroke-opacity="0.29" stroke-width="4"/>
<g filter="url(#filter2_i_16_1217)">
<rect width="1084" height="1084" rx="126" transform="matrix(0.866025 -0.5 2.20305e-08 1 656.983 937.75)" fill="white"/>
<rect width="1084" height="1084" rx="126" transform="matrix(0.866025 -0.5 2.20305e-08 1 656.983 937.75)" fill="black" fill-opacity="0.2"/>
</g>
<rect x="2.59808" y="1.5" width="1078" height="1078" rx="123" transform="matrix(0.866025 -0.5 2.20305e-08 1 657.331 939.049)" stroke="white" stroke-opacity="0.21" stroke-width="6"/>
<g clip-path="url(#clip0_16_1217)" filter="url(#filter3_i_16_1217)">
<path d="M1461.52 1016.75L1329.88 1092.75L1231.16 1464.37L1033.7 949.125L934.977 1320.75L803.341 1396.75" stroke="#618635" stroke-width="99" stroke-linecap="round" stroke-linejoin="round"/>
</g>
</g>
<defs>
<filter id="filter0_d_16_1217" x="0" y="0" width="1599.75" height="1982.02" filterUnits="userSpaceOnUse" color-interpolation-filters="sRGB">
<feFlood flood-opacity="0" result="BackgroundImageFix"/>
<feColorMatrix in="SourceAlpha" type="matrix" values="0 0 0 0 0 0 0 0 0 0 0 0 0 0 0 0 0 0 127 0" result="hardAlpha"/>
<feOffset dy="4"/>
<feGaussianBlur stdDeviation="2"/>
<feComposite in2="hardAlpha" operator="out"/>
<feColorMatrix type="matrix" values="0 0 0 0 0 0 0 0 0 0 0 0 0 0 0 0 0 0 0.25 0"/>
<feBlend mode="normal" in2="BackgroundImageFix" result="effect1_dropShadow_16_1217"/>
<feBlend mode="normal" in="SourceGraphic" in2="effect1_dropShadow_16_1217" result="shape"/>
</filter>
<filter id="filter1_i_16_1217" x="201.887" y="163.097" width="938.771" height="1533.81" filterUnits="userSpaceOnUse" color-interpolation-filters="sRGB">
<feFlood flood-opacity="0" result="BackgroundImageFix"/>
<feBlend mode="normal" in="SourceGraphic" in2="BackgroundImageFix" result="shape"/>
<feColorMatrix in="SourceAlpha" type="matrix" values="0 0 0 0 0 0 0 0 0 0 0 0 0 0 0 0 0 0 127 0" result="hardAlpha"/>
<feMorphology radius="20" operator="erode" in="SourceAlpha" result="effect1_innerShadow_16_1217"/>
<feOffset dy="4"/>
<feGaussianBlur stdDeviation="2"/>
<feComposite in2="hardAlpha" operator="arithmetic" k2="-1" k3="1"/>
<feColorMatrix type="matrix" values="0 0 0 0 1 0 0 0 0 1 0 0 0 0 1 0 0 0 0.18 0"/>
<feBlend mode="normal" in2="shape" result="effect1_innerShadow_16_1217"/>
</filter>
<filter id="filter2_i_16_1217" x="656.983" y="443.847" width="938.771" height="1533.81" filterUnits="userSpaceOnUse" color-interpolation-filters="sRGB">
<feFlood flood-opacity="0" result="BackgroundImageFix"/>
<feBlend mode="normal" in="SourceGraphic" in2="BackgroundImageFix" result="shape"/>
<feColorMatrix in="SourceAlpha" type="matrix" values="0 0 0 0 0 0 0 0 0 0 0 0 0 0 0 0 0 0 127 0" result="hardAlpha"/>
<feMorphology radius="20" operator="erode" in="SourceAlpha" result="effect1_innerShadow_16_1217"/>
<feOffset dy="4"/>
<feGaussianBlur stdDeviation="2"/>
<feComposite in2="hardAlpha" operator="arithmetic" k2="-1" k3="1"/>
<feColorMatrix type="matrix" values="0 0 0 0 1 0 0 0 0 1 0 0 0 0 1 0 0 0 0.18 0"/>
<feBlend mode="normal" in2="shape" result="effect1_innerShadow_16_1217"/>
</filter>
<filter id="filter3_i_16_1217" x="733.523" y="559.25" width="793.815" height="1299" filterUnits="userSpaceOnUse" color-interpolation-filters="sRGB">
<feFlood flood-opacity="0" result="BackgroundImageFix"/>
<feBlend mode="normal" in="SourceGraphic" in2="BackgroundImageFix" result="shape"/>
<feColorMatrix in="SourceAlpha" type="matrix" values="0 0 0 0 0 0 0 0 0 0 0 0 0 0 0 0 0 0 127 0" result="hardAlpha"/>
<feOffset dx="-7" dy="23"/>
<feGaussianBlur stdDeviation="2"/>
<feComposite in2="hardAlpha" operator="arithmetic" k2="-1" k3="1"/>
<feColorMatrix type="matrix" values="0 0 0 0 1 0 0 0 0 1 0 0 0 0 1 0 0 0 0.66 0"/>
<feBlend mode="normal" in2="shape" result="effect1_innerShadow_16_1217"/>
</filter>
<clipPath id="clip0_16_1217">
<rect width="912" height="839" fill="white" transform="matrix(0.866025 -0.5 2.20305e-08 1 737.523 1015.25)"/>
</clipPath>
</defs>
</svg>
