<svg width="1592" height="2063" viewBox="0 0 1592 2063" fill="none" xmlns="http://www.w3.org/2000/svg">
<path d="M3.76324e-06 773.82C2.10054e-06 698.347 53.7132 571.989 119.39 534.07L818.394 130.5C848.574 113.075 915.375 152.093 962.587 173.75C1009.8 195.407 1114.57 257 1121.94 284.25C1129.3 311.5 1072.15 1083.75 1072.15 1083.75C1072.15 1159.22 1018.91 1251.14 953.229 1289.06L271.932 1775C238.59 1794.25 199.771 1751.01 160.215 1719C121.853 1687.95 2.21331e-05 1607.66 2.13145e-05 1570.5L3.76324e-06 773.82Z" fill="#7FAE46"/>
<path d="M1070.41 1084.66L1070.41 1084.75C1070.41 1159.11 1017.96 1249.69 953.229 1287.06L953.127 1287.12L953.026 1287.19L271.841 1773.05C264.02 1777.54 255.715 1778.47 246.946 1776.66C238.154 1774.84 229.04 1770.31 219.669 1764.13C200.892 1751.75 181.412 1733.03 161.546 1716.95C151.938 1709.18 137.107 1698.32 120.301 1685.85C103.483 1673.38 84.6676 1659.28 67.0536 1644.99C49.4343 1630.7 33.0441 1616.24 21.0663 1603.06C15.0759 1596.46 10.2137 1590.21 6.85634 1584.48C3.46565 1578.7 1.73207 1573.64 1.73207 1569.5L1.73205 772.819L1.74136 771.065C2.14842 734.016 15.3407 684.911 36.4509 640.264C57.9086 594.881 87.3017 554.596 119.39 536.07L818.394 132.5C825.415 128.446 834.888 127.546 846.106 129.088C857.247 130.62 869.828 134.513 882.992 139.645C909.341 149.919 937.753 165.045 961.43 175.906C984.995 186.716 1022.96 207.508 1055.94 229.001C1072.44 239.747 1087.67 250.656 1099.22 260.567C1105 265.523 1109.84 270.215 1113.46 274.499C1117.11 278.815 1119.42 282.612 1120.26 285.737C1120.44 286.395 1120.6 287.79 1120.71 290.047C1120.82 292.256 1120.86 295.157 1120.86 298.715C1120.84 305.829 1120.61 315.49 1120.18 327.341C1119.32 351.04 1117.69 383.421 1115.53 421.53C1111.21 497.746 1104.76 596.821 1098.08 695.052C1091.39 793.282 1084.48 890.661 1079.24 963.483C1076.61 999.894 1074.41 1030.16 1072.86 1051.33C1072.09 1061.92 1071.48 1070.23 1071.06 1075.89C1070.85 1078.72 1070.69 1080.89 1070.59 1082.35C1070.53 1083.08 1070.49 1083.64 1070.46 1084.01C1070.45 1084.19 1070.44 1084.33 1070.43 1084.43C1070.43 1084.47 1070.43 1084.51 1070.42 1084.53C1070.42 1084.54 1070.42 1084.55 1070.42 1084.56C1070.42 1084.56 1070.42 1084.57 1072.15 1083.75L1070.42 1084.57L1070.41 1084.66Z" stroke="black" stroke-opacity="0.29" stroke-width="4"/>
<g filter="url(#filter0_i_23_1183)">
<rect width="1084" height="1084" rx="126" transform="matrix(0.866025 -0.5 2.20305e-08 1 197.887 745.25)" fill="#618635"/>
</g>
<rect x="2.59808" y="1.5" width="1078" height="1078" rx="123" transform="matrix(0.866025 -0.5 2.20305e-08 1 198.235 746.549)" stroke="white" stroke-opacity="0.7" stroke-width="6"/>
<path d="M434.312 1058.25C434.312 988.662 456.396 873 545.596 821.5L1274.79 400.5C1302.48 384.511 1365.69 432.17 1402.53 449.25C1440.88 467.032 1553.5 521.22 1578.85 559.515C1583.9 567.146 1582.46 580.236 1579.51 593.502L1422.56 1299.25C1419.61 1312.51 1418.49 1325.23 1417 1338.02C1410.19 1396.56 1373.04 1461.3 1325.92 1496.98C1314.8 1505.4 1303.54 1513.41 1292.82 1523.55L741.476 2044.95C730.754 2055.09 719.262 2063.37 709.656 2062.15C664.111 2056.34 561.778 1983.92 530.008 1958C494.807 1929.28 434.312 1882.51 434.312 1848.25L434.312 1058.25Z" fill="white"/>
<path d="M434.312 1058.25C434.312 988.662 456.396 873 545.596 821.5L1274.79 400.5C1302.48 384.511 1365.69 432.17 1402.53 449.25C1440.88 467.032 1553.5 521.22 1578.85 559.515C1583.9 567.146 1582.46 580.236 1579.51 593.502L1422.56 1299.25C1419.61 1312.51 1418.49 1325.23 1417 1338.02C1410.19 1396.56 1373.04 1461.3 1325.92 1496.98C1314.8 1505.4 1303.54 1513.41 1292.82 1523.55L741.476 2044.95C730.754 2055.09 719.262 2063.37 709.656 2062.15C664.111 2056.34 561.778 1983.92 530.008 1958C494.807 1929.28 434.312 1882.51 434.312 1848.25L434.312 1058.25Z" fill="black" fill-opacity="0.08"/>
<path d="M545.596 823.5L1274.79 402.5C1277.9 400.706 1281.65 399.727 1285.99 399.538C1290.31 399.35 1295.1 399.949 1300.25 401.18C1310.55 403.643 1322.13 408.6 1334.05 414.617C1345.96 420.631 1358.16 427.678 1369.7 434.301C1381.23 440.917 1392.12 447.117 1401.37 451.405C1420.54 460.293 1458.25 478.275 1494.34 498.814C1512.39 509.085 1530.01 519.987 1544.7 530.705C1559.41 541.44 1571.1 551.932 1577.34 561.358C1582.03 568.452 1580.78 580.747 1577.85 593.896L1420.9 1299.64C1417.91 1313.11 1416.76 1326.04 1415.28 1338.72C1408.58 1396.33 1372.02 1460.05 1325.65 1495.15C1314.62 1503.5 1303.18 1511.65 1292.29 1521.95L740.949 2043.35C730.35 2053.37 719.496 2061.06 710.559 2059.92C688.012 2057.04 651.196 2037.6 615.916 2015.51C580.695 1993.46 547.197 1968.89 531.342 1955.95C513.722 1941.58 489.842 1922.74 470.358 1903.21C460.616 1893.45 452.005 1883.55 445.837 1873.98C439.629 1864.35 436.044 1855.27 436.044 1847.25L436.044 1057.25C436.044 1022.64 441.544 976.721 458.016 933.195C474.43 889.824 501.717 848.834 545.596 823.5Z" stroke="black" stroke-opacity="0.29" stroke-width="4"/>
<g filter="url(#filter1_i_23_1183)">
<rect width="1084" height="1084" rx="126" transform="matrix(0.866025 -0.5 2.20305e-08 1 652.983 1026)" fill="white"/>
<rect width="1084" height="1084" rx="126" transform="matrix(0.866025 -0.5 2.20305e-08 1 652.983 1026)" fill="black" fill-opacity="0.2"/>
</g>
<rect x="2.59808" y="1.5" width="1078" height="1078" rx="123" transform="matrix(0.866025 -0.5 2.20305e-08 1 653.331 1027.3)" stroke="white" stroke-opacity="0.21" stroke-width="6"/>
<g clip-path="url(#clip0_23_1183)" filter="url(#filter2_i_23_1183)">
<g clip-path="url(#clip1_23_1183)" filter="url(#filter3_i_23_1183)">
<g filter="url(#filter4_i_23_1183)">
<path d="M1023.22 1655.39C1037.15 1647.34 1048.45 1627.78 1048.45 1611.7C1048.45 1595.61 1037.15 1589.09 1023.22 1597.13C1009.29 1605.18 997.998 1624.74 997.998 1640.82C997.998 1656.91 1009.29 1663.43 1023.22 1655.39Z" stroke="#618635" stroke-width="97" stroke-linecap="round" stroke-linejoin="round"/>
</g>
<g filter="url(#filter5_i_23_1183)">
<path d="M1300 1495.59C1313.94 1487.54 1325.23 1467.98 1325.23 1451.9C1325.23 1435.81 1313.94 1429.29 1300 1437.33C1286.07 1445.38 1274.78 1464.94 1274.78 1481.02C1274.78 1497.11 1286.07 1503.63 1300 1495.59Z" stroke="#618635" stroke-width="97" stroke-linecap="round" stroke-linejoin="round"/>
</g>
<g filter="url(#filter6_i_23_1183)">
<path d="M821.43 1161.82L922.078 1103.71L989.512 1454.06C991.813 1466.12 998.115 1474.5 1007.32 1477.75C1016.52 1480.99 1028.03 1478.89 1039.84 1471.81L1284.41 1330.61C1296.22 1324.05 1307.73 1312.86 1316.93 1298.99C1326.13 1285.12 1332.43 1269.46 1334.73 1254.75L1374.99 987.581L947.24 1234.54" stroke="#618635" stroke-width="97" stroke-linecap="round" stroke-linejoin="round"/>
</g>
</g>
</g>
<defs>
<filter id="filter0_i_23_1183" x="197.887" y="251.347" width="938.771" height="1533.81" filterUnits="userSpaceOnUse" color-interpolation-filters="sRGB">
<feFlood flood-opacity="0" result="BackgroundImageFix"/>
<feBlend mode="normal" in="SourceGraphic" in2="BackgroundImageFix" result="shape"/>
<feColorMatrix in="SourceAlpha" type="matrix" values="0 0 0 0 0 0 0 0 0 0 0 0 0 0 0 0 0 0 127 0" result="hardAlpha"/>
<feMorphology radius="20" operator="erode" in="SourceAlpha" result="effect1_innerShadow_23_1183"/>
<feOffset dy="4"/>
<feGaussianBlur stdDeviation="2"/>
<feComposite in2="hardAlpha" operator="arithmetic" k2="-1" k3="1"/>
<feColorMatrix type="matrix" values="0 0 0 0 1 0 0 0 0 1 0 0 0 0 1 0 0 0 0.18 0"/>
<feBlend mode="normal" in2="shape" result="effect1_innerShadow_23_1183"/>
</filter>
<filter id="filter1_i_23_1183" x="652.983" y="532.097" width="938.771" height="1533.81" filterUnits="userSpaceOnUse" color-interpolation-filters="sRGB">
<feFlood flood-opacity="0" result="BackgroundImageFix"/>
<feBlend mode="normal" in="SourceGraphic" in2="BackgroundImageFix" result="shape"/>
<feColorMatrix in="SourceAlpha" type="matrix" values="0 0 0 0 0 0 0 0 0 0 0 0 0 0 0 0 0 0 127 0" result="hardAlpha"/>
<feMorphology radius="20" operator="erode" in="SourceAlpha" result="effect1_innerShadow_23_1183"/>
<feOffset dy="4"/>
<feGaussianBlur stdDeviation="2"/>
<feComposite in2="hardAlpha" operator="arithmetic" k2="-1" k3="1"/>
<feColorMatrix type="matrix" values="0 0 0 0 1 0 0 0 0 1 0 0 0 0 1 0 0 0 0.18 0"/>
<feBlend mode="normal" in2="shape" result="effect1_innerShadow_23_1183"/>
</filter>
<filter id="filter2_i_23_1183" x="695.749" y="657" width="793.815" height="1299" filterUnits="userSpaceOnUse" color-interpolation-filters="sRGB">
<feFlood flood-opacity="0" result="BackgroundImageFix"/>
<feBlend mode="normal" in="SourceGraphic" in2="BackgroundImageFix" result="shape"/>
<feColorMatrix in="SourceAlpha" type="matrix" values="0 0 0 0 0 0 0 0 0 0 0 0 0 0 0 0 0 0 127 0" result="hardAlpha"/>
<feOffset dx="-7" dy="23"/>
<feGaussianBlur stdDeviation="2"/>
<feComposite in2="hardAlpha" operator="arithmetic" k2="-1" k3="1"/>
<feColorMatrix type="matrix" values="0 0 0 0 1 0 0 0 0 1 0 0 0 0 1 0 0 0 0.66 0"/>
<feBlend mode="normal" in2="shape" result="effect1_innerShadow_23_1183"/>
</filter>
<filter id="filter3_i_23_1183" x="736.676" y="708" width="707.854" height="1212.5" filterUnits="userSpaceOnUse" color-interpolation-filters="sRGB">
<feFlood flood-opacity="0" result="BackgroundImageFix"/>
<feBlend mode="normal" in="SourceGraphic" in2="BackgroundImageFix" result="shape"/>
<feColorMatrix in="SourceAlpha" type="matrix" values="0 0 0 0 0 0 0 0 0 0 0 0 0 0 0 0 0 0 127 0" result="hardAlpha"/>
<feOffset dx="-16" dy="14"/>
<feGaussianBlur stdDeviation="7.95"/>
<feComposite in2="hardAlpha" operator="arithmetic" k2="-1" k3="1"/>
<feColorMatrix type="matrix" values="0 0 0 0 1 0 0 0 0 1 0 0 0 0 1 0 0 0 0.63 0"/>
<feBlend mode="normal" in2="shape" result="effect1_innerShadow_23_1183"/>
</filter>
<filter id="filter4_i_23_1183" x="955.996" y="1539.45" width="134.452" height="177.615" filterUnits="userSpaceOnUse" color-interpolation-filters="sRGB">
<feFlood flood-opacity="0" result="BackgroundImageFix"/>
<feBlend mode="normal" in="SourceGraphic" in2="BackgroundImageFix" result="shape"/>
<feColorMatrix in="SourceAlpha" type="matrix" values="0 0 0 0 0 0 0 0 0 0 0 0 0 0 0 0 0 0 127 0" result="hardAlpha"/>
<feOffset dy="40"/>
<feGaussianBlur stdDeviation="2"/>
<feComposite in2="hardAlpha" operator="arithmetic" k2="-1" k3="1"/>
<feColorMatrix type="matrix" values="0 0 0 0 0.498039 0 0 0 0 0.682353 0 0 0 0 0.27451 0 0 0 1 0"/>
<feBlend mode="normal" in2="shape" result="effect1_innerShadow_23_1183"/>
</filter>
<filter id="filter5_i_23_1183" x="1232.78" y="1379.65" width="134.452" height="177.615" filterUnits="userSpaceOnUse" color-interpolation-filters="sRGB">
<feFlood flood-opacity="0" result="BackgroundImageFix"/>
<feBlend mode="normal" in="SourceGraphic" in2="BackgroundImageFix" result="shape"/>
<feColorMatrix in="SourceAlpha" type="matrix" values="0 0 0 0 0 0 0 0 0 0 0 0 0 0 0 0 0 0 127 0" result="hardAlpha"/>
<feOffset dy="40"/>
<feGaussianBlur stdDeviation="2"/>
<feComposite in2="hardAlpha" operator="arithmetic" k2="-1" k3="1"/>
<feColorMatrix type="matrix" values="0 0 0 0 0.498039 0 0 0 0 0.682353 0 0 0 0 0.27451 0 0 0 1 0"/>
<feBlend mode="normal" in2="shape" result="effect1_innerShadow_23_1183"/>
</filter>
<filter id="filter6_i_23_1183" x="779.428" y="933.356" width="637.568" height="604.104" filterUnits="userSpaceOnUse" color-interpolation-filters="sRGB">
<feFlood flood-opacity="0" result="BackgroundImageFix"/>
<feBlend mode="normal" in="SourceGraphic" in2="BackgroundImageFix" result="shape"/>
<feColorMatrix in="SourceAlpha" type="matrix" values="0 0 0 0 0 0 0 0 0 0 0 0 0 0 0 0 0 0 127 0" result="hardAlpha"/>
<feOffset dy="40"/>
<feGaussianBlur stdDeviation="2"/>
<feComposite in2="hardAlpha" operator="arithmetic" k2="-1" k3="1"/>
<feColorMatrix type="matrix" values="0 0 0 0 0.498039 0 0 0 0 0.682353 0 0 0 0 0.27451 0 0 0 1 0"/>
<feBlend mode="normal" in2="shape" result="effect1_innerShadow_23_1183"/>
</filter>
<clipPath id="clip0_23_1183">
<rect width="912" height="839" fill="white" transform="matrix(0.866025 -0.5 2.20305e-08 1 699.749 1113)"/>
</clipPath>
<clipPath id="clip1_23_1183">
<rect width="799" height="799" fill="white" transform="matrix(0.866025 -0.5 2.20305e-08 1 752.576 1107.5)"/>
</clipPath>
</defs>
</svg>
