<?xml version="1.0" encoding="UTF-8"?>
<svg version="1.1" xmlns="http://www.w3.org/2000/svg" width="640" height="640">
<path d="M0 0 C211.2 0 422.4 0 640 0 C640 211.2 640 422.4 640 640 C428.8 640 217.6 640 0 640 C0 428.8 0 217.6 0 0 Z " fill="#FEFEFE" transform="translate(0,0)"/>
<path d="M0 0 C109.56 0 219.12 0 332 0 C332 7.59 332 15.18 332 23 C196.865 23.495 196.865 23.495 59 24 C69.23 24.33 79.46 24.66 90 25 C96.75151523 25.35380103 103.49750798 25.71473356 110.24481201 26.12893677 C138.73223713 27.86900889 167.23914523 29.20420401 195.74707031 30.55395508 C212.09637653 31.32811471 228.44547083 32.10651989 244.79237747 32.9300518 C246.47133288 33.01438185 248.15032521 33.09798041 249.82935715 33.18077278 C258.57078134 33.61269658 267.29179393 34.09468408 276 35 C272.40355053 36.86714283 268.74462313 38.08443949 264.875 39.25 C263.42810837 39.6983256 261.98150383 40.14757856 260.53515625 40.59765625 C258.302442 41.29000427 256.06906837 41.97911308 253.83154297 42.65576172 C216.33927952 54.05088703 179.3828224 76.93257593 159.92236328 111.93847656 C150.37687083 129.97959544 146.95454678 148.64594694 151.8828125 168.640625 C155.12113527 178.37823891 159.62871386 188.83166815 168.8125 194.125 C169.62332031 194.60195313 170.43414062 195.07890625 171.26953125 195.5703125 C176.82904001 198.48129992 182.35726585 200.52532719 188.4375 202.0625 C189.12489258 202.24184082 189.81228516 202.42118164 190.52050781 202.60595703 C194.10367111 203.49156378 197.48175562 204.09994543 201.17578125 204.20703125 C207.01365305 204.40665823 211.9641918 204.62099872 216.390625 208.8828125 C219.06670563 211.83494764 221.43933985 214.9832608 223.74072266 218.23291016 C225.45364795 220.6365847 227.31694346 222.90534752 229.1875 225.1875 C229.76056885 225.93926514 230.3336377 226.69103027 230.92407227 227.46557617 C232.93061891 230.03703531 232.93061891 230.03703531 235.32128906 232.13134766 C241.42300046 238.1392443 242.79773583 242.65027368 242.87890625 251.04296875 C242.86494507 254.76774482 242.71214572 258.4610714 242.5625 262.1875 C242.376875 268.725625 242.19125 275.26375 242 282 C221.54 282 201.08 282 180 282 C179.67 272.43 179.34 262.86 179 253 C179.22060015 242.5509371 179.22060015 242.5509371 174.78125 238.72265625 C173.37692142 237.80032322 171.94779097 236.91498947 170.5 236.0625 C168.93951397 235.05560159 167.37963481 234.04776215 165.8203125 233.0390625 C165.01883789 232.53793945 164.21736328 232.03681641 163.39160156 231.52050781 C159.62471343 229.12563446 156.0063187 226.53141917 152.375 223.9375 C150.97789654 222.95177762 149.58076123 221.96610038 148.18359375 220.98046875 C141.73035587 216.40089825 135.36235294 211.70462197 129 207 C130.63331087 209.4499663 132.24635973 211.47337301 134.19921875 213.65234375 C144.49097967 225.31740403 153.66321871 237.87956746 162 251 C162.59554688 251.92425781 163.19109375 252.84851563 163.8046875 253.80078125 C167.17889405 259.19783302 170.28091786 264.83501579 172 271 C171.67 271.66 171.34 272.32 171 273 C170.48953125 272.62488281 169.9790625 272.24976563 169.453125 271.86328125 C140.72248895 251.63976616 96.45840756 249.79267919 62.75537109 255.5168457 C46.8564179 258.62526173 31.251229 263.42966794 18 273 C23.41131646 248.53634015 44.5391225 225.93963246 61 208 C58.25122893 209.30324443 55.82522692 210.74700086 53.375 212.546875 C52.67802002 213.05541016 51.98104004 213.56394531 51.26293945 214.08789062 C50.51616943 214.63638672 49.76939941 215.18488281 49 215.75 C41.333123 221.33741557 33.59713721 226.81645499 25.81445312 232.24121094 C24.63206055 233.06540527 24.63206055 233.06540527 23.42578125 233.90625 C22.73911377 234.38384766 22.05244629 234.86144531 21.3449707 235.35351562 C20.57113037 235.89685547 19.79729004 236.44019531 19 237 C18.40798294 237.32361008 17.81596588 237.64722015 17.20600891 237.9806366 C14.42527852 239.63133545 12.39769731 240.84781797 11.31394958 243.98757935 C10.99797984 246.42251469 10.90050084 248.78322432 10.87890625 251.23828125 C10.8466394 252.01957397 10.81437256 252.8008667 10.78112793 253.60583496 C10.67122135 256.50689031 10.62031082 259.40993915 10.5625 262.3125 C10.376875 268.809375 10.19125 275.30625 10 282 C-11.78 282 -33.56 282 -56 282 C-56.2475 275.338125 -56.495 268.67625 -56.75 261.8125 C-56.91387207 258.70098511 -56.91387207 258.70098511 -57.08105469 255.52661133 C-57.33027203 247.32909261 -57.47004498 240.58499015 -51.88555908 234.14176941 C-49.84518983 232.08877966 -47.71902555 230.18630897 -45.49737549 228.33230591 C-43.10223363 226.20120274 -41.22700266 223.77033437 -39.25 221.25 C-37.85042161 219.48630366 -36.43098535 217.73831107 -35 216 C-34.4730957 215.27385498 -33.94619141 214.54770996 -33.40332031 213.79956055 C-27.94962072 206.8160086 -22.76063306 205.07247538 -14.25 203.3125 C-2.16111018 200.65040218 10.80173013 196.95112935 19 187 C25.71945447 175.81071149 27.97396297 164.67955334 25.3515625 151.8203125 C21.7468046 140.94441901 14.27154957 132.53721582 4.125 127.3125 C-8.38077826 122.02860164 -22.33199112 122.83180036 -35.66748047 122.51202393 C-52.5830235 122.08991975 -69.67630001 120.73213643 -86 116 C-87.051875 115.69835937 -88.10375 115.39671875 -89.1875 115.0859375 C-113.04631161 107.40914395 -134.77002434 91.37666405 -154.75292969 76.64550781 C-157.02349888 74.982792 -159.30928271 73.34356843 -161.6015625 71.7109375 C-170.70549282 65.2205572 -179.53696999 58.49254958 -188.21191406 51.44091797 C-191.15432535 49.06979407 -194.14272124 46.75810632 -197.125 44.4375 C-202.30889639 40.39012921 -207.36216339 36.21187936 -212.35864258 31.93579102 C-216.57585359 28.33177857 -220.89292223 24.87037855 -225.26953125 21.4609375 C-225.84058594 20.97882813 -226.41164062 20.49671875 -227 20 C-227 19.67 -227 19.34 -227 19 C-168.59 19 -110.18 19 -50 19 C-48.02 32.365 -48.02 32.365 -46 46 C-44.52320948 55.3140282 -44.52320948 55.3140282 -43.02734375 64.625 C-41.66478507 73.08011697 -40.3356951 81.54059767 -39 90 C-38.67 64.92 -38.34 39.84 -38 14 C-29.42 14 -20.84 14 -12 14 C-10.32191669 22.55023401 -8.8125331 31.05583083 -7.625 39.6875 C-5.68873371 53.16689224 -3.31375008 66.58024952 -1 80 C-0.505 40.4 -0.505 40.4 0 0 Z " fill="#26303C" transform="translate(268,108)"/>
<path d="M0 0 C12.19688651 9.65993412 20.52199097 25.32966507 22.703125 40.484375 C24.30140492 59.82356205 21.16655422 78.73782229 8.265625 93.984375 C7.09898163 95.17189789 5.91101293 96.33882967 4.703125 97.484375 C4.07277344 98.14566406 3.44242187 98.80695313 2.79296875 99.48828125 C-10.37525211 112.45959414 -28.1528857 115.75145354 -45.95263672 115.73095703 C-63.74949623 115.51532703 -77.16728184 108.62722072 -90.19140625 96.7578125 C-102.75408707 83.88319153 -106.59799918 65.99360576 -106.61157227 48.68188477 C-106.41707686 35.39520167 -102.78656232 24.52767992 -95.296875 13.484375 C-94.77351562 12.68386719 -94.25015625 11.88335937 -93.7109375 11.05859375 C-86.91399854 1.45998971 -77.34370188 -4.83956943 -66.296875 -8.515625 C-64.87903654 -9.07516482 -63.46229425 -9.63749345 -62.046875 -10.203125 C-41.53083838 -17.38373782 -17.63525164 -11.63686673 0 0 Z " fill="#DFA76B" transform="translate(247.296875,416.515625)"/>
<path d="M0 0 C1.36572144 -0.00833862 1.36572144 -0.00833862 2.7590332 -0.0168457 C20.36222423 0.16979438 35.79699102 6.53335746 48.75 18.3125 C47.29957091 21.65834964 45.47261175 23.81304036 42.87109375 26.3515625 C42.11505859 27.09664063 41.35902344 27.84171875 40.58007812 28.609375 C39.79052734 29.37765625 39.00097656 30.1459375 38.1875 30.9375 C36.62152109 32.46913169 35.05761061 34.00288195 33.49609375 35.5390625 C32.45473267 36.55347412 32.45473267 36.55347412 31.39233398 37.58837891 C29.67043505 39.22738551 29.67043505 39.22738551 28.75 41.3125 C26.07939125 40.18262707 24.44308693 39.02132606 22.3125 37 C14.32567453 30.29106661 4.35019672 28.50852284 -5.80078125 28.89453125 C-10.6011937 29.47623468 -14.18109199 30.73845603 -18.25 33.3125 C-18.95769531 33.74820313 -19.66539062 34.18390625 -20.39453125 34.6328125 C-27.24450638 39.28418708 -31.1522985 45.32651358 -33.25 53.3125 C-34.39185606 65.11924127 -34.69108327 76.92395743 -27.44921875 86.7578125 C-21.84004521 93.53238714 -16.0252377 97.6140669 -7.25 99.3125 C1.91650439 100.02240591 9.89190596 98.64870063 18.75 96.3125 C19.08 90.3725 19.41 84.4325 19.75 78.3125 C12.16 78.3125 4.57 78.3125 -3.25 78.3125 C-3.25 68.7425 -3.25 59.1725 -3.25 49.3125 C14.24 49.3125 31.73 49.3125 49.75 49.3125 C49.75 71.0925 49.75 92.8725 49.75 115.3125 C33.6372093 123.36889535 33.6372093 123.36889535 25.6875 125.1875 C24.88634766 125.38601563 24.08519531 125.58453125 23.25976562 125.7890625 C21.09393403 126.32020264 18.92751908 126.83165982 16.75 127.3125 C15.95134521 127.49208252 15.15269043 127.67166504 14.32983398 127.85668945 C-5.52032518 131.36385773 -24.94462255 127.81052385 -41.64453125 116.72265625 C-55.43703243 106.73660344 -63.12218771 92.05198739 -65.9453125 75.55615234 C-68.42296406 57.31126626 -65.07517598 39.44299392 -53.9921875 24.5546875 C-53.41726563 23.81476563 -52.84234375 23.07484375 -52.25 22.3125 C-51.77820313 21.67570312 -51.30640625 21.03890625 -50.8203125 20.3828125 C-41.94518419 9.10086974 -27.42149482 2.51538795 -13.44482422 0.53515625 C-8.97045259 0.08124892 -4.49437305 0.02300552 0 0 Z " fill="#DFA76B" transform="translate(435.25,403.6875)"/>
<path d="M0 0 C68.17810263 0 68.17810263 0 81.75 12.125 C89.57518975 20.67981117 90.84332475 29.65092661 90.3515625 40.81640625 C90.01437038 45.61026029 89.26311506 49.72331488 87 54 C86.60941406 54.75410156 86.21882813 55.50820313 85.81640625 56.28515625 C82.18068117 62.45455944 77.30704169 66.62394154 71 70 C70.01 70 69.02 70 68 70 C71.90273174 78.29896713 76.57198817 86.07744022 81.375 93.875 C85.63319218 100.81378982 89.88670162 107.75501365 94.0390625 114.7578125 C94.61092285 115.72090332 95.1827832 116.68399414 95.77197266 117.67626953 C97 120 97 120 97 122 C85.45 122 73.9 122 62 122 C56.98619232 113.22583655 52.02997442 104.46016322 47.25 95.5625 C46.15181143 93.521721 45.05287251 91.48134558 43.953125 89.44140625 C43.44716797 88.50184082 42.94121094 87.56227539 42.41992188 86.59423828 C41.1858749 84.33959881 39.91194943 82.11775044 38.609375 79.90234375 C37 77 37 77 37 75 C34.69 75 32.38 75 30 75 C30 90.51 30 106.02 30 122 C20.1 122 10.2 122 0 122 C0 81.74 0 41.48 0 0 Z " fill="#DFA76A" transform="translate(276,407)"/>
<path d="M0 0 C27.72 0 55.44 0 84 0 C84 9.24 84 18.48 84 28 C66.18 28 48.36 28 30 28 C30 33.94 30 39.88 30 46 C46.83 46 63.66 46 81 46 C81 54.91 81 63.82 81 73 C64.17 73 47.34 73 30 73 C30 79.93 30 86.86 30 94 C48.81 94 67.62 94 87 94 C87 103.24 87 112.48 87 122 C58.29 122 29.58 122 0 122 C0 81.74 0 41.48 0 0 Z " fill="#DFA669" transform="translate(497,407)"/>
<path d="M0 0 C27.06 0 54.12 0 82 0 C82 9.24 82 18.48 82 28 C64.84 28 47.68 28 30 28 C30 34.27 30 40.54 30 47 C46.17 47 62.34 47 79 47 C79 56.57 79 66.14 79 76 C62.5 76 46 76 29 76 C29 91.18 29 106.36 29 122 C19.43 122 9.86 122 0 122 C0 81.74 0 41.48 0 0 Z " fill="#DFA76A" transform="translate(56,407)"/>
<path d="M0 0 C5.74472048 4.02334147 9.83623933 8.74605449 13 15 C13.55107422 16.08861328 13.55107422 16.08861328 14.11328125 17.19921875 C15.33564898 21.0601776 15.34130892 24.66009654 15.3125 28.6875 C15.30512817 29.89188721 15.30512817 29.89188721 15.29760742 31.12060547 C15.09258217 41.51906562 12.360724 50.14867403 5.25 57.91015625 C-1.73957479 64.54743392 -8.77528184 67.18374636 -18.375 67.625 C-27.76251895 67.35001207 -35.1184074 63.96714573 -42 57.625 C-49.23496098 49.58225212 -52.68866232 38.19727435 -52.28125 27.46875 C-51.15546147 17.58682847 -46.90422634 9.22955533 -39.4375 2.625 C-28.68483939 -5.92502308 -11.97266267 -7.40644643 0 0 Z " fill="#FEFEFD" transform="translate(223,437)"/>
<path d="M0 0 C3.155625 -0.061875 6.31125 -0.12375 9.5625 -0.1875 C10.5429126 -0.21481201 11.5233252 -0.24212402 12.53344727 -0.27026367 C18.15659754 -0.32328537 22.03709662 0.30659777 27 3 C29 5 29 5 29.265625 7.27734375 C29.26046875 8.15519531 29.2553125 9.03304688 29.25 9.9375 C29.25515625 10.81277344 29.2603125 11.68804687 29.265625 12.58984375 C29 15 29 15 27 18 C21.56907109 20.6200328 16.01095935 20.22868221 10.125 20.125 C9.15046875 20.11597656 8.1759375 20.10695313 7.171875 20.09765625 C4.78114328 20.0742177 2.39053901 20.03835089 0 20 C0 13.4 0 6.8 0 0 Z " fill="#FEFDFC" transform="translate(305,434)"/>
<path d="M0 0 C4 3 4 3 4.48101807 4.9172821 C4.47213562 5.63898087 4.46325317 6.36067963 4.45410156 7.10424805 C4.45379944 7.92487228 4.45349731 8.74549652 4.45318604 9.59098816 C4.43254089 10.47232925 4.41189575 11.35367035 4.390625 12.26171875 C4.38496521 13.16751175 4.37930542 14.07330475 4.37347412 15.00654602 C4.35107616 17.90073411 4.30087392 20.7936859 4.25 23.6875 C4.2299394 25.64907067 4.21168786 27.61066073 4.1953125 29.57226562 C4.15120018 34.38198706 4.08214941 39.1907839 4 44 C3.01 43.67 2.02 43.34 1 43 C0.67 28.81 0.34 14.62 0 0 Z " fill="#3E4753" transform="translate(506,346)"/>
<path d="M0 0 C0.66 0 1.32 0 2 0 C2 5.28 2 10.56 2 16 C1.67 16 1.34 16 1 16 C0.63913128 13.52163716 0.28601843 11.04260213 -0.0625 8.5625 C-0.16626953 7.85544922 -0.27003906 7.14839844 -0.37695312 6.41992188 C-0.62689163 4.61864093 -0.81801314 2.80940959 -1 1 C-0.67 0.67 -0.34 0.34 0 0 Z " fill="#F7F8F8" transform="translate(227,180)"/>
<path d="M0 0 C3.5786304 1.65167557 6.74820188 3.78286492 10 6 C9.34 7.32 8.68 8.64 8 10 C6.66370254 8.52351062 5.33103329 7.0437367 4 5.5625 C3.2575 4.73878906 2.515 3.91507812 1.75 3.06640625 C0 1 0 1 0 0 Z " fill="#DEE0E2" transform="translate(395,314)"/>
<path d="M0 0 C0.66 0.33 1.32 0.66 2 1 C-0.64 3.64 -3.28 6.28 -6 9 C-6.66 8.67 -7.32 8.34 -8 8 C-6.88333826 4.65001479 -6.25305075 4.20659778 -3.4375 2.3125 C-2.79683594 1.87550781 -2.15617187 1.43851562 -1.49609375 0.98828125 C-1.00238281 0.66214844 -0.50867188 0.33601563 0 0 Z " fill="#EAEBED" transform="translate(329,314)"/>
<path d="M0 0 C0.33 0.66 0.66 1.32 1 2 C-0.98 4.31 -2.96 6.62 -5 9 C-5.99 8.67 -6.98 8.34 -8 8 C-5.36 5.36 -2.72 2.72 0 0 Z " fill="#39424D" transform="translate(330,315)"/>
<path d="M0 0 C0.99 0.33 1.98 0.66 3 1 C1.02 2.98 -0.96 4.96 -3 7 C-3.66 6.67 -4.32 6.34 -5 6 C-3.35 4.02 -1.7 2.04 0 0 Z " fill="#363F4A" transform="translate(239,317)"/>
</svg>
