<?xml version="1.0" encoding="UTF-8"?>
<svg version="1.1" xmlns="http://www.w3.org/2000/svg" width="512" height="512">
<path d="M0 0 C168.96 0 337.92 0 512 0 C512 112.86 512 225.72 512 342 C343.04 342 174.08 342 0 342 C0 229.14 0 116.28 0 0 Z " fill="#2F52B2" transform="translate(0,85)"/>
<path d="M0 0 C168.96 0 337.92 0 512 0 C512 14.19 512 28.38 512 43 C343.04 43 174.08 43 0 43 C0 28.81 0 14.62 0 0 Z " fill="#D80128" transform="translate(0,384)"/>
<path d="M0 0 C168.96 0 337.92 0 512 0 C512 14.19 512 28.38 512 43 C343.04 43 174.08 43 0 43 C0 28.81 0 14.62 0 0 Z " fill="#EFEEEE" transform="translate(0,341)"/>
<path d="M0 0 C168.96 0 337.92 0 512 0 C512 13.86 512 27.72 512 42 C343.04 42 174.08 42 0 42 C0 28.14 0 14.28 0 0 Z " fill="#D80027" transform="translate(0,299)"/>
<path d="M0 0 C84.48 0 168.96 0 256 0 C256 14.19 256 28.38 256 43 C87.04 43 -81.92 43 -256 43 C-256 33.1 -256 23.2 -256 13 C-171.52 13 -87.04 13 0 13 C0 8.71 0 4.42 0 0 Z " fill="#EFEDED" transform="translate(256,256)"/>
<path d="M0 0 C84.48 0 168.96 0 256 0 C256 14.19 256 28.38 256 43 C171.52 43 87.04 43 0 43 C0 28.81 0 14.62 0 0 Z " fill="#D80128" transform="translate(256,213)"/>
<path d="M0 0 C84.48 0 168.96 0 256 0 C256 14.19 256 28.38 256 43 C171.52 43 87.04 43 0 43 C0 28.81 0 14.62 0 0 Z " fill="#D80128" transform="translate(256,128)"/>
<path d="M0 0 C84.48 0 168.96 0 256 0 C256 14.19 256 28.38 256 43 C171.52 43 87.04 43 0 43 C0 28.81 0 14.62 0 0 Z " fill="#F0EFEF" transform="translate(256,85)"/>
<path d="M0 0 C84.48 0 168.96 0 256 0 C256 13.86 256 27.72 256 42 C171.52 42 87.04 42 0 42 C0 28.14 0 14.28 0 0 Z " fill="#F0F0F0" transform="translate(256,171)"/>
<path d="M0 0 C3.45854519 3.45854519 4 7.21904213 4 12 C8.62 12 13.24 12 18 12 C14.72724974 15.27275026 11.85411644 17.54738045 8 20 C9.485 25.94 9.485 25.94 11 32 C7.23801156 30.11900578 3.64081132 28.10046807 0 26 C-0.55429688 26.433125 -1.10859375 26.86625 -1.6796875 27.3125 C-2.40414062 27.869375 -3.12859375 28.42625 -3.875 29 C-4.59429687 29.556875 -5.31359375 30.11375 -6.0546875 30.6875 C-8 32 -8 32 -10 32 C-9.01 28.04 -8.02 24.08 -7 20 C-8.485 18.865625 -9.97 17.73125 -11.5 16.5625 C-13.02032761 15.40113863 -14.52596883 14.21958532 -16 13 C-16 12.67 -16 12.34 -16 12 C-11.71 12 -7.42 12 -3 12 C-2.87625 10.948125 -2.7525 9.89625 -2.625 8.8125 C-2.08859218 5.54041229 -1.36119965 2.99463924 0 0 Z " fill="#E3E5EB" transform="translate(212,161)"/>
<path d="M0 0 C3.45854519 3.45854519 4 7.21904213 4 12 C8.29 12 12.58 12 17 12 C17 12.66 17 13.32 17 14 C14.12557036 16.20144809 11.05381433 18.04895196 8 20 C9.485 25.94 9.485 25.94 11 32 C7.23801156 30.11900578 3.64081132 28.10046807 0 26 C-0.55429687 26.433125 -1.10859375 26.86625 -1.6796875 27.3125 C-2.40414062 27.869375 -3.12859375 28.42625 -3.875 29 C-4.59429687 29.556875 -5.31359375 30.11375 -6.0546875 30.6875 C-8 32 -8 32 -10 32 C-9.47916667 30.07942708 -8.95833333 28.15885417 -8.4375 26.23828125 C-7.93060917 23.64499156 -7.62837022 21.63096994 -8 19 C-9.95264271 17.13080433 -9.95264271 17.13080433 -12.5 15.75 C-14.00822361 14.84692784 -15.51061768 13.93381908 -17 13 C-17 12.67 -17 12.34 -17 12 C-12.38 12 -7.76 12 -3 12 C-2.87625 10.948125 -2.7525 9.89625 -2.625 8.8125 C-2.08859218 5.54041229 -1.36119965 2.99463924 0 0 Z " fill="#E2E5EB" transform="translate(43,161)"/>
<path d="M0 0 C2.62895146 3.94342719 3.05927998 7.36359419 4 12 C8.29 12 12.58 12 17 12 C14.10492782 14.97549085 11.33810482 17.49642139 8 20 C9.485 26.435 9.485 26.435 11 33 C8.78645833 31.4375 6.57291667 29.875 4.359375 28.3125 C1.86738917 26.67591051 1.86738917 26.67591051 -2 27 C-3.96384165 28.05917234 -3.96384165 28.05917234 -5.75 29.5 C-6.36359375 29.9640625 -6.9771875 30.428125 -7.609375 30.90625 C-8.06828125 31.2671875 -8.5271875 31.628125 -9 32 C-10.18414294 28.44757118 -9.69535532 27.30169438 -8.5625 23.8125 C-8.27503906 22.91144531 -7.98757812 22.01039063 -7.69140625 21.08203125 C-7.46324219 20.39496094 -7.23507813 19.70789063 -7 19 C-7.59296875 18.71253906 -8.1859375 18.42507812 -8.796875 18.12890625 C-11.69929883 16.64167135 -14.33605812 14.87686814 -17 13 C-17 12.67 -17 12.34 -17 12 C-12.71 12 -8.42 12 -4 12 C-3.525625 10.205625 -3.05125 8.41125 -2.5625 6.5625 C-1.125 1.125 -1.125 1.125 0 0 Z " fill="#E3E5EB" transform="translate(156,161)"/>
<path d="M0 0 C2 1 2 1 2.8515625 3.50390625 C3.56770833 6.3359375 4.28385417 9.16796875 5 12 C9.29 12 13.58 12 18 12 C14.87378374 15.39417765 12.43458973 17.6062718 8 19 C8.22816406 19.68707031 8.45632812 20.37414062 8.69140625 21.08203125 C8.97886719 21.98308594 9.26632813 22.88414062 9.5625 23.8125 C9.85253906 24.70582031 10.14257812 25.59914062 10.44140625 26.51953125 C11 29 11 29 10 32 C9.48050781 31.54367188 8.96101563 31.08734375 8.42578125 30.6171875 C6.34626635 28.90283696 4.3258578 27.36328369 2 26 C-0.6992261 26.12741255 -0.6992261 26.12741255 -3 28 C-3.61359375 28.41894531 -4.2271875 28.83789062 -4.859375 29.26953125 C-6.59873297 30.47664568 -8.3022621 31.73501882 -10 33 C-9.01 28.71 -8.02 24.42 -7 20 C-8.485 18.865625 -9.97 17.73125 -11.5 16.5625 C-13.02032761 15.40113863 -14.52596883 14.21958532 -16 13 C-16 12.67 -16 12.34 -16 12 C-11.71 12 -7.42 12 -3 12 C-2.690625 10.576875 -2.38125 9.15375 -2.0625 7.6875 C-1.48800637 5.04482928 -0.85697694 2.57093082 0 0 Z " fill="#E3E5EB" transform="translate(99,161)"/>
<path d="M0 0 C3.45854519 3.45854519 4 7.21904213 4 12 C8.29 12 12.58 12 17 12 C14.42215154 14.64752004 12.08351902 16.94432065 9 19 C9.51958285 23.37934119 10.05675742 27.68803391 11 32 C8.4609375 30.53515625 8.4609375 30.53515625 5.921875 29.0703125 C3.97930801 27.98847641 1.98875555 26.99437778 0 26 C-4.455 28.97 -4.455 28.97 -9 32 C-10.26865682 28.19402954 -9.28937726 26.71644033 -8 23 C-8 21.68 -8 20.36 -8 19 C-9.74364411 17.24533584 -9.74364411 17.24533584 -12 15.8125 C-13.34422229 14.89068089 -14.68066857 13.95710428 -16 13 C-16 12.67 -16 12.34 -16 12 C-11.71 12 -7.42 12 -3 12 C-2.87625 10.948125 -2.7525 9.89625 -2.625 8.8125 C-2.08859218 5.54041229 -1.36119965 2.99463924 0 0 Z " fill="#E5E7EC" transform="translate(43,207)"/>
<path d="M0 0 C3.45854519 3.45854519 4 7.21904213 4 12 C8.29 12 12.58 12 17 12 C14.42215154 14.64752004 12.08351902 16.94432065 9 19 C9.60825035 23.34464536 10.26167392 27.67551867 11 32 C8.4609375 30.53515625 8.4609375 30.53515625 5.921875 29.0703125 C3.97486343 27.98600118 2.00010291 26.98235143 0 26 C-0.55429688 26.433125 -1.10859375 26.86625 -1.6796875 27.3125 C-2.40414062 27.869375 -3.12859375 28.42625 -3.875 29 C-4.59429687 29.556875 -5.31359375 30.11375 -6.0546875 30.6875 C-8 32 -8 32 -10 32 C-9.47916667 30.07942708 -8.95833333 28.15885417 -8.4375 26.23828125 C-7.93421041 23.66341576 -7.66435517 21.61383409 -8 19 C-9.72041272 17.14345579 -9.72041272 17.14345579 -12 15.75 C-13.34197454 14.84603104 -14.67778569 13.93263331 -16 13 C-16 12.67 -16 12.34 -16 12 C-11.71 12 -7.42 12 -3 12 C-2.87625 10.948125 -2.7525 9.89625 -2.625 8.8125 C-2.08859218 5.54041229 -1.36119965 2.99463924 0 0 Z " fill="#E6E8EC" transform="translate(212,207)"/>
<path d="M0 0 C2 1 2 1 2.8515625 3.50390625 C3.56770833 6.3359375 4.28385417 9.16796875 5 12 C9.29 12 13.58 12 18 12 C13 17 13 17 10 19 C9.34 19 8.68 19 8 19 C8.22816406 19.68707031 8.45632812 20.37414062 8.69140625 21.08203125 C8.97886719 21.98308594 9.26632813 22.88414062 9.5625 23.8125 C9.85253906 24.70582031 10.14257812 25.59914062 10.44140625 26.51953125 C11 29 11 29 10 32 C9.48050781 31.54367188 8.96101563 31.08734375 8.42578125 30.6171875 C6.34444139 28.90133246 4.33219867 27.35754848 2 26 C-2.14695215 26.57864449 -4.86628583 29.31395928 -8 32 C-8.66 31.67 -9.32 31.34 -10 31 C-8.68 27.04 -7.36 23.08 -6 19 C-8.475 18.01 -8.475 18.01 -11 17 C-13.8125 14.375 -13.8125 14.375 -16 12 C-11.71 12 -7.42 12 -3 12 C-2.690625 10.576875 -2.38125 9.15375 -2.0625 7.6875 C-1.48800637 5.04482928 -0.85697694 2.57093082 0 0 Z " fill="#E6E8ED" transform="translate(99,207)"/>
<path d="M0 0 C2.62895146 3.94342719 3.05927998 7.36359419 4 12 C8.29 12 12.58 12 17 12 C13.62722811 15.66186662 11.77737198 17.08905121 7 19 C8.32 23.29 9.64 27.58 11 32 C7 30 7 30 4.0625 27.75 C1.20752447 25.67389012 1.20752447 25.67389012 -1.5 26.5 C-4.40314132 28.24188479 -7.22327717 30.06275151 -10 32 C-9.34 27.71 -8.68 23.42 -8 19 C-9.485 18.030625 -10.97 17.06125 -12.5 16.0625 C-14.01935304 15.0707001 -15.52493556 14.05654417 -17 13 C-17 12.67 -17 12.34 -17 12 C-12.71 12 -8.42 12 -4 12 C-3.525625 10.205625 -3.05125 8.41125 -2.5625 6.5625 C-1.125 1.125 -1.125 1.125 0 0 Z " fill="#E6E8ED" transform="translate(156,207)"/>
<path d="M0 0 C2.79024052 4.18536078 3.10154594 8.05850265 4 13 C7.96 13 11.92 13 16 13 C13.42215154 15.64752004 11.08351902 17.94432065 8 20 C8.350625 21.2375 8.70125 22.475 9.0625 23.75 C9.95593273 26.903292 10.00881294 28.86774164 9 32 C8.55269531 31.62746094 8.10539062 31.25492188 7.64453125 30.87109375 C3.92538247 27.84943258 3.92538247 27.84943258 -0.625 26.9375 C-3.49060122 28.21947949 -5.60196672 29.99083698 -8 32 C-8.66 32 -9.32 32 -10 32 C-9.34 28.04 -8.68 24.08 -8 20 C-9.32 19.030625 -10.64 18.06125 -12 17.0625 C-13.35348244 16.06853634 -14.69243643 15.0536394 -16 14 C-16 13.67 -16 13.34 -16 13 C-12.04 13 -8.08 13 -4 13 C-3.79503906 12.14535156 -3.59007812 11.29070312 -3.37890625 10.41015625 C-3.10949219 9.30542969 -2.84007812 8.20070313 -2.5625 7.0625 C-2.29566406 5.96035156 -2.02882812 4.85820313 -1.75390625 3.72265625 C-1 1 -1 1 0 0 Z " fill="#E6E8ED" transform="translate(156,115)"/>
<path d="M0 0 C2 1 2 1 2.8515625 3.50390625 C3.56770833 6.3359375 4.28385417 9.16796875 5 12 C8.96 12 12.92 12 17 12 C14.42215154 14.64752004 12.08351902 16.94432065 9 19 C9.66 22.96 10.32 26.92 11 31 C7 29 7 29 5.0625 27.3125 C3.09107709 25.79867169 3.09107709 25.79867169 0.75 26 C-3.23528898 27.44919599 -6.46322409 29.66213118 -10 32 C-9.01 27.71 -8.02 23.42 -7 19 C-8.32 18.030625 -9.64 17.06125 -11 16.0625 C-12.35348244 15.06853634 -13.69243643 14.0536394 -15 13 C-15 12.67 -15 12.34 -15 12 C-11.04 12 -7.08 12 -3 12 C-2.690625 10.39125 -2.38125 8.7825 -2.0625 7.125 C-1.125 2.25 -1.125 2.25 0 0 Z " fill="#E7E8ED" transform="translate(99,116)"/>
<path d="M0 0 C3.45854519 3.45854519 4 7.21904213 4 12 C7.96 12 11.92 12 16 12 C13.33333333 14.66666667 10.66666667 17.33333333 8 20 C8.34224609 20.92232422 8.34224609 20.92232422 8.69140625 21.86328125 C8.97886719 22.67152344 9.26632813 23.47976562 9.5625 24.3125 C9.85253906 25.11300781 10.14257812 25.91351563 10.44140625 26.73828125 C11 29 11 29 10 32 C7.03 29.69 4.06 27.38 1 25 C-0.44375 25.969375 -1.8875 26.93875 -3.375 27.9375 C-7.75 30.875 -7.75 30.875 -10 32 C-9.68817931 30.58318366 -9.37551263 29.16655349 -9.0625 27.75 C-8.88847656 26.96109375 -8.71445312 26.1721875 -8.53515625 25.359375 C-8.052444 23.23121297 -7.53836822 21.11467158 -7 19 C-7.86625 18.36771484 -7.86625 18.36771484 -8.75 17.72265625 C-9.4925 17.17480469 -10.235 16.62695312 -11 16.0625 C-12.11375 15.24458984 -12.11375 15.24458984 -13.25 14.41015625 C-13.8275 13.94480469 -14.405 13.47945312 -15 13 C-15 12.67 -15 12.34 -15 12 C-9.555 11.505 -9.555 11.505 -4 11 C-3.2884375 8.5559375 -3.2884375 8.5559375 -2.5625 6.0625 C-1.125 1.125 -1.125 1.125 0 0 Z " fill="#E7E9ED" transform="translate(43,116)"/>
<path d="M0 0 C2 1 2 1 2.8515625 3.28515625 C3.56770833 5.85677083 4.28385417 8.42838542 5 11 C10.445 11.495 10.445 11.495 16 12 C13.42215154 14.64752004 11.08351902 16.94432065 8 19 C8.22816406 19.68707031 8.45632812 20.37414062 8.69140625 21.08203125 C8.97886719 21.98308594 9.26632813 22.88414062 9.5625 23.8125 C9.85253906 24.70582031 10.14257812 25.59914062 10.44140625 26.51953125 C11 29 11 29 10 32 C7.03 29.69 4.06 27.38 1 25 C-0.44375 25.969375 -1.8875 26.93875 -3.375 27.9375 C-7.75 30.875 -7.75 30.875 -10 32 C-9.68817931 30.58318366 -9.37551263 29.16655349 -9.0625 27.75 C-8.88847656 26.96109375 -8.71445313 26.1721875 -8.53515625 25.359375 C-8.052444 23.23121297 -7.53836822 21.11467158 -7 19 C-7.86625 18.36771484 -7.86625 18.36771484 -8.75 17.72265625 C-9.4925 17.17480469 -10.235 16.62695312 -11 16.0625 C-12.11375 15.24458984 -12.11375 15.24458984 -13.25 14.41015625 C-13.8275 13.94480469 -14.405 13.47945312 -15 13 C-15 12.67 -15 12.34 -15 12 C-11.04 12 -7.08 12 -3 12 C-2.87625 10.948125 -2.7525 9.89625 -2.625 8.8125 C-2.08859218 5.54041229 -1.36119965 2.99463924 0 0 Z " fill="#E8E9ED" transform="translate(212,116)"/>
</svg>
