<?xml version="1.0" encoding="UTF-8"?>
<svg version="1.1" xmlns="http://www.w3.org/2000/svg" width="280" height="280">
<path d="M0 0 C0.89899796 -0.00445784 1.79799592 -0.00891569 2.72423625 -0.01350862 C3.71818251 -0.01332426 4.71212877 -0.01313989 5.73619461 -0.01294994 C6.78722657 -0.01662663 7.83825854 -0.02030332 8.92113996 -0.02409142 C12.46636891 -0.03516289 16.0115686 -0.03897795 19.55681229 -0.04278088 C22.08921274 -0.04904288 24.62161226 -0.05568944 27.15401077 -0.0626936 C34.77062233 -0.08194675 42.38722876 -0.09252558 50.00385845 -0.10142139 C53.58939442 -0.10580291 57.17492891 -0.11117009 60.76046371 -0.11641026 C72.6775863 -0.13342378 84.59470795 -0.14791823 96.51184082 -0.155159 C99.60528184 -0.15706894 102.69872286 -0.15898926 105.79216385 -0.16094494 C106.56103759 -0.16142868 107.32991134 -0.16191242 108.12208429 -0.16241082 C120.5789462 -0.17071213 133.03571212 -0.19605017 145.4925321 -0.22852562 C158.27758663 -0.26158541 171.06259236 -0.27960679 183.84768987 -0.28280324 C191.02771534 -0.28496939 198.20760084 -0.29373319 205.38758469 -0.31926441 C212.1410557 -0.34322328 218.89423106 -0.3468039 225.64775085 -0.33650303 C228.12857907 -0.33600602 230.60941944 -0.34237473 233.09020996 -0.35605907 C236.47332374 -0.37367876 239.85552256 -0.36671995 243.23863602 -0.35352612 C244.22365939 -0.36449536 245.20868276 -0.37546461 246.22355533 -0.38676625 C251.91186609 -0.33309435 255.25397406 0.28622438 259.7413826 4.13422108 C263.12786682 7.9783383 264.86389888 10.2901106 264.87560368 15.39283848 C264.88006152 16.29183644 264.88451936 17.1908344 264.88911229 18.11707473 C264.88883575 19.60799412 264.88883575 19.60799412 264.88855362 21.12903309 C264.89223031 22.18006505 264.895907 23.23109702 264.8996951 24.31397843 C264.91076657 27.85920739 264.91458163 31.40440708 264.91838455 34.94965076 C264.92464656 37.48205122 264.93129312 40.01445074 264.93829727 42.54684925 C264.95755043 50.16346081 264.96812926 57.78006723 264.97702506 65.39669693 C264.98140659 68.9822329 264.98677376 72.56776739 264.99201393 76.15330219 C265.00902746 88.07042478 265.02352191 99.98754643 265.03076267 111.9046793 C265.03267261 114.99812032 265.03459294 118.09156133 265.03654861 121.18500233 C265.03703235 121.95387607 265.03751609 122.72274982 265.03801449 123.51492277 C265.04631581 135.97178468 265.07165384 148.42855059 265.10412929 160.88537058 C265.13718908 173.67042511 265.15521047 186.45543084 265.15840691 199.24052835 C265.16057306 206.42055382 265.16933687 213.60043932 265.19486809 220.78042316 C265.21882696 227.53389418 265.22240758 234.28706954 265.2121067 241.04058933 C265.2116097 243.52141755 265.21797841 246.00225791 265.23166275 248.48304844 C265.24928243 251.86616222 265.24232363 255.24836103 265.22912979 258.63147449 C265.24558366 260.10900955 265.24558366 260.10900955 265.26236993 261.6163938 C265.20869803 267.30470457 264.58937929 270.64681254 260.7413826 275.13422108 C256.10150738 279.2217302 253.78145681 280.26057656 247.6398201 280.23187733 C246.42810135 280.22865467 245.2163826 280.22543201 243.9679451 280.2221117 C242.06142166 280.20954334 242.06142166 280.20954334 240.1163826 280.19672108 C238.8376326 280.19220936 237.5588826 280.18769764 236.2413826 280.1830492 C233.07466968 280.17123311 229.90804904 280.15475922 226.7413826 280.13422108 C227.21680496 279.01080311 227.21680496 279.01080311 227.70183182 277.86468983 C231.19609262 268.68671593 230.90543976 257.30392831 230.8741951 247.58343983 C230.87120407 246.2397961 230.87120407 246.2397961 230.86815262 244.86900806 C230.78912871 233.54433503 230.16204244 222.24926604 229.4913826 210.94672108 C229.42546921 209.81513569 229.35955582 208.6835503 229.29164505 207.51767445 C228.93705937 154.91343289 228.93705937 154.91343289 212.7413826 107.13422108 C199.04346943 99.06558729 182.27164128 99.10612182 166.86442947 98.52875233 C165.03238837 98.45418504 163.20075918 98.3685382 161.36980057 98.27093983 C159.64615628 98.18128343 157.92072468 98.12037297 156.19499588 98.09125233 C152.15109894 97.8993554 150.356733 97.73728494 147.39372635 94.83343983 C144.80347206 89.90624611 143.65418567 84.30843495 142.3038826 78.94672108 C142.00167801 77.78994862 141.69947342 76.63317616 141.38811111 75.44134998 C140.0275602 70.22223482 138.70521551 64.99377025 137.3898201 59.76312733 C132.67333627 40.56861479 132.67333627 40.56861479 123.7413826 23.13422108 C119.20814845 20.73314367 114.95743747 20.97461614 109.9913826 21.57172108 C109.24002029 21.65663807 108.48865799 21.74155506 107.71452713 21.8290453 C96.1503008 23.36187577 84.91689082 26.88519463 73.7413826 30.13422108 C73.26507401 29.51208729 72.78876541 28.8899535 72.29802322 28.24896717 C71.67089432 27.43508533 71.04376541 26.6212035 70.3976326 25.78265858 C69.77694901 24.97489979 69.15626541 24.167141 68.51677322 23.33490467 C63.78118382 17.46490978 57.7917075 14.4342262 50.3663826 13.32172108 C41.95242104 12.68106411 35.77681529 14.96866345 29.04216385 20.01703358 C23.02450214 25.55450836 19.36467818 32.97717884 18.7413826 41.13422108 C18.77196298 51.8067735 21.48686152 60.21865719 28.7413826 68.13422108 C35.32776221 73.99372546 41.88447863 75.66923245 50.63591385 75.51703358 C57.93105979 74.61775772 64.13033396 70.79922369 68.7413826 65.13422108 C72.17785308 60.62449856 73.78089117 57.14210914 74.5538826 51.50922108 C75.2335701 48.68890858 75.2335701 48.68890858 76.7413826 46.13422108 C81.80969097 43.18863951 87.10716473 41.64896813 92.7413826 40.13422108 C93.88864822 39.7964867 95.03591385 39.45875233 96.2179451 39.11078358 C106.72178812 36.21225474 106.72178812 36.21225474 111.7413826 37.13422108 C116.00856609 41.4687103 118.16704298 45.7586963 120.1788826 51.44672108 C120.61502884 52.65570057 120.61502884 52.65570057 121.05998611 53.88910389 C123.5110799 60.94921128 125.41137338 68.12619662 127.1788826 75.38422108 C127.43790359 76.44294422 127.69692459 77.50166737 127.96379471 78.59247303 C129.18915289 83.86029333 130.26388217 88.72312965 129.7413826 94.13422108 C129.0813826 95.12422108 128.4213826 96.11422108 127.7413826 97.13422108 C125.55176163 97.47479725 125.55176163 97.47479725 122.79533768 97.42718983 C121.76278351 97.41728016 120.73022934 97.40737049 119.66638565 97.39716053 C118.54257996 97.37226551 117.41877426 97.34737049 116.26091385 97.32172108 C114.52064171 97.30468128 114.52064171 97.30468128 112.74521255 97.28729725 C107.77454475 97.23832249 102.80461307 97.15490923 97.83440018 97.07269764 C74.16820961 95.84472787 74.16820961 95.84472787 52.7413826 104.13422108 C51.9988826 104.46422108 51.2563826 104.79422108 50.4913826 105.13422108 C48.20007283 106.44354094 47.89523126 107.77276021 46.7413826 110.13422108 C45.6862048 111.70167516 44.62279645 113.2636018 43.5538826 114.82172108 C36.81258083 125.34884784 31.82458604 137.79662826 29.7413826 150.13422108 C29.59185135 150.94761951 29.4423201 151.76101795 29.2882576 152.59906483 C28.53024445 160.39396671 32.76449316 166.1341284 36.72380447 172.46088123 C41.24079062 179.88876584 45.09358997 187.26130981 43.7413826 196.13422108 C41.02329285 200.25018555 37.77246983 203.30156519 33.7413826 206.13422108 C33.0813826 206.13422108 32.4213826 206.13422108 31.7413826 206.13422108 C31.7413826 206.79422108 31.7413826 207.45422108 31.7413826 208.13422108 C30.07471593 209.80088774 28.40804927 211.46755441 26.7413826 213.13422108 C23.47321015 217.52710125 22.85553273 221.84717905 22.1163826 227.13422108 C21.99158524 227.98653309 21.86678787 228.8388451 21.73820877 229.71698475 C20.22676064 240.33723976 19.66124255 250.78769226 19.6163826 261.50922108 C19.61162918 262.44935047 19.60687576 263.38947987 19.6019783 264.35809803 C19.61405394 269.37216976 19.69470291 274.21880126 20.7413826 279.13422108 C21.4013826 279.46422108 22.0613826 279.79422108 22.7413826 280.13422108 C18.36660786 280.25073833 13.99223433 280.32158107 9.6163826 280.38422108 C8.3788826 280.4177367 7.1413826 280.45125233 5.8663826 280.48578358 C-5.51622392 280.6081772 -5.51622392 280.6081772 -10.2586174 276.13422108 C-13.64510162 272.29010385 -15.38113369 269.97833155 -15.39283848 264.87560368 C-15.39729632 263.97660571 -15.40175417 263.07760775 -15.4063471 262.15136743 C-15.40616273 261.15742117 -15.40597837 260.16347491 -15.40578842 259.13940907 C-15.40946511 258.0883771 -15.4131418 257.03734514 -15.4169299 255.95446372 C-15.42800137 252.40923476 -15.43181643 248.86403508 -15.43561935 245.31879139 C-15.44188136 242.78639094 -15.44852792 240.25399141 -15.45553207 237.7215929 C-15.47478523 230.10498135 -15.48536406 222.48837492 -15.49425986 214.87174523 C-15.49864139 211.28620925 -15.50400857 207.70067476 -15.50924873 204.11513996 C-15.52626226 192.19801738 -15.54075671 180.28089572 -15.54799747 168.36376286 C-15.54990742 165.27032183 -15.55182774 162.17688082 -15.55378342 159.08343983 C-15.55426716 158.31456608 -15.5547509 157.54569234 -15.5552493 156.75351939 C-15.56355061 144.29665747 -15.58888865 131.83989156 -15.62136409 119.38307157 C-15.65442388 106.59801704 -15.67244527 93.81301131 -15.67564172 81.02791381 C-15.67780787 73.84788834 -15.68657167 66.66800284 -15.71210289 59.48801899 C-15.73606176 52.73454798 -15.73964238 45.98137262 -15.72934151 39.22785282 C-15.7288445 36.7470246 -15.73521321 34.26618424 -15.74889755 31.78539371 C-15.76651724 28.40227993 -15.75955843 25.02008112 -15.74636459 21.63696766 C-15.75733384 20.65194429 -15.76830309 19.66692091 -15.77960473 18.65204835 C-15.72593283 12.96373758 -15.1066141 9.62162961 -11.2586174 5.13422108 C-7.41450017 1.74773685 -5.10272788 0.01170479 0 0 Z " fill="#F6CC0E" transform="translate(15.258617401123047,-0.13422107696533203)"/>
<path d="M0 0 C2.22217712 3.33326568 2.22390925 4.20246638 2.08203125 8.05859375 C2.04625977 9.07469727 2.01048828 10.09080078 1.97363281 11.13769531 C1.92045898 12.22663086 1.86728516 13.31556641 1.8125 14.4375 C1.76061523 15.55608398 1.70873047 16.67466797 1.65527344 17.82714844 C-0.26487689 53.94034998 -0.26487689 53.94034998 -9.5 64.25 C-12.23572405 66.16500683 -13.65697249 67 -17 67 C-20.42334343 66.07284449 -22.33169711 64.95068439 -24.38671875 62.02734375 C-31.79289044 48.34927891 -32.05411462 32.85478839 -32.1875 17.6875 C-32.20063232 16.74398682 -32.21376465 15.80047363 -32.22729492 14.82836914 C-32.23341921 9.51389867 -31.97271301 4.96831425 -30 0 C-21.56390905 -4.40977482 -8.7850576 -2.78193491 0 0 Z " fill="#F2C90E" transform="translate(152,195)"/>
<path d="M0 0 C2.375 0.0625 2.375 0.0625 5 1 C12.86671906 9.55468309 12.29094956 21.0775749 12.375 32.0625 C12.38885742 33.15006592 12.40271484 34.23763184 12.41699219 35.3581543 C12.36775218 43.9550705 11.50078575 52.60206644 7.1875 60.1875 C4.3488998 62.53948302 2.68842554 63.07527399 -1 63 C-5.19975078 61.00011868 -6.51776885 58.22506035 -8.1171875 54.05859375 C-10.21397792 48.05750281 -10.61730664 42.62956568 -10.5 36.3125 C-10.48936523 35.27174316 -10.47873047 34.23098633 -10.46777344 33.15869141 C-10.17795172 21.27783534 -8.80753756 8.80753756 0 0 Z " fill="#F2C90E" transform="translate(173,146)"/>
<path d="M0 0 C4.30140382 2.44397944 5.28580928 5.97425257 6.75 10.5625 C10.58432755 24.94664404 11.34729844 45.94717871 4 59.375 C1.75 61.5625 1.75 61.5625 -1.6875 62.75 C-5.25 62.5625 -5.25 62.5625 -8 60.625 C-15.73446933 50.09752785 -15.01233887 35.8253364 -13.28540039 23.37768555 C-10.51363253 5.90537841 -10.51363253 5.90537841 -5 1.25 C-2.25 -0.4375 -2.25 -0.4375 0 0 Z " fill="#F1C80E" transform="translate(101.25,143.4375)"/>
</svg>
