<?xml version="1.0" encoding="UTF-8"?>
<svg version="1.1" xmlns="http://www.w3.org/2000/svg" width="512" height="512">
<path d="M0 0 C0.85183483 -0.0072672 1.70366966 -0.01453441 2.58131766 -0.02202183 C5.44942188 -0.04033911 8.31620012 -0.02288532 11.18429565 -0.00571251 C13.25570423 -0.01147103 15.3271077 -0.01941033 17.39850044 -0.02934873 C23.10127895 -0.05028209 28.80364079 -0.03987726 34.50642109 -0.02441764 C40.65239137 -0.01313464 46.7982885 -0.03055168 52.94424438 -0.04431725 C64.29180969 -0.06529882 75.63920457 -0.06343387 86.98676568 -0.0497599 C97.46914755 -0.03719025 107.95148055 -0.03389481 118.43386841 -0.03987312 C119.47618355 -0.04044601 119.47618355 -0.04044601 120.53955556 -0.04103047 C123.36017036 -0.04258712 126.18078514 -0.04417912 129.00139988 -0.04582929 C155.46982959 -0.06112996 181.93817437 -0.04724803 208.40659097 -0.02034481 C231.93068256 0.00338388 255.45463884 0.00126077 278.97872925 -0.02264977 C305.39823166 -0.04941341 331.817659 -0.06004492 358.23717308 -0.04458845 C361.05269748 -0.04298482 363.8682219 -0.04142062 366.68374634 -0.03987312 C367.72365422 -0.03928004 367.72365422 -0.03928004 368.78457035 -0.03867498 C379.26127751 -0.03298367 389.73793047 -0.03964632 400.21463013 -0.05227089 C412.125176 -0.06655156 424.03556201 -0.06254412 435.94610167 -0.03586717 C442.02669824 -0.02269827 448.10701971 -0.01762909 454.18761444 -0.03411293 C459.74900746 -0.0489616 465.30986917 -0.04090813 470.87121367 -0.01422517 C472.88795816 -0.00861862 474.90474712 -0.01152896 476.92146325 -0.02360411 C479.65416015 -0.0387169 482.38501551 -0.02331245 485.11761475 0 C485.90843185 -0.01170583 486.69924896 -0.02341166 487.51403022 -0.03547221 C491.40554 0.03129993 493.3749946 0.49489197 496.54705656 2.8127476 C498.82305113 5.99914787 499.18482637 7.45220206 499.18801308 11.3217411 C499.20105181 12.46419981 499.21409055 13.60665852 499.2275244 14.78373718 C499.21637079 16.03421152 499.20521718 17.28468586 499.19372559 18.57305336 C499.19948736 19.91850082 499.20742887 21.26394042 499.21736181 22.60936356 C499.23825142 26.30554088 499.22791092 30.00107346 499.21243072 33.69725323 C499.20112956 37.68370959 499.21857373 41.67005417 499.23233032 45.65648842 C499.25458057 53.46548472 499.24975365 61.27424094 499.23526712 69.08324671 C499.22398188 75.42892905 499.22244087 81.77454404 499.2278862 88.12023354 C499.22903545 89.47420359 499.22903545 89.47420359 499.23020791 90.85552657 C499.23180652 92.68915226 499.23342758 94.52277793 499.23507087 96.35640359 C499.2493336 113.55625194 499.23292744 130.75596711 499.20606904 147.95579362 C499.18372977 162.71874248 499.18760976 177.48149477 499.21066284 192.24444008 C499.2374116 209.38211683 499.24796026 226.51967681 499.23260152 243.65737152 C499.23100875 245.48430695 499.2294369 247.3112424 499.2278862 249.13817787 C499.22672913 250.48656004 499.22672913 250.48656004 499.22554869 251.86218226 C499.22122891 258.20132028 499.22852422 264.54038432 499.24028397 270.87951088 C499.25429726 278.60330726 499.25053381 286.32684953 499.22388025 294.05061674 C499.21072611 297.99258188 499.20561643 301.93412314 499.22212601 305.87608528 C499.23700626 309.48353573 499.22887064 313.09016872 499.20223825 316.69754481 C499.19399154 318.62325541 499.21034855 320.54902257 499.2275244 322.47467422 C499.21448566 323.61713293 499.20144693 324.75959164 499.18801308 325.9366703 C499.18679543 327.41522279 499.18679543 327.41522279 499.18555319 328.92364502 C498.27752801 332.8434434 496.79067949 334.26764623 493.55880737 336.6292057 C490.55364084 337.12045175 488.11823893 337.30282724 485.11761475 337.25841141 C483.8398625 337.26931221 483.8398625 337.26931221 482.53629708 337.28043324 C479.66819286 337.29875052 476.80141462 337.28129672 473.93331909 337.26412392 C471.86191052 337.26988244 469.79050704 337.27782174 467.7191143 337.28776014 C462.0163358 337.3086935 456.31397395 337.29828867 450.61119366 337.28282905 C444.46522338 337.27154604 438.31932625 337.28896308 432.17337036 337.30272865 C420.82580505 337.32371023 409.47841018 337.32184528 398.13084906 337.30817131 C387.64846719 337.29560166 377.1661342 337.29230622 366.68374634 337.29828453 C365.6414312 337.29885742 365.6414312 337.29885742 364.57805918 337.29944188 C361.75744438 337.30099853 358.93682961 337.30259053 356.11621486 337.3042407 C329.64778516 337.31954137 303.17944038 337.30565944 276.71102378 337.27875621 C253.18693218 337.25502753 229.66297591 337.25715064 206.1388855 337.28106117 C179.71938309 337.30782481 153.29995575 337.31845633 126.88044167 337.30299985 C124.06491726 337.30139623 121.24939284 337.29983203 118.43386841 337.29828453 C117.39396052 337.29769145 117.39396052 337.29769145 116.33304439 337.29708639 C105.85633724 337.29139508 95.37968428 337.29805773 84.90298462 337.3106823 C72.99243875 337.32496297 61.08205273 337.32095553 49.17151308 337.29427858 C43.0909165 337.28110968 37.01059504 337.2760405 30.93000031 337.29252434 C25.36860728 337.30737301 19.80774557 337.29931953 14.24640107 337.27263658 C12.22965658 337.26703002 10.21286763 337.26994037 8.19615149 337.28201552 C5.4634546 337.29712831 2.73259924 337.28172386 0 337.25841141 C-0.79081711 337.27011724 -1.58163421 337.28182307 -2.39641547 337.29388362 C-6.28792525 337.22711148 -8.25737985 336.76351943 -11.42944181 334.44566381 C-13.70543638 331.25926354 -14.06721162 329.80620935 -14.07039833 325.9366703 C-14.08343707 324.7942116 -14.0964758 323.65175289 -14.10990965 322.47467422 C-14.09875605 321.22419989 -14.08760244 319.97372555 -14.07611084 318.68535805 C-14.08187262 317.33991058 -14.08981413 315.99447099 -14.09974706 314.64904785 C-14.12063668 310.95287053 -14.11029617 307.25733795 -14.09481597 303.56115818 C-14.08351482 299.57470181 -14.10095899 295.58835723 -14.11471558 291.60192299 C-14.13696582 283.79292669 -14.1321389 275.98417047 -14.11765237 268.1751647 C-14.10636713 261.82948236 -14.10482613 255.48386737 -14.11027145 249.13817787 C-14.11103762 248.23553117 -14.11180378 247.33288447 -14.11259317 246.40288484 C-14.11419177 244.56925915 -14.11581284 242.73563347 -14.11745612 240.90200782 C-14.13171886 223.70215947 -14.11531269 206.5024443 -14.08845429 189.30261779 C-14.06611503 174.53966893 -14.06999501 159.77691664 -14.0930481 145.01397133 C-14.11979686 127.87629458 -14.13034551 110.73873459 -14.11498678 93.60103989 C-14.11339401 91.77410445 -14.11182215 89.947169 -14.11027145 88.12023354 C-14.10950008 87.22131209 -14.1087287 86.32239064 -14.10793395 85.39622915 C-14.10361417 79.05709113 -14.11090947 72.71802709 -14.12266922 66.37890053 C-14.13668251 58.65510415 -14.13291907 50.93156188 -14.1062655 43.20779467 C-14.09311137 39.26582952 -14.08800168 35.32428827 -14.10451126 31.38232613 C-14.11939151 27.77487568 -14.11125589 24.16824269 -14.0846235 20.56086659 C-14.07637679 18.635156 -14.0927338 16.70938883 -14.10990965 14.78373718 C-14.09687092 13.64127848 -14.08383218 12.49881977 -14.07039833 11.3217411 C-14.06958657 10.33603945 -14.06877481 9.35033779 -14.06793845 8.33476639 C-12.326103 0.81554354 -6.79442971 -0.10057249 0 0 Z " fill="#41479B" transform="translate(13.441192626953125,87.37079429626465)"/>
<path d="M0 0 C0.98432469 -0.00427212 1.96864938 -0.00854425 2.98280209 -0.01294583 C6.28442159 -0.02118826 9.5847736 0.00633107 12.88627625 0.03364563 C15.2515154 0.03505582 17.61675675 0.03426469 19.98199463 0.03143311 C26.4073046 0.02999644 32.83214944 0.05942748 39.25735116 0.09430289 C45.29048807 0.12474601 51.32367629 0.12741713 57.3568758 0.13256226 C69.30589138 0.1435022 81.25473619 0.17676812 93.20365906 0.22407532 C104.81009568 0.26997876 116.41648591 0.30536678 128.022995 0.32661438 C128.73856032 0.327928 129.45412564 0.32924161 130.19137476 0.33059504 C133.78119839 0.33712028 137.37102236 0.34343881 140.96084654 0.34965456 C170.73648155 0.40147819 200.51192471 0.48990718 230.28739929 0.60127258 C226.64738366 3.54240522 222.93904059 6.27067229 219.03739929 8.85127258 C218.40100525 9.27400452 217.76461121 9.69673645 217.1089325 10.13227844 C209.87840183 14.91029923 202.5628915 19.55617746 195.25639343 24.2167511 C184.23948294 31.25180376 173.30717578 38.41389889 162.37480164 45.57929993 C157.51711857 48.76064827 152.65370155 51.9331279 147.78739929 55.10127258 C146.9503949 55.64743225 146.1133905 56.19359192 145.25102234 56.75630188 C144.48958923 57.25170471 143.72815613 57.74710754 142.94364929 58.25752258 C141.9507489 58.90430969 141.9507489 58.90430969 140.93778992 59.56416321 C139.28739929 60.60127258 139.28739929 60.60127258 137.28739929 61.60127258 C145.0927731 63.4288723 150.99817274 62.62331045 157.93583679 58.63642883 C163.37501455 55.23283344 168.6569511 51.59854633 173.91874695 47.92842102 C179.45266738 44.08127186 185.13355505 40.45597451 190.78739929 36.78877258 C192.96521034 35.36280003 195.14231461 33.93574737 197.31864929 32.50752258 C202.9514531 28.81632918 208.60150471 25.15270079 214.27030945 21.51704407 C217.95846354 19.14254825 221.60110678 16.71345066 225.21708679 14.23017883 C226.04208679 13.66726135 226.86708679 13.10434387 227.71708679 12.52436829 C229.31434143 11.43151824 230.90579691 10.33013027 232.49052429 9.2191925 C233.20466492 8.73168518 233.91880554 8.24417786 234.65458679 7.74189758 C235.59987244 7.08495911 235.59987244 7.08495911 236.56425476 6.41474915 C238.28739929 5.60127258 238.28739929 5.60127258 241.28739929 6.60127258 C242.00350934 10.13118877 242.12666417 13.08144655 241.28739929 16.60127258 C238.75889013 19.54825296 235.62915777 21.38856934 232.31669617 23.37568665 C229.98407316 24.78446522 227.69094817 26.24790342 225.39677429 27.71846008 C221.65273416 30.1164011 217.89897711 32.49800007 214.13896179 34.87080383 C207.64376487 38.9888926 201.24662577 43.24738736 194.8679657 47.54316711 C187.73643649 52.33777816 180.52285652 56.94990722 173.28739929 61.60127258 C206.94739929 62.09627258 206.94739929 62.09627258 241.28739929 62.60127258 C241.28739929 77.12127258 241.28739929 91.64127258 241.28739929 106.60127258 C218.84739929 106.93127258 196.40739929 107.26127258 173.28739929 107.60127258 C184.74386444 115.25104547 184.74386444 115.25104547 196.26371765 122.79829407 C199.08297399 124.6274972 201.89181384 126.47219251 204.70146179 128.31611633 C208.88612543 131.05593564 213.09634825 133.74718692 217.33312988 136.40559387 C220.12276464 138.16290405 222.89718949 139.94336913 225.66969299 141.72755432 C227.03331593 142.59754353 228.40338757 143.4575114 229.77986145 144.30702209 C231.7153575 145.50336935 233.62527237 146.73311957 235.53349304 147.97236633 C236.64393982 148.67289124 237.7543866 149.37341614 238.89848328 150.09516907 C241.52193583 152.84731423 241.63404844 153.30321808 241.64701843 156.89057922 C241.52834412 158.11510803 241.4096698 159.33963684 241.28739929 160.60127258 C240.67896179 160.21197571 240.07052429 159.82267883 239.44364929 159.42158508 C235.24225664 156.74010801 231.03985361 154.06235516 226.80302429 151.43721008 C215.76367545 144.59372022 204.89350486 137.50205658 194.02616882 130.38935852 C191.54330572 128.76834859 189.05597548 127.15469352 186.56474304 125.54658508 C185.845849 125.08220032 185.12695496 124.61781555 184.38627625 124.13935852 C183.00077074 123.24781305 181.61262783 122.36035132 180.22172546 121.47724915 C176.86028887 119.33080432 173.60794749 117.12191288 170.43583679 114.70283508 C161.51649663 108.03195251 155.51527237 106.16792708 144.28739929 107.60127258 C145.03908386 108.08986755 145.03908386 108.08986755 145.80595398 108.58833313 C147.33101908 109.57962545 148.85608419 110.57091777 150.38114929 111.56221008 C151.25771179 112.13197571 152.13427429 112.70174133 153.03739929 113.28877258 C157.25126648 116.02778625 157.25126648 116.02778625 161.46513367 118.76679993 C162.39648132 119.3721759 163.32782898 119.97755188 164.28739929 120.60127258 C165.56840515 121.43392639 165.56840515 121.43392639 166.87528992 122.28340149 C167.69706726 122.81755676 168.5188446 123.35171204 169.36552429 123.90205383 C170.58610535 124.69543152 170.58610535 124.69543152 171.8313446 125.50483704 C172.64184265 126.03166077 173.4523407 126.5584845 174.28739929 127.10127258 C189.28739929 136.85127258 189.28739929 136.85127258 191.78959656 138.47773743 C193.44889434 139.55625666 195.10823648 140.63470767 196.7676239 141.71308899 C201.04740882 144.49450763 205.32631345 147.27726641 209.60380554 150.06221008 C210.47682312 150.63028381 211.3498407 151.19835754 212.24931335 151.78364563 C213.95881368 152.89629732 215.66781327 154.0097188 217.37626648 155.12397766 C220.89428625 157.41478945 224.41492445 159.69562897 227.98661804 161.90205383 C228.99337585 162.52467102 230.00013367 163.14728821 231.03739929 163.78877258 C231.87786804 164.29795227 232.71833679 164.80713196 233.58427429 165.33174133 C234.14630554 165.75068665 234.70833679 166.16963196 235.28739929 166.60127258 C235.28739929 167.26127258 235.28739929 167.92127258 235.28739929 168.60127258 C220.77779074 169.91507306 212.53794748 167.8941133 200.91239929 159.28877258 C199.5448724 158.3277633 198.17402432 157.37146481 196.8000946 156.41963196 C193.9890179 154.46651469 191.19344095 152.49389227 188.40751648 150.50508118 C182.65833419 146.42334106 176.74712742 142.59495177 170.82957458 138.76353455 C168.03235224 136.94947922 165.24661998 135.11795519 162.45927429 133.28877258 C153.41294213 127.37613718 144.34861982 121.49106592 135.28739929 115.60127258 C135.28739929 133.09127258 135.28739929 150.58127258 135.28739929 168.60127258 C120.76739929 168.60127258 106.24739929 168.60127258 91.28739929 168.60127258 C91.28739929 151.11127258 91.28739929 133.62127258 91.28739929 115.60127258 C74.30311804 126.64020698 74.30311804 126.64020698 57.34989929 137.72627258 C56.1384994 138.52050152 54.92707287 139.31468984 53.71562195 140.10884094 C51.83412131 141.34225788 49.95264616 142.57571357 48.0712738 143.80932617 C43.41110213 146.8649856 38.749876 149.91903217 34.08818054 152.97236633 C33.42022964 153.4098822 32.75227875 153.84739807 32.06408691 154.298172 C29.45928925 156.00434163 26.85448851 157.71050654 24.24958801 159.41651917 C22.46784654 160.58345885 20.68620543 161.75055162 18.90458679 162.91767883 C17.88993347 163.58227112 16.87528015 164.2468634 15.82987976 164.93159485 C13.97780575 166.14787429 12.1310083 167.37219991 10.28739929 168.60127258 C6.93193054 168.79658508 6.93193054 168.79658508 3.09989929 168.72627258 C1.8275946 168.70822571 0.55528992 168.69017883 -0.75556946 168.67158508 C-1.73138977 168.64838196 -2.70721008 168.62517883 -3.71260071 168.60127258 C1.14614019 164.46463755 6.50096455 161.11919325 11.84989929 157.66377258 C12.8684198 157.00280579 13.88694031 156.34183899 14.93632507 155.6608429 C17.03622991 154.29830175 19.13681888 152.9368144 21.23808289 151.57637024 C24.89003111 149.210937 28.53698251 146.83788799 32.18363953 144.46430969 C39.72609837 139.5561027 47.27780084 134.66225039 54.835495 129.77754211 C58.7310494 127.25880537 62.62249985 124.73390315 66.51005554 122.20283508 C67.3982196 121.62469055 68.28638367 121.04654602 69.20146179 120.45088196 C70.91411732 119.33563503 72.62638371 118.2197902 74.33818054 117.10322571 C79.28760463 113.88043894 84.26629873 110.7112605 89.28739929 107.60127258 C77.87097623 105.57745213 71.3502997 108.59849629 62.05278015 115.05854797 C60.32378468 116.28451531 58.59993973 117.51777673 56.88114929 118.75801086 C52.71143661 121.72123853 48.40417581 124.46402529 44.09989929 127.22627258 C42.42869445 128.31123733 40.75811314 129.39716318 39.08818054 130.48408508 C34.65809394 133.36191468 30.22360088 136.23288101 25.78739929 139.10127258 C19.45020642 143.19950011 13.11685969 147.30361149 6.78739929 151.41377258 C5.97464539 151.94099915 5.16189148 152.46822571 4.32450867 153.01142883 C3.53882507 153.52189758 2.75314148 154.03236633 1.94364929 154.55830383 C1.1766571 155.0541095 0.40966492 155.54991516 -0.38056946 156.06074524 C-2.00465916 157.13361019 -3.61036671 158.23460633 -5.20088196 159.35664368 C-5.99881165 159.9156134 -6.79674133 160.47458313 -7.61885071 161.05049133 C-8.33363586 161.56313538 -9.04842102 162.07577942 -9.78486633 162.60395813 C-10.42101868 162.9330719 -11.05717102 163.26218567 -11.71260071 163.60127258 C-12.70260071 163.27127258 -13.69260071 162.94127258 -14.71260071 162.60127258 C-14.82937541 142.21743387 -14.91756013 121.83366299 -14.97166157 101.44955921 C-14.99744894 91.98496129 -15.03260961 82.52057114 -15.08979797 73.05610657 C-15.13961667 64.80736599 -15.17188785 56.55877586 -15.18304318 48.30988902 C-15.18956458 43.94163081 -15.20490246 39.57380306 -15.24125099 35.20568275 C-15.27518646 31.09424069 -15.28565878 26.98340643 -15.27813911 22.87183762 C-15.27951478 21.36293802 -15.28946244 19.85401813 -15.30862808 18.34523964 C-15.33353093 16.28370494 -15.32751987 14.22446067 -15.31387329 12.16287231 C-15.31848226 11.00970929 -15.32309122 9.85654627 -15.32783985 8.66843891 C-13.60269945 0.06805547 -7.36754981 -0.11672664 0 0 Z " fill="#FE4B55" transform="translate(14.712600708007813,87.39872741699219)"/>
<path d="M0 0 C1.07362289 -0.00073013 2.14724579 -0.00146027 3.25340271 -0.00221252 C6.79795048 0.00126764 10.34118016 0.04015174 13.88549805 0.0793457 C16.34457176 0.08867223 18.80365476 0.0957891 21.26274109 0.1007843 C27.73204236 0.11986634 34.20078152 0.16897884 40.66986084 0.2243042 C48.43327467 0.28446723 56.19687656 0.30740704 63.96045685 0.33657074 C75.75226767 0.38504168 87.54284534 0.48085112 99.3347168 0.56762695 C99.3347168 23.99762695 99.3347168 47.42762695 99.3347168 71.56762695 C61.3847168 71.56762695 23.4347168 71.56762695 -15.6652832 71.56762695 C-15.7684082 60.78075195 -15.8715332 49.99387695 -15.9777832 38.88012695 C-16.02330322 35.47998291 -16.06882324 32.07983887 -16.11572266 28.57666016 C-16.13032542 25.88225288 -16.14306658 23.1878346 -16.15356445 20.4934082 C-16.16663132 19.79660446 -16.17969818 19.09980072 -16.19316101 18.38188171 C-16.22990301 16.31860789 -16.23480942 14.25740083 -16.23291016 12.19384766 C-16.24401321 11.0324678 -16.25511627 9.87108795 -16.26655579 8.67451477 C-14.51234254 -0.38983295 -7.65122968 -0.13609811 0 0 Z " fill="#F3F0F1" transform="translate(15.665283203125,87.432373046875)"/>
<path d="M0 0 C34.32 0 68.64 0 104 0 C100.32017931 2.94385655 96.66589338 5.65997318 92.75 8.25 C92.11360596 8.67273193 91.47721191 9.09546387 90.8215332 9.53100586 C83.59100254 14.30902665 76.27549221 18.95490488 68.96899414 23.61547852 C57.95208365 30.65053117 47.01977648 37.8126263 36.08740234 44.97802734 C31.22971928 48.15937569 26.36630226 51.33185532 21.5 54.5 C20.66299561 55.04615967 19.82599121 55.59231934 18.96362305 56.1550293 C18.20218994 56.65043213 17.44075684 57.14583496 16.65625 57.65625 C15.99431641 58.08744141 15.33238281 58.51863281 14.65039062 58.96289062 C13 60 13 60 11 61 C18.80537381 62.82759972 24.71077345 62.02203786 31.6484375 58.03515625 C37.08761526 54.63156085 42.36955181 50.99727374 47.63134766 47.32714844 C53.16526809 43.47999928 58.84615575 39.85470192 64.5 36.1875 C66.67781105 34.76152744 68.85491532 33.33447479 71.03125 31.90625 C76.66405381 28.21505659 82.31410542 24.5514282 87.98291016 20.91577148 C91.67106424 18.54127566 95.31370748 16.11217807 98.9296875 13.62890625 C100.1671875 12.78453003 100.1671875 12.78453003 101.4296875 11.9230957 C103.02694214 10.83024566 104.61839761 9.72885769 106.203125 8.61791992 C106.91726562 8.1304126 107.63140625 7.64290527 108.3671875 7.140625 C109.31247314 6.48368652 109.31247314 6.48368652 110.27685547 5.81347656 C112 5 112 5 115 6 C115.71611005 9.52991619 115.83926488 12.48017396 115 16 C112.47149084 18.94698038 109.34175848 20.78729676 106.02929688 22.77441406 C103.69667387 24.18319263 101.40354888 25.64663083 99.109375 27.1171875 C95.36533487 29.51512852 91.61157782 31.89672749 87.8515625 34.26953125 C81.35636558 38.38762002 74.95922648 42.64611478 68.58056641 46.94189453 C61.4490372 51.73650558 54.23545723 56.34863464 47 61 C80.66 61.495 80.66 61.495 115 62 C115 64.97 115 67.94 115 71 C77.05 71 39.1 71 0 71 C0 47.57 0 24.14 0 0 Z " fill="#F3F0F1" transform="translate(141,88)"/>
<path d="M0 0 C37.95 0 75.9 0 115 0 C115 23.43 115 46.86 115 71 C112.03 71 109.06 71 106 71 C106 53.51 106 36.02 106 18 C89.01571874 29.0389344 89.01571874 29.0389344 72.0625 40.125 C70.8511001 40.91922893 69.63967358 41.71341726 68.42822266 42.50756836 C66.54672202 43.7409853 64.66524687 44.97444098 62.78387451 46.20805359 C58.12370284 49.26371302 53.46247671 52.31775959 48.80078125 55.37109375 C48.13283035 55.80860962 47.46487946 56.24612549 46.77668762 56.69689941 C44.17188996 58.40306904 41.56708922 60.10923396 38.96218872 61.81524658 C37.18044725 62.98218627 35.39880614 64.14927904 33.6171875 65.31640625 C32.60253418 65.98099854 31.58788086 66.64559082 30.54248047 67.33032227 C28.69040646 68.54660171 26.84360901 69.77092733 25 71 C21.64453125 71.1953125 21.64453125 71.1953125 17.8125 71.125 C16.54019531 71.10695313 15.26789062 71.08890625 13.95703125 71.0703125 C12.98121094 71.04710937 12.00539063 71.02390625 11 71 C15.8587409 66.86336497 21.21356525 63.51792067 26.5625 60.0625 C27.58102051 59.4015332 28.59954102 58.74056641 29.64892578 58.05957031 C31.74883062 56.69702917 33.84941959 55.33554181 35.95068359 53.97509766 C39.60263182 51.60966442 43.24958322 49.23661541 46.89624023 46.86303711 C54.43869908 41.95483012 61.99040155 37.0609778 69.5480957 32.17626953 C73.44365011 29.65753279 77.33510056 27.13263056 81.22265625 24.6015625 C82.11082031 24.02341797 82.99898438 23.44527344 83.9140625 22.84960938 C85.62671803 21.73436245 87.33898442 20.61851762 89.05078125 19.50195312 C94.00020534 16.27916636 98.97889944 13.10998792 104 10 C92.58357694 7.97617955 86.06290041 10.99722371 76.76538086 17.45727539 C75.03638538 18.68324273 73.31254043 19.91650414 71.59375 21.15673828 C67.42403732 24.11996595 63.11677652 26.86275271 58.8125 29.625 C57.14129516 30.70996475 55.47071385 31.79589059 53.80078125 32.8828125 C49.37069465 35.76064209 44.93620159 38.63160842 40.5 41.5 C34.16280712 45.59822753 27.8294604 49.70233891 21.5 53.8125 C20.68724609 54.33972656 19.87449219 54.86695313 19.03710938 55.41015625 C18.25142578 55.920625 17.46574219 56.43109375 16.65625 56.95703125 C15.88925781 57.45283691 15.12226563 57.94864258 14.33203125 58.45947266 C12.70794155 59.53233761 11.102234 60.63333375 9.51171875 61.75537109 C8.71378906 62.31434082 7.91585938 62.87331055 7.09375 63.44921875 C6.37896484 63.96186279 5.66417969 64.47450684 4.92773438 65.00268555 C3.97350586 65.4963562 3.97350586 65.4963562 3 66 C2.01 65.67 1.02 65.34 0 65 C0 43.55 0 22.1 0 0 Z " fill="#F4EFF0" transform="translate(0,185)"/>
<path d="M0 0 C37.95 0 75.9 0 115 0 C115 2.97 115 5.94 115 9 C92.56 9.33 70.12 9.66 47 10 C58.45646515 17.64977289 58.45646515 17.64977289 69.97631836 25.19702148 C72.7955747 27.02622462 75.60441454 28.87091992 78.4140625 30.71484375 C82.59872613 33.45466306 86.80894896 36.14591434 91.04573059 38.80432129 C93.83536535 40.56163146 96.6097902 42.34209655 99.3822937 44.12628174 C100.74591664 44.99627095 102.11598828 45.85623882 103.49246216 46.70574951 C105.42795821 47.90209677 107.33787307 49.13184699 109.24609375 50.37109375 C110.35654053 51.07161865 111.4669873 51.77214355 112.61108398 52.49389648 C115.23453654 55.24604165 115.34664915 55.7019455 115.35961914 59.28930664 C115.24094482 60.51383545 115.12227051 61.73836426 115 63 C114.3915625 62.61070312 113.783125 62.22140625 113.15625 61.8203125 C108.95485735 59.13883543 104.75245432 56.46108258 100.515625 53.8359375 C89.47627616 46.99244764 78.60610557 39.900784 67.73876953 32.78808594 C65.25590643 31.16707601 62.76857619 29.55342093 60.27734375 27.9453125 C59.55844971 27.48092773 58.83955566 27.01654297 58.09887695 26.53808594 C56.71337145 25.64654046 55.32522854 24.75907874 53.93432617 23.87597656 C50.57288958 21.72953173 47.32054819 19.52064029 44.1484375 17.1015625 C35.22909734 10.43067993 29.22787307 8.5666545 18 10 C18.50112305 10.32572998 19.00224609 10.65145996 19.51855469 10.98706055 C21.04361979 11.97835286 22.5686849 12.96964518 24.09375 13.9609375 C24.9703125 14.53070313 25.846875 15.10046875 26.75 15.6875 C29.55924479 17.51350911 32.36848958 19.33951823 35.17773438 21.16552734 C36.10908203 21.77090332 37.04042969 22.3762793 38 23 C38.85400391 23.55510254 39.70800781 24.11020508 40.58789062 24.68212891 C41.40966797 25.21628418 42.23144531 25.75043945 43.078125 26.30078125 C43.8918457 26.82969971 44.70556641 27.35861816 45.54394531 27.90356445 C46.35444336 28.43038818 47.16494141 28.95721191 48 29.5 C63 39.25 63 39.25 65.50219727 40.87646484 C67.16149505 41.95498408 68.82083718 43.03343509 70.48022461 44.11181641 C74.76000953 46.89323504 79.03891416 49.67599383 83.31640625 52.4609375 C84.18942383 53.02901123 85.06244141 53.59708496 85.96191406 54.18237305 C87.67141439 55.29502474 89.38041398 56.40844622 91.08886719 57.52270508 C94.60688695 59.81351686 98.12752516 62.09435639 101.69921875 64.30078125 C102.70597656 64.92339844 103.71273437 65.54601562 104.75 66.1875 C105.59046875 66.69667969 106.4309375 67.20585937 107.296875 67.73046875 C107.85890625 68.14941406 108.4209375 68.56835938 109 69 C109 69.66 109 70.32 109 71 C94.49039145 72.31380048 86.25054819 70.29284072 74.625 61.6875 C73.25747311 60.72649072 71.88662503 59.77019223 70.51269531 58.81835938 C67.7016186 56.86524211 64.90604165 54.89261969 62.12011719 52.90380859 C56.37093489 48.82206848 50.45972813 44.99367919 44.54217529 41.16226196 C41.74495295 39.34820664 38.95922069 37.51668261 36.171875 35.6875 C27.12554284 29.7748646 18.06122053 23.88979334 9 18 C9 35.49 9 52.98 9 71 C6.03 71 3.06 71 0 71 C0 47.57 0 24.14 0 0 Z " fill="#F4EFF0" transform="translate(141,185)"/>
<path d="M0 0 C1.89355469 0.24072266 1.89355469 0.24072266 4 1 C5.00488281 2.81005859 5.00488281 2.81005859 5.703125 5.1484375 C5.9609375 5.98890625 6.21875 6.829375 6.484375 7.6953125 C6.73703125 8.57960938 6.9896875 9.46390625 7.25 10.375 C7.518125 11.2515625 7.78625 12.128125 8.0625 13.03125 C10 19.49617347 10 19.49617347 10 23 C10.54938232 22.75765625 11.09876465 22.5153125 11.66479492 22.265625 C14.16832926 21.16760678 16.6777438 20.08371676 19.1875 19 C20.05181641 18.6184375 20.91613281 18.236875 21.80664062 17.84375 C22.64775391 17.4828125 23.48886719 17.121875 24.35546875 16.75 C25.12528076 16.41484375 25.89509277 16.0796875 26.68823242 15.734375 C29.24049266 14.92360313 31.33826057 14.8682511 34 15 C33.5853677 20.3902199 30.48058685 24.06129627 27.4375 28.3125 C26.91736328 29.05306641 26.39722656 29.79363281 25.86132812 30.55664062 C24.58156882 32.37648184 23.29437782 34.19054184 22 36 C28.4506869 40.45259112 35.065624 44.34487097 42 48 C41.67 49.32 41.34 50.64 41 52 C32.9874678 53.03387512 25.07094823 53.10466648 17 53 C17.20496094 53.81082031 17.40992188 54.62164062 17.62109375 55.45703125 C19.37086247 62.6486644 20.57053115 69.61017396 21 77 C19.02 77.495 19.02 77.495 17 78 C16.24074219 77.16855469 15.48148438 76.33710938 14.69921875 75.48046875 C13.69534886 74.38277925 12.6914406 73.28512484 11.6875 72.1875 C11.18798828 71.64029297 10.68847656 71.09308594 10.17382812 70.52929688 C7.23247907 67.31255724 7.23247907 67.31255724 4.14453125 64.23828125 C3 63 3 63 3 61 C-1.95056056 65.11475164 -6.39828455 69.38076008 -10.5546875 74.30078125 C-12 76 -12 76 -14 78 C-14.99 78 -15.98 78 -17 78 C-17.18206546 72.34838466 -16.49331341 67.11820816 -15.5 61.5625 C-14.7575 57.3240625 -14.7575 57.3240625 -14 53 C-25.385 52.505 -25.385 52.505 -37 52 C-37.33 50.68 -37.66 49.36 -38 48 C-35.2089613 46.35309997 -32.41706312 44.70766259 -29.625 43.0625 C-28.8309375 42.59392578 -28.036875 42.12535156 -27.21875 41.64257812 C-26.45820312 41.19462891 -25.69765625 40.74667969 -24.9140625 40.28515625 C-24.2123291 39.87144775 -23.5105957 39.45773926 -22.78759766 39.03149414 C-21.54669684 38.31545946 -20.28141812 37.64070906 -19 37 C-20.79223239 31.58210208 -24.14911202 27.49318765 -27.54296875 22.99609375 C-31 18.30944789 -31 18.30944789 -31 15 C-25.05837993 15.56624836 -20.07178852 17.3206058 -14.5625 19.5625 C-13.73556641 19.89185547 -12.90863281 20.22121094 -12.05664062 20.56054688 C-10.03501907 21.36685836 -8.01711551 22.18248123 -6 23 C-5.88785156 21.845 -5.77570313 20.69 -5.66015625 19.5 C-5.1116533 15.11197641 -3.91199811 11.15502828 -2.4375 7 C-2.08655273 5.98099609 -2.08655273 5.98099609 -1.72851562 4.94140625 C-1.15930351 3.29185277 -0.58065942 1.6455588 0 0 Z " fill="#F1F1F3" transform="translate(127,303)"/>
<path d="M0 0 C26.73 0 53.46 0 81 0 C78.07554673 2.92445327 75.95630777 4.84821526 72.59765625 7.00390625 C71.72246338 7.56972412 70.84727051 8.13554199 69.94555664 8.71850586 C68.99414795 9.32702393 68.04273926 9.93554199 67.0625 10.5625 C64.97888676 11.90842094 62.89556736 13.25479685 60.8125 14.6015625 C59.70648438 15.31473633 58.60046875 16.02791016 57.4609375 16.76269531 C52.09118985 20.22954531 46.74448478 23.73166908 41.39828491 27.23468018 C40.17519988 28.03605451 38.95191311 28.83712104 37.72842407 29.63787842 C31.08535343 33.98591323 24.45500563 38.35173526 17.85546875 42.765625 C17.29158951 43.14264053 16.72771027 43.51965607 16.14674377 43.90809631 C13.47744721 45.69389382 10.81067139 47.48332358 8.14672852 49.27709961 C7.21658936 49.90108643 6.2864502 50.52507324 5.328125 51.16796875 C4.5124707 51.71735107 3.69681641 52.2667334 2.85644531 52.83276367 C1 54 1 54 0 54 C0 36.18 0 18.36 0 0 Z " fill="#42489B" transform="translate(150,88)"/>
<path d="M0 0 C26.73 0 53.46 0 81 0 C81 17.82 81 35.64 81 54 C77.37 51.69 73.74 49.38 70 47 C68.92484131 46.31591064 67.84968262 45.63182129 66.74194336 44.92700195 C54.2899023 36.99818229 41.89256602 29.00557969 29.64257812 20.76806641 C27.02435406 19.01629454 24.3993166 17.27526054 21.7718811 15.53735352 C19.26323084 13.87796957 16.75632428 12.21596042 14.24945068 10.55389404 C13.003012 9.72841404 11.75582244 8.90406667 10.50787354 8.08087158 C8.76094835 6.9281617 7.01690826 5.77120689 5.2734375 4.61328125 C4.25685059 3.94079346 3.24026367 3.26830566 2.19287109 2.57543945 C1.46922363 2.05554443 0.74557617 1.53564941 0 1 C0 0.67 0 0.34 0 0 Z " fill="#42489B" transform="translate(25,88)"/>
<path d="M0 0 C23.1 0 46.2 0 70 0 C66.45642899 2.83485681 63.02908491 5.39961518 59.2734375 7.90625 C58.73276138 8.26758026 58.19208527 8.62891052 57.63502502 9.00119019 C55.88346891 10.17016585 54.12941542 11.33532084 52.375 12.5 C51.77285675 12.90083801 51.1707135 13.30167603 50.55032349 13.71466064 C42.33405917 19.18272762 34.06526719 24.55180612 25.69140625 29.77636719 C19.20901905 33.83071235 12.84993346 38.0582998 6.51928711 42.34521484 C5.4539978 43.06378662 5.4539978 43.06378662 4.3671875 43.796875 C3.73925293 44.22323242 3.11131836 44.64958984 2.46435547 45.08886719 C1 46 1 46 0 46 C0 30.82 0 15.64 0 0 Z " fill="#43499C" transform="translate(0,194)"/>
<path d="M0 0 C3.63 2.31 7.26 4.62 11 7 C12.69898438 8.07378906 14.39796875 9.14757812 16.1484375 10.25390625 C28.07479716 17.79682252 39.87056025 25.51179915 51.58300781 33.38232422 C53.93143641 34.95411087 56.28794395 36.51281094 58.6484375 38.06640625 C59.71010132 38.76685059 59.71010132 38.76685059 60.79321289 39.48144531 C62.1058004 40.3466644 63.4200068 41.20943426 64.73608398 42.06933594 C66.17477428 43.02043493 67.5904762 44.00618829 69 45 C69 45.33 69 45.66 69 46 C46.23 46 23.46 46 0 46 C0 30.82 0 15.64 0 0 Z " fill="#42489B" transform="translate(0,104)"/>
<path d="M0 0 C0.74958984 0.00902344 1.49917969 0.01804688 2.27148438 0.02734375 C4.11862654 0.05087422 5.96560412 0.08674439 7.8125 0.125 C4.66307624 3.57695461 1.15975489 5.92721484 -2.8125 8.3125 C-10.27685364 12.88631537 -17.61883608 17.6346434 -24.9375 22.4375 C-26.06931408 23.17963945 -27.20115007 23.9217455 -28.33300781 24.66381836 C-30.56692426 26.1286133 -32.8006029 27.59376902 -35.03417969 29.05908203 C-41.91961702 33.57012033 -48.82710016 38.04728045 -55.73144531 42.52929688 C-58.35087034 44.231142 -60.96855972 45.93563311 -63.5859375 47.640625 C-64.48135254 48.22360352 -65.37676758 48.80658203 -66.29931641 49.40722656 C-67.99726644 50.51279536 -69.69488446 51.61887433 -71.39208984 52.72558594 C-73.65374262 54.19752256 -75.91997556 55.66212971 -78.1875 57.125 C-78.92645508 57.60759277 -79.66541016 58.09018555 -80.42675781 58.58740234 C-81.13155273 59.04066895 -81.83634766 59.49393555 -82.5625 59.9609375 C-83.49449219 60.56494385 -83.49449219 60.56494385 -84.4453125 61.18115234 C-87.2320722 62.69090753 -89.12374191 62.82130866 -92.1875 62.125 C-93.57488799 60.5030536 -94.91472111 58.8383562 -96.1875 57.125 C-95.65721191 56.78992432 -95.12692383 56.45484863 -94.58056641 56.10961914 C-80.05051414 46.91881152 -65.63509099 37.56211362 -51.25732422 28.13525391 C-46.71955973 25.16372911 -42.17353323 22.20500707 -37.625 19.25 C-36.82763428 18.73195801 -36.03026855 18.21391602 -35.20874023 17.68017578 C-28.96954511 13.62891767 -22.72480328 9.58623099 -16.47631836 5.54931641 C-10.45754877 1.65948899 -7.18878669 -0.16323882 0 0 Z " fill="#FE505A" transform="translate(97.1875,193.875)"/>
<path d="M0 0 C1.69970703 2.06542969 1.69970703 2.06542969 3 4 C-6.49401377 10.17591885 -15.98856762 16.35092935 -25.5 22.5 C-31.67274129 26.49068784 -37.8381562 30.49250716 -44 34.5 C-48.8497777 37.6537975 -53.69994934 40.80696674 -58.5546875 43.953125 C-59.275354 44.42065186 -59.99602051 44.88817871 -60.73852539 45.36987305 C-62.15124059 46.2824635 -63.56705878 47.19027008 -64.98608398 48.09301758 C-68.27785268 50.1929457 -71.48743603 52.33196642 -74.60546875 54.68359375 C-83.37048243 61.12852892 -90.3340997 62.1219973 -101 61 C-98.828665 58.68481725 -96.59696067 56.96437463 -93.9296875 55.25 C-93.12466797 54.72986328 -92.31964844 54.20972656 -91.49023438 53.67382812 C-90.62720703 53.12146484 -89.76417969 52.56910156 -88.875 52 C-87.97845703 51.42185547 -87.08191406 50.84371094 -86.15820312 50.24804688 C-84.31704568 49.06100198 -82.47492069 47.87545646 -80.63183594 46.69140625 C-76.91553275 44.30304368 -73.20790126 41.90137524 -69.5 39.5 C-68.11459008 38.60415624 -66.72917331 37.70832305 -65.34375 36.8125 C-60.55773165 33.7156646 -55.77877101 30.60800283 -51 27.5 C-46.18573193 24.36909075 -41.37113849 21.23871667 -36.55078125 18.1171875 C-35.8448584 17.65989258 -35.13893555 17.20259766 -34.41162109 16.73144531 C-33.02430127 15.83496369 -31.63532836 14.94103452 -30.24462891 14.04980469 C-26.58989056 11.7033605 -22.98087038 9.30872288 -19.41015625 6.8359375 C-18.65114014 6.3198291 -17.89212402 5.8037207 -17.11010742 5.27197266 C-15.66053929 4.28490463 -14.22108441 3.28275303 -12.79418945 2.26318359 C-8.27155332 -0.78594672 -5.47440434 -1.79357013 0 0 Z " fill="#FE4F59" transform="translate(252,89)"/>
<path d="M0 0 C12.52382909 -1.48113616 19.19804143 0.9511882 29.06835938 8.5546875 C32.32291749 10.98984726 35.75758556 13.13511148 39.1875 15.3125 C40.61920731 16.2345636 42.05018265 17.15776462 43.48046875 18.08203125 C44.21313965 18.55463379 44.94581055 19.02723633 45.70068359 19.51416016 C49.80623672 22.16720712 53.9027053 24.83422391 58 27.5 C63.60876804 31.14896108 69.22102532 34.79225313 74.84375 38.41967773 C76.93982574 39.77363064 79.03268418 41.1324337 81.125 42.4921875 C83.6336184 44.121792 86.1541598 45.72945146 88.6875 47.3203125 C89.780625 48.01898438 90.87375 48.71765625 92 49.4375 C93.423125 50.33275391 93.423125 50.33275391 94.875 51.24609375 C97 53 97 53 97.93359375 55.08203125 C98 57 98 57 96.0625 59.25 C95.381875 59.8275 94.70125 60.405 94 61 C89.18411637 59.338048 85.13946864 56.72719757 80.875 54 C80.06313232 53.48453613 79.25126465 52.96907227 78.41479492 52.43798828 C70.37889777 47.30354912 62.45981342 41.99446346 54.53839111 36.68612671 C47.9977842 32.30413929 41.45218365 27.94487444 34.75 23.8125 C28.02875529 19.66704519 21.37867149 15.41700833 14.75 11.125 C13.24711426 10.15977417 13.24711426 10.15977417 11.71386719 9.17504883 C10.77188477 8.56298584 9.82990234 7.95092285 8.859375 7.3203125 C7.59818848 6.50457764 7.59818848 6.50457764 6.31152344 5.67236328 C3.95328114 3.96619939 1.99783136 2.11112232 0 0 Z " fill="#FE505A" transform="translate(158,194)"/>
<path d="M0 0 C0.66 0 1.32 0 2 0 C2 0.66 2 1.32 2 2 C2.63808594 2.21011719 3.27617188 2.42023438 3.93359375 2.63671875 C8.28527552 4.57141549 12.0991694 7.18660693 16.0625 9.8125 C17.8619052 10.99360228 19.66138651 12.1745886 21.4609375 13.35546875 C22.3797168 13.96052246 23.29849609 14.56557617 24.24511719 15.18896484 C28.54829951 18.01783816 32.86803577 20.8210781 37.1875 23.625 C38.85807678 24.71093156 40.52864974 25.79686899 42.19921875 26.8828125 C46.62930535 29.76064209 51.06379841 32.63160842 55.5 35.5 C61.83719288 39.59822753 68.1705396 43.70233891 74.5 47.8125 C75.31275391 48.33972656 76.12550781 48.86695313 76.96289062 49.41015625 C79.31132439 50.93596391 81.65612364 52.46720252 84 54 C84.8559375 54.55606934 85.711875 55.11213867 86.59375 55.68505859 C87.41875 56.22598145 88.24375 56.7669043 89.09375 57.32421875 C89.84333984 57.81365967 90.59292969 58.30310059 91.36523438 58.80737305 C91.90470703 59.20093994 92.44417969 59.59450684 93 60 C93 60.33 93 60.66 93 61 C79.77367423 63.16128508 72.53767133 59.13473689 61.94140625 51.57421875 C61.11012207 50.96884277 60.27883789 50.3634668 59.42236328 49.73974609 C55.86850823 47.18736038 52.19177399 44.84609662 48.5 42.5 C47.1098375 41.60286215 45.72052339 40.7044084 44.33203125 39.8046875 C43.63029785 39.35061523 42.92856445 38.89654297 42.20556641 38.42871094 C35.67226232 34.19659941 29.14857168 29.94965773 22.62304688 25.70556641 C19.87933462 23.92154055 17.13505118 22.13839614 14.390625 20.35546875 C13.47772705 19.76233887 12.5648291 19.16920898 11.62426758 18.55810547 C9.86897567 17.4176841 8.11360787 16.27737953 6.3581543 15.13720703 C5.56836182 14.62399902 4.77856934 14.11079102 3.96484375 13.58203125 C3.2699585 13.13061768 2.57507324 12.6792041 1.85913086 12.21411133 C0.23316021 11.15226601 -1.38417289 10.07721807 -3 9 C-2.25 2.25 -2.25 2.25 0 0 Z " fill="#FE505A" transform="translate(3,89)"/>
<path d="M0 0 C0.66 0.33 1.32 0.66 2 1 C2.6328125 3.28515625 2.6328125 3.28515625 3.125 6.0625 C3.29257812 6.98160156 3.46015625 7.90070313 3.6328125 8.84765625 C3.75398438 9.55792969 3.87515625 10.26820313 4 11 C4.69867188 10.71125 5.39734375 10.4225 6.1171875 10.125 C7.02726562 9.75375 7.93734375 9.3825 8.875 9 C9.77992188 8.62875 10.68484375 8.2575 11.6171875 7.875 C14 7 14 7 16 7 C15.32902328 11.19360449 13.1441606 14.40334352 11 18 C15.455 20.97 15.455 20.97 20 24 C19.67 24.66 19.34 25.32 19 26 C15.37 26 11.74 26 8 26 C8.33 26.99 8.66 27.98 9 29 C9.06740865 30.56118428 9.08514456 32.1250252 9.0625 33.6875 C9.05347656 34.49574219 9.04445313 35.30398437 9.03515625 36.13671875 C9.02355469 36.75160156 9.01195312 37.36648437 9 38 C4.8575633 36.61918777 3.67796901 34.40174442 1 31 C0.52949219 31.42152344 0.05898438 31.84304687 -0.42578125 32.27734375 C-1.04839844 32.82519531 -1.67101562 33.37304688 -2.3125 33.9375 C-2.92738281 34.48277344 -3.54226563 35.02804688 -4.17578125 35.58984375 C-6 37 -6 37 -9 38 C-8.67 34.04 -8.34 30.08 -8 26 C-11.63 26 -15.26 26 -19 26 C-19 25.01 -19 24.02 -19 23 C-12.25 19 -12.25 19 -10 19 C-10.45375 18.113125 -10.9075 17.22625 -11.375 16.3125 C-12.70633612 13.59862253 -13.87734386 10.80664034 -15 8 C-11.37 8.66 -7.74 9.32 -4 10 C-3.525625 8.535625 -3.05125 7.07125 -2.5625 5.5625 C-1.125 1.125 -1.125 1.125 0 0 Z " fill="#EDEDF1" transform="translate(392,147)"/>
<path d="M0 0 C0.99 0.33 1.98 0.66 3 1 C3.73046875 3.06640625 3.73046875 3.06640625 4.1875 5.5625 C4.34605469 6.38878906 4.50460937 7.21507812 4.66796875 8.06640625 C4.77753906 8.70449219 4.88710938 9.34257812 5 10 C5.53109375 9.77183594 6.0621875 9.54367188 6.609375 9.30859375 C7.31578125 9.02113281 8.0221875 8.73367187 8.75 8.4375 C9.44609375 8.14746094 10.1421875 7.85742188 10.859375 7.55859375 C13 7 13 7 17 8 C15.02 11.3 13.04 14.6 11 18 C13.475 18.99 13.475 18.99 16 20 C17.34050052 20.65213539 18.67661368 21.31379969 20 22 C20 22.99 20 23.98 20 25 C16.37 25 12.74 25 9 25 C9.33 28.96 9.66 32.92 10 37 C6.43688534 35.21844267 4.64354525 33.83236991 2 31 C-0.56490126 32.0992434 -2.12843192 33.12843192 -4.125 35.125 C-5.053125 36.053125 -5.053125 36.053125 -6 37 C-6.66 37 -7.32 37 -8 37 C-7.67 33.04 -7.34 29.08 -7 25 C-10.63 25 -14.26 25 -18 25 C-18 24.01 -18 23.02 -18 22 C-11.25 18 -11.25 18 -9 18 C-10.98 14.37 -12.96 10.74 -15 7 C-10.64193667 7.72634389 -7.09270163 8.53832085 -3 10 C-2.86722656 9.36191406 -2.73445313 8.72382813 -2.59765625 8.06640625 C-2.42105469 7.24011719 -2.24445313 6.41382813 -2.0625 5.5625 C-1.80146484 4.32693359 -1.80146484 4.32693359 -1.53515625 3.06640625 C-1 1 -1 1 0 0 Z " fill="#EEEEF1" transform="translate(460,195)"/>
<path d="M0 0 C0.66 0 1.32 0 2 0 C3.32 3.3 4.64 6.6 6 10 C7.093125 9.505 8.18625 9.01 9.3125 8.5 C13 7 13 7 16 7 C15.38545304 10.99455527 13.29353263 13.74466336 11 17 C11.6496875 17.40992188 12.299375 17.81984375 12.96875 18.2421875 C13.8040625 18.78101563 14.639375 19.31984375 15.5 19.875 C16.3353125 20.40867188 17.170625 20.94234375 18.03125 21.4921875 C19.00578125 22.23855469 19.00578125 22.23855469 20 23 C20 23.66 20 24.32 20 25 C16.37 25.33 12.74 25.66 9 26 C9.33 29.96 9.66 33.92 10 38 C5.9915966 35.9957983 4.58590343 34.50944037 2 31 C-1.94139078 32.66751148 -4.7892812 35.22710649 -8 38 C-8.07329796 33.60212211 -8.07396066 30.29584263 -7 26 C-10.63 25.67 -14.26 25.34 -18 25 C-15.73826764 20.47653527 -14.46594067 19.94171334 -10 18 C-11.25756667 14.51750769 -12.7731892 11.93534151 -15 9 C-15 8.34 -15 7.68 -15 7 C-10.61110675 7.66498383 -7.0188515 9.18757677 -3 11 C-2.87625 9.9275 -2.7525 8.855 -2.625 7.75 C-2.10356064 4.62136385 -1.59911746 2.66519576 0 0 Z " fill="#EEEEF1" transform="translate(319,230)"/>
<path d="M0 0 C0.99 0 1.98 0 3 0 C3.66 3.3 4.32 6.6 5 10 C7.1346875 9.2575 7.1346875 9.2575 9.3125 8.5 C12.13135886 7.51952735 13.98509443 7 17 7 C15.54955729 11.10958767 13.48889248 14.43258745 11 18 C11.721875 18.268125 12.44375 18.53625 13.1875 18.8125 C15.99766383 19.99901362 18.48416557 21.27485639 21 23 C21 23.66 21 24.32 21 25 C17.04 25 13.08 25 9 25 C9.33 25.99 9.66 26.98 10 28 C10.06740865 29.56118428 10.08514456 31.1250252 10.0625 32.6875 C10.05347656 33.49574219 10.04445313 34.30398438 10.03515625 35.13671875 C10.02355469 35.75160156 10.01195312 36.36648438 10 37 C6.23511958 35.27845212 3.84936103 33.00765886 1 30 C0.51789063 30.5775 0.03578125 31.155 -0.4609375 31.75 C-1.09257812 32.4925 -1.72421875 33.235 -2.375 34 C-3.31472656 35.11375 -3.31472656 35.11375 -4.2734375 36.25 C-4.84320313 36.8275 -5.41296875 37.405 -6 38 C-6.66 38 -7.32 38 -8 38 C-7.85851011 36.3954444 -7.71164314 34.79136233 -7.5625 33.1875 C-7.48128906 32.29417969 -7.40007812 31.40085937 -7.31640625 30.48046875 C-7 28 -7 28 -6 25 C-9.96 25 -13.92 25 -18 25 C-16.5361389 20.60841671 -14.02168662 20.12052567 -10 18 C-10.45487191 15.4527173 -10.97953003 14.02702035 -12.5625 11.9375 C-14 10 -14 10 -14 7 C-12.9275 7.33 -11.855 7.66 -10.75 8 C-7.00268399 9.1717751 -7.00268399 9.1717751 -3 9 C-2.01 6.03 -1.02 3.06 0 0 Z " fill="#EEEEF1" transform="translate(391,336)"/>
<path d="M0 0 C2.89932357 2.39509338 3.50168276 4.31245243 4 8 C6.97 8 9.94 8 13 8 C12.67 9.32 12.34 10.64 12 12 C11.29875 12.391875 10.5975 12.78375 9.875 13.1875 C7.74558719 14.81886469 7.74558719 14.81886469 7.9609375 17.1875 C8.22612381 19.48100318 8.56282683 21.73335217 9 24 C6.03824877 23.38722388 4.61941217 22.74627478 2 21 C-1.03452373 21.37931547 -2.37561021 22.25040681 -5 24 C-5.99 24 -6.98 24 -8 24 C-7.86980469 23.39671875 -7.73960937 22.7934375 -7.60546875 22.171875 C-7.18047711 19.7093066 -6.87893702 17.49908587 -7 15 C-9.32069965 12.57583999 -9.32069965 12.57583999 -12 11 C-12 10.01 -12 9.02 -12 8 C-9.03 8 -6.06 8 -3 8 C-2.690625 6.865625 -2.38125 5.73125 -2.0625 4.5625 C-1 1 -1 1 0 0 Z " fill="#E9E9EF" transform="translate(419,249)"/>
</svg>
