<?xml version="1.0" encoding="UTF-8"?>
<svg version="1.1" xmlns="http://www.w3.org/2000/svg" width="280" height="280">
<path d="M0 0 C0.84861867 1.03388049 1.65353055 2.10377753 2.4375 3.1875 C3.12328125 4.08210938 3.8090625 4.97671875 4.515625 5.8984375 C10.4375 13.78736888 10.4375 13.78736888 10.4375 16.1875 C11.40602465 16.18196924 11.40602465 16.18196924 12.39411545 16.17632675 C28.10115393 16.08800982 43.80810612 16.02180715 59.51533127 15.98025131 C67.11122298 15.95962132 74.70694901 15.93149261 82.30273438 15.88574219 C88.92282192 15.84588751 95.54278949 15.82007036 102.16299367 15.81114602 C105.66877802 15.80592886 109.17421911 15.79365824 112.67989349 15.76457977 C116.59232543 15.73239027 120.5044208 15.73153972 124.41699219 15.73339844 C125.58080414 15.71901733 126.74461609 15.70463623 127.94369507 15.68981934 C129.54221817 15.69806732 129.54221817 15.69806732 131.17303467 15.70648193 C132.5612549 15.70095118 132.5612549 15.70095118 133.97751999 15.69530869 C137.22455943 16.34497438 138.44020767 17.59333851 140.4375 20.1875 C140.375 23.3125 140.375 23.3125 139.4375 26.1875 C135.93242473 28.52421684 134.507008 28.44267919 130.36132812 28.45874023 C129.10993042 28.46892685 127.85853271 28.47911346 126.56921387 28.48960876 C125.56706093 28.49102025 125.56706093 28.49102025 124.54466248 28.49246025 C122.4514994 28.49612394 120.35881012 28.51284873 118.26574707 28.53321838 C112.31576333 28.58863843 106.36571042 28.61934624 100.41552734 28.64379883 C96.7744415 28.65966387 93.13369355 28.68986854 89.49278259 28.72856331 C88.10533735 28.74022022 86.71783173 28.74614372 85.33033752 28.74624443 C83.39140171 28.74643623 81.45249757 28.76619909 79.51367188 28.78686523 C78.41019409 28.79193588 77.30671631 28.79700653 76.1697998 28.80223083 C73.15156256 29.22781874 72.25035321 29.80061118 70.4375 32.1875 C71.4275 34.6625 71.4275 34.6625 72.4375 37.1875 C73.75468018 37.20208252 75.07186035 37.21666504 76.42895508 37.23168945 C81.31009238 37.28960713 86.19076518 37.36684036 91.0715332 37.44995117 C93.18506336 37.48323128 95.29868306 37.51125353 97.41235352 37.53393555 C100.44846806 37.56742472 103.48375975 37.61973764 106.51953125 37.67578125 C107.46649368 37.68217117 108.41345612 37.6885611 109.38911438 37.69514465 C110.26980087 37.71493881 111.15048737 37.73473297 112.05786133 37.75512695 C112.83285477 37.76623001 113.60784821 37.77733307 114.40632629 37.78877258 C116.99166908 38.29628558 117.88787242 39.07834003 119.4375 41.1875 C119.75 44.75 119.75 44.75 119.4375 48.1875 C116.70890201 50.91609799 115.20279315 50.44981934 111.38305664 50.47460938 C109.47581566 50.49473083 109.47581566 50.49473083 107.53004456 50.51525879 C106.84864473 50.51782181 106.16724491 50.52038483 105.46519661 50.52302551 C103.33431556 50.53130181 101.20386575 50.55179421 99.07310486 50.57556152 C94.54880039 50.62383458 90.02445298 50.65673769 85.5 50.6875 C80.26116438 50.72314966 75.02253898 50.76505827 69.78390312 50.82344055 C67.68387458 50.84352318 65.58400658 50.85183172 63.48390198 50.85974121 C62.20925583 50.87315552 60.93460968 50.88656982 59.62133789 50.90039062 C58.49707901 50.90768188 57.37282013 50.91497314 56.2144928 50.92248535 C53.22614189 50.98668877 53.22614189 50.98668877 50.4375 53.1875 C50.81654208 56.47825996 50.81654208 56.47825996 52.4375 59.1875 C53.78178422 59.28621971 55.13117788 59.31657442 56.4790802 59.31880188 C57.34974625 59.32281006 58.22041229 59.32681824 59.11746216 59.33094788 C60.56135818 59.3301548 60.56135818 59.3301548 62.03442383 59.3293457 C63.54656212 59.33455734 63.54656212 59.33455734 65.08924866 59.33987427 C67.28660844 59.34724663 69.48397575 59.35258408 71.68134499 59.35616493 C75.15649654 59.36330584 78.63150486 59.37895439 82.10661316 59.39750671 C91.99008214 59.45008894 101.87347424 59.49796976 111.75708008 59.51342773 C117.79488643 59.52349215 123.83233545 59.55277981 129.87000084 59.59474754 C132.17489612 59.60708662 134.47984182 59.61217353 136.78476906 59.60994911 C140.00769989 59.60760426 143.22960063 59.62970196 146.45239258 59.6574707 C147.40891724 59.65086929 148.36544189 59.64426788 149.35095215 59.63746643 C155.78039101 59.72864795 155.78039101 59.72864795 159.06938171 62.02531433 C160.4375 64.1875 160.4375 64.1875 160.3125 67.3125 C159.4375 70.1875 159.4375 70.1875 157.4375 72.1875 C154.78749084 72.45251465 154.78749084 72.45251465 151.38305664 72.47460938 C149.47581566 72.49473083 149.47581566 72.49473083 147.53004456 72.51525879 C146.84864473 72.51782181 146.16724491 72.52038483 145.46519661 72.52302551 C143.33431556 72.53130181 141.20386575 72.55179421 139.07310486 72.57556152 C134.54880039 72.62383458 130.02445298 72.65673769 125.5 72.6875 C120.26116438 72.72314966 115.02253898 72.76505827 109.78390312 72.82344055 C107.68387458 72.84352318 105.58400658 72.85183172 103.48390198 72.85974121 C102.20925583 72.87315552 100.93460968 72.88656982 99.62133789 72.90039062 C97.93494957 72.91132751 97.93494957 72.91132751 96.2144928 72.92248535 C93.22614189 72.98668877 93.22614189 72.98668877 90.4375 75.1875 C90.10406449 77.72957971 90.10406449 77.72957971 90.4375 80.1875 C92.41927574 82.16927574 96.33503313 81.34815953 99.05078125 81.36328125 C100.62436226 81.38648437 102.19793001 81.4106019 103.77148438 81.43554688 C106.26009929 81.47064619 108.74822842 81.49999044 111.23706055 81.51342773 C113.63390488 81.52891276 116.02931589 81.56912985 118.42578125 81.61328125 C119.53848137 81.61041862 119.53848137 81.61041862 120.67366028 81.60749817 C124.14431658 81.68959034 126.11441039 81.95044184 128.94604492 84.02807617 C130.4375 86.1875 130.4375 86.1875 130.3125 89.3125 C129.4375 92.1875 129.4375 92.1875 127.4375 94.1875 C125.29446507 94.4436264 125.29446507 94.4436264 122.58558655 94.45251465 C121.5606459 94.46078781 120.53570526 94.46906097 119.47970581 94.47758484 C118.3508194 94.47660294 117.22193298 94.47562103 116.05883789 94.47460938 C114.87342911 94.48144241 113.68802032 94.48827545 112.46669006 94.49531555 C109.21048964 94.51249676 105.95439443 94.52100362 102.69815755 94.52635384 C99.29355347 94.53453317 95.88903279 94.55545861 92.48448181 94.57556152 C83.82302679 94.62457302 75.16153657 94.65686429 66.5 94.6875 C57.15342677 94.72056826 47.80691841 94.75646789 38.46044534 94.81163073 C35.06943951 94.83116607 31.67852198 94.84639732 28.28746223 94.85197449 C24.50673086 94.8593886 20.72622856 94.87862991 16.94555664 94.90039062 C15.81869446 94.89940872 14.69183228 94.89842682 13.53082275 94.89741516 C12.50306229 94.90568832 11.47530182 94.91396149 10.41639709 94.92248535 C9.52209016 94.92541847 8.62778322 94.92835159 7.70637608 94.9313736 C5.15700244 95.04381849 5.15700244 95.04381849 2.4375 97.1875 C0.42892456 97.76968384 0.42892456 97.76968384 -1.89111328 98.24072266 C-2.7627713 98.42075836 -3.63442932 98.60079407 -4.53250122 98.7862854 C-5.47310394 98.97282684 -6.41370667 99.15936829 -7.3828125 99.3515625 C-8.84266068 99.64696426 -8.84266068 99.64696426 -10.33200073 99.94833374 C-12.39415797 100.36347158 -14.45701736 100.77513439 -16.52050781 101.18359375 C-19.65669649 101.80638299 -22.78926918 102.44540153 -25.921875 103.0859375 C-27.92948867 103.48797333 -29.93729559 103.88904555 -31.9453125 104.2890625 C-32.87376984 104.4796524 -33.80222717 104.67024231 -34.75881958 104.86660767 C-40.46557329 105.97987347 -45.74444025 106.52248568 -51.5625 106.1875 C-53.953125 104.4140625 -53.953125 104.4140625 -55.8125 101.8125 C-56.55242188 100.80960937 -57.29234375 99.80671875 -58.0546875 98.7734375 C-58.45139648 98.20592773 -58.84810547 97.63841797 -59.25683594 97.05371094 C-60.68848327 95.00742967 -62.15761907 92.99166036 -63.6328125 90.9765625 C-65.85997476 87.92584188 -68.06587987 84.86127583 -70.2578125 81.78515625 C-72.40211152 78.7835167 -74.5806464 75.8141195 -76.8046875 72.87109375 C-77.31209473 72.19594727 -77.81950195 71.52080078 -78.34228516 70.82519531 C-79.29596223 69.56017166 -80.25621007 68.30006471 -81.22412109 67.04589844 C-85.5497524 61.2794803 -85.5497524 61.2794803 -85.5625 57.1875 C-84.63556992 54.74900746 -83.66886674 52.65218106 -82.4375 50.375 C-82.0863916 49.70138428 -81.7352832 49.02776855 -81.37353516 48.33374023 C-80.1191113 45.94290915 -78.84087764 43.56560559 -77.5625 41.1875 C-76.48945129 39.16413252 -75.41654212 37.14069103 -74.34375 35.1171875 C-73.20987133 32.9939696 -72.07445735 30.87157089 -70.9375 28.75 C-70.3997998 27.74412842 -69.86209961 26.73825684 -69.30810547 25.7019043 C-68.2563803 23.76066592 -67.18602941 21.82938559 -66.09594727 19.90942383 C-65.11084257 18.16082771 -64.17164199 16.38511758 -63.29272461 14.58081055 C-61.26900723 10.84358065 -59.7470861 8.69528345 -55.7734375 6.99194336 C-52.31892495 6.08399337 -48.90124643 5.44263623 -45.375 4.875 C-42.85413764 4.40770865 -40.3333044 3.94026019 -37.8125 3.47265625 C-36.57886719 3.25754395 -35.34523437 3.04243164 -34.07421875 2.82080078 C-28.57252915 1.82863012 -23.13260497 0.57097084 -17.6887207 -0.6965332 C-4.91652218 -3.47754008 -4.91652218 -3.47754008 0 0 Z M-14.15234375 10.3671875 C-15.85798544 12.56892996 -16.9464342 14.78649927 -18.125 17.3125 C-21.17652601 23.61641197 -24.67751864 29.58965782 -28.31079102 35.57470703 C-28.73158936 36.27450684 -29.1523877 36.97430664 -29.5859375 37.6953125 C-29.96669434 38.32066895 -30.34745117 38.94602539 -30.73974609 39.59033203 C-31.71514786 41.18438921 -31.71514786 41.18438921 -31.5625 43.1875 C-33.97806107 43.77574544 -36.39459143 44.35902116 -38.8125 44.9375 C-39.56233154 45.11724365 -40.31216309 45.2969873 -41.0847168 45.48217773 C-45.37638932 46.49335548 -49.6710829 47.41993634 -54.00390625 48.23828125 C-54.89883789 48.40811523 -55.79376953 48.57794922 -56.71582031 48.75292969 C-58.46214064 49.07936268 -60.21018712 49.3967178 -61.95996094 49.70410156 C-66.18221877 50.49503394 -69.3642935 51.09444002 -72.5625 54.1875 C-72.2325 56.1675 -71.9025 58.1475 -71.5625 60.1875 C-64.7231631 61.82854779 -58.82765117 60.26523561 -52.0625 58.75 C-35.78030456 55.1602996 -35.78030456 55.1602996 -30.34765625 56.89453125 C-27.99817726 58.59623266 -26.65183575 60.48822222 -25 62.875 C-24.31164062 63.844375 -23.62328125 64.81375 -22.9140625 65.8125 C-21.66788561 67.59305991 -20.4310098 69.37930767 -19.20214844 71.171875 C-17.77368759 73.24963623 -16.3250948 75.31229961 -14.875 77.375 C-14.42374756 78.04684326 -13.97249512 78.71868652 -13.50756836 79.41088867 C-10.92122775 83.1432319 -10.92122775 83.1432319 -6.84375 84.76953125 C-4.29414302 84.37795077 -4.29414302 84.37795077 -2.75 81.6875 C-2.358125 80.8625 -1.96625 80.0375 -1.5625 79.1875 C-4.21015084 74.34468369 -7.07562729 70.00739766 -10.5 65.6875 C-11.38173118 64.54704565 -12.26324397 63.40642242 -13.14453125 62.265625 C-14.51127098 60.52573662 -15.89350308 58.79704847 -17.32421875 57.109375 C-20.29933106 53.4608132 -21.12770467 50.50471109 -21.02587891 45.81787109 C-20.07876825 40.44159595 -16.99054505 35.97873538 -14.1875 31.375 C-12.99189165 29.34783071 -11.79656744 27.3204938 -10.6015625 25.29296875 C-10.06740723 24.40762451 -9.53325195 23.52228027 -8.98291016 22.61010742 C-5.80145633 17.27311802 -5.80145633 17.27311802 -5.5625 11.1875 C-8.65122886 9.12834742 -10.86784614 7.93004186 -14.15234375 10.3671875 Z " fill="#1CB7DB" transform="translate(102.5625,87.8125)"/>
<path d="M0 0 C16.3592385 -0.0934194 32.71839054 -0.16396731 49.07783127 -0.20724869 C56.67372298 -0.22787868 64.26944901 -0.25600739 71.86523438 -0.30175781 C78.48532192 -0.34161249 85.10528949 -0.36742964 91.72549367 -0.37635398 C95.23127802 -0.38157114 98.73671911 -0.39384176 102.24239349 -0.42292023 C106.15482543 -0.45510973 110.0669208 -0.45596028 113.97949219 -0.45410156 C115.14330414 -0.46848267 116.30711609 -0.48286377 117.50619507 -0.49768066 C118.57187714 -0.49218201 119.6375592 -0.48668335 120.73553467 -0.48101807 C122.1237549 -0.48654882 122.1237549 -0.48654882 123.54001999 -0.49219131 C126.78705943 0.15747438 128.00270767 1.40583851 130 4 C129.9375 7.125 129.9375 7.125 129 10 C125.49492473 12.33671684 124.069508 12.25517919 119.92382812 12.27124023 C118.67243042 12.28142685 117.42103271 12.29161346 116.13171387 12.30210876 C115.12956093 12.30352025 115.12956093 12.30352025 114.10716248 12.30496025 C112.0139994 12.30862394 109.92131012 12.32534873 107.82824707 12.34571838 C101.87826333 12.40113843 95.92821042 12.43184624 89.97802734 12.45629883 C86.3369415 12.47216387 82.69619355 12.50236854 79.05528259 12.54106331 C77.66783735 12.55272022 76.28033173 12.55864372 74.89283752 12.55874443 C72.95390171 12.55893623 71.01499757 12.57869909 69.07617188 12.59936523 C67.97269409 12.60443588 66.86921631 12.60950653 65.7322998 12.61473083 C62.71406256 13.04031874 61.81285321 13.61311118 60 16 C60.99 18.475 60.99 18.475 62 21 C63.31718018 21.01458252 64.63436035 21.02916504 65.99145508 21.04418945 C70.87259238 21.10210713 75.75326518 21.17934036 80.6340332 21.26245117 C82.74756336 21.29573128 84.86118306 21.32375353 86.97485352 21.34643555 C90.01096806 21.37992472 93.04625975 21.43223764 96.08203125 21.48828125 C97.02899368 21.49467117 97.97595612 21.5010611 98.95161438 21.50764465 C99.83230087 21.52743881 100.71298737 21.54723297 101.62036133 21.56762695 C102.39535477 21.57873001 103.17034821 21.58983307 103.96882629 21.60127258 C106.55416908 22.10878558 107.45037242 22.89084003 109 25 C109.3125 28.5625 109.3125 28.5625 109 32 C106.27140201 34.72859799 104.76529315 34.26231934 100.94555664 34.28710938 C99.67406265 34.30052368 98.40256866 34.31393799 97.09254456 34.32775879 C96.41114473 34.33032181 95.72974491 34.33288483 95.02769661 34.33552551 C92.89681556 34.34380181 90.76636575 34.36429421 88.63560486 34.38806152 C84.11130039 34.43633458 79.58695298 34.46923769 75.0625 34.5 C69.82366438 34.53564966 64.58503898 34.57755827 59.34640312 34.63594055 C57.24637458 34.65602318 55.14650658 34.66433172 53.04640198 34.67224121 C51.77175583 34.68565552 50.49710968 34.69906982 49.18383789 34.71289062 C48.05957901 34.72018188 46.93532013 34.72747314 45.7769928 34.73498535 C42.78864189 34.79918877 42.78864189 34.79918877 40 37 C40.37904208 40.29075996 40.37904208 40.29075996 42 43 C43.34428422 43.09871971 44.69367788 43.12907442 46.0415802 43.13130188 C47.34757927 43.13731415 47.34757927 43.13731415 48.67996216 43.14344788 C49.64255951 43.14291916 50.60515686 43.14239044 51.59692383 43.1418457 C53.10906212 43.14705734 53.10906212 43.14705734 54.65174866 43.15237427 C56.84910844 43.15974663 59.04647575 43.16508408 61.24384499 43.16866493 C64.71899654 43.17580584 68.19400486 43.19145439 71.66911316 43.21000671 C81.55258214 43.26258894 91.43597424 43.31046976 101.31958008 43.32592773 C107.35738643 43.33599215 113.39483545 43.36527981 119.43250084 43.40724754 C121.73739612 43.41958662 124.04234182 43.42467353 126.34726906 43.42244911 C129.57019989 43.42010426 132.79210063 43.44220196 136.01489258 43.4699707 C136.97141724 43.46336929 137.92794189 43.45676788 138.91345215 43.44996643 C145.34289101 43.54114795 145.34289101 43.54114795 148.63188171 45.83781433 C150 48 150 48 149.875 51.125 C149 54 149 54 147 56 C144.34999084 56.26501465 144.34999084 56.26501465 140.94555664 56.28710938 C139.03831566 56.30723083 139.03831566 56.30723083 137.09254456 56.32775879 C136.41114473 56.33032181 135.72974491 56.33288483 135.02769661 56.33552551 C132.89681556 56.34380181 130.76636575 56.36429421 128.63560486 56.38806152 C124.11130039 56.43633458 119.58695298 56.46923769 115.0625 56.5 C109.82366438 56.53564966 104.58503898 56.57755827 99.34640312 56.63594055 C97.24637458 56.65602318 95.14650658 56.66433172 93.04640198 56.67224121 C91.77175583 56.68565552 90.49710968 56.69906982 89.18383789 56.71289062 C88.05957901 56.72018188 86.93532013 56.72747314 85.7769928 56.73498535 C82.78864189 56.79918877 82.78864189 56.79918877 80 59 C79.66656449 61.54207971 79.66656449 61.54207971 80 64 C81.98177574 65.98177574 85.89753313 65.16065953 88.61328125 65.17578125 C90.18686226 65.19898437 91.76043001 65.2231019 93.33398438 65.24804688 C95.82259929 65.28314619 98.31072842 65.31249044 100.79956055 65.32592773 C103.19640488 65.34141276 105.59181589 65.38162985 107.98828125 65.42578125 C109.10098137 65.42291862 109.10098137 65.42291862 110.23616028 65.41999817 C113.70681658 65.50209034 115.67691039 65.76294184 118.50854492 67.84057617 C120 70 120 70 119.875 73.125 C119 76 119 76 117 78 C114.84858513 78.24609566 114.84858513 78.24609566 112.12789917 78.24050903 C110.58398499 78.24463303 110.58398499 78.24463303 109.00888062 78.24884033 C107.87528107 78.24164978 106.74168152 78.23445923 105.57373047 78.22705078 C103.78838898 78.22748886 103.78838898 78.22748886 101.96697998 78.22793579 C98.69853958 78.22677915 95.43026925 78.21673158 92.16186285 78.20278788 C88.74790018 78.19030636 85.33393436 78.18911206 81.91995239 78.18673706 C75.45303099 78.18051469 68.986177 78.16409367 62.51928532 78.14403808 C55.15784073 78.12170259 47.79639296 78.11069158 40.43492293 78.10064721 C25.28991102 78.07972807 10.14496224 78.04453743 -5 78 C-3.89031619 75.7637792 -2.77881309 73.52849386 -1.66625977 71.29370117 C-1.19889278 70.35116108 -1.19889278 70.35116108 -0.72208405 69.38957977 C1.68049156 64.56877693 4.2693222 59.91453861 7.0625 55.3125 C7.91800823 53.88100925 8.77217501 52.44871595 9.625 51.015625 C10.02976562 50.33564453 10.43453125 49.65566406 10.8515625 48.95507812 C17.41039239 38.64574955 17.41039239 38.64574955 19 27 C17.60330229 24.51860178 16.29767402 22.52058655 14.5625 20.3125 C14.11600098 19.71671143 13.66950195 19.12092285 13.20947266 18.50708008 C11.820966 16.65973487 10.41135839 14.82991941 9 13 C7.68828211 11.26583248 6.38206249 9.52768154 5.07788086 7.7878418 C3.93179787 6.26306525 2.77476625 4.74653642 1.6171875 3.23046875 C0 1 0 1 0 0 Z " fill="#02A4C8" transform="translate(113,104)"/>
<path d="M0 0 C1.8125 1.125 1.8125 1.125 3 3 C3.39365568 6.14924548 3.52854531 8.11909116 1.875 10.875 C-0.91106042 12.54663625 -2.81988862 12.46376624 -6 12 C-7.9375 10.375 -7.9375 10.375 -9 8 C-8.875 4.875 -8.875 4.875 -8 2 C-4.76746204 -0.15502531 -3.74849077 -0.46856135 0 0 Z " fill="#06A1C1" transform="translate(236,126)"/>
<path d="M0 0 C-0.598125 0.268125 -1.19625 0.53625 -1.8125 0.8125 C-5.22084219 2.6627429 -6.85142361 4.77713542 -9 8 C-8.6875 5.125 -8.6875 5.125 -8 2 C-4.77208445 -0.1519437 -3.71599191 -0.20086443 0 0 Z " fill="#218C90" transform="translate(236,126)"/>
</svg>
