<?xml version="1.0" encoding="UTF-8"?>
<svg version="1.1" xmlns="http://www.w3.org/2000/svg" width="1280" height="341">
<path d="M0 0 C1.16175247 -0.00525696 2.32350494 -0.01051392 3.52046204 -0.01593018 C7.36770018 -0.02914831 11.21452506 -0.02037778 15.06176758 -0.01025391 C17.74677541 -0.01227589 20.4317708 -0.01518462 23.11677551 -0.01895142 C28.75497892 -0.02441003 34.39306451 -0.01722491 40.03125 -0.00292969 C46.50387787 0.01329419 52.97622067 0.00818427 59.44884127 -0.0084089 C65.03476423 -0.02214486 70.62060262 -0.02388205 76.20653707 -0.0160929 C79.52929493 -0.01146874 82.85181556 -0.01185778 86.17458153 -0.02070236 C113.55179847 -0.07752167 142.42311809 1.38664713 163.49145508 21.23583984 C173.20965272 31.55323272 179.41236874 45.03218697 179.54638672 59.33178711 C179.39368194 63.30112618 179.21546753 67.26109476 178.91333008 71.22216797 C178.61436635 76.71180688 178.61436635 76.71180688 181.20117188 81.31542969 C183.24176048 82.84169684 185.31799537 84.10852682 187.51879883 85.38818359 C196.16857417 92.29056261 201.83748241 103.50243027 203.51879883 114.38818359 C205.78658886 144.24699391 199.51363639 172.9391988 180.76879883 196.70068359 C165.81505448 213.81340319 143.8661649 223.039501 121.51879883 225.38818359 C116.02664104 225.61778338 110.53054801 225.73160906 105.03442383 225.81787109 C98.83912702 225.98916962 93.90465735 226.18301235 88.51879883 229.38818359 C85.65411432 232.51001717 84.87709122 235.22909392 84.10083008 239.35693359 C83.98117386 239.98990356 83.86151764 240.62287354 83.73823547 241.27502441 C82.48977291 248.10945677 81.49730462 254.98691305 80.46801758 261.85693359 C80.28490021 263.06978027 80.10178284 264.28262695 79.91311646 265.53222656 C79.72691742 266.76602051 79.54071838 267.99981445 79.34887695 269.27099609 C79.16010986 270.52170898 78.97134277 271.77242188 78.77685547 273.06103516 C78.39451073 275.62570615 78.0195832 278.19149321 77.65185547 280.75830078 C77.11268801 284.50319373 76.54310736 288.24241123 75.96801758 291.98193359 C75.73328987 293.69455383 75.73328987 293.69455383 75.49382019 295.44177246 C74.43618929 302.11044364 72.99461215 307.08949443 67.51879883 311.38818359 C64.42885625 312.41816445 62.24948569 312.5330916 59.00927734 312.56518555 C57.88123184 312.57802078 56.75318634 312.59085602 55.59095764 312.6040802 C54.3721843 312.61146713 53.15341095 312.61885406 51.89770508 312.62646484 C50.64626205 312.63453659 49.39481903 312.64260834 48.10545349 312.65092468 C45.4566579 312.66476268 42.80798666 312.6757807 40.15917969 312.68334961 C36.76833117 312.69442816 33.37813635 312.72885209 29.98751926 312.76852131 C26.74931269 312.80095784 23.51104936 312.80546272 20.27270508 312.81396484 C18.44758141 312.84022697 18.44758141 312.84022697 16.58558655 312.86701965 C15.45438889 312.86409409 14.32319122 312.86116852 13.15771484 312.8581543 C12.16304703 312.86402054 11.16837921 312.86988678 10.14356995 312.87593079 C6.72528221 312.24072864 5.58706479 311.14954408 3.51879883 308.38818359 C2.20010722 304.48451779 2.6423214 301.2343932 3.29614258 297.21240234 C3.47983398 296.05546875 3.66352539 294.89853516 3.8527832 293.70654297 C4.15152344 291.90926758 4.15152344 291.90926758 4.45629883 290.07568359 C4.6515918 288.85816406 4.84688477 287.64064453 5.0480957 286.38623047 C5.53056072 283.3855334 6.02105608 280.38637778 6.51879883 277.38818359 C5.73841248 277.39706604 4.95802612 277.40594849 4.1539917 277.4151001 C-3.20279937 277.49527034 -10.55937846 277.5561599 -17.91649246 277.59543228 C-21.69883112 277.61630154 -25.48080864 277.64460607 -29.26293945 277.68994141 C-32.91340429 277.73342433 -36.56352193 277.75732568 -40.21422577 277.76769257 C-41.60651872 277.77507969 -42.9987928 277.78950534 -44.39093781 277.81110382 C-46.34173528 277.840164 -48.29288263 277.84181771 -50.24389648 277.84228516 C-51.35420227 277.8511676 -52.46450806 277.86005005 -53.60845947 277.86920166 C-57.22437722 277.26374459 -58.20329284 276.21106255 -60.48120117 273.38818359 C-62.4448022 263.82007111 -59.32371642 252.4535313 -57.77832031 242.92236328 C-57.48671412 241.08056987 -57.1959251 239.23864693 -56.90588379 237.39660645 C-56.11816231 232.40889611 -55.31902652 227.42307544 -54.5177834 222.43752193 C-53.67052089 217.15302821 -52.83385296 211.8668569 -51.99595642 206.58087158 C-50.39918888 196.51781706 -48.79289935 186.45630652 -47.18321747 176.39531064 C-45.38723598 165.16686453 -43.60203167 153.93671423 -41.81772161 142.7064085 C-39.58392952 128.64719787 -37.34818967 114.58831923 -35.09561157 100.53210449 C-34.59783793 97.42541232 -34.1000652 94.31872 -33.60230517 91.21202564 C-33.27881127 89.19299059 -32.95527595 87.17396217 -32.63169789 85.15494061 C-30.69871754 73.0881062 -28.79353757 61.01761183 -26.93716395 48.93875456 C-26.22363865 44.30584698 -25.50067941 39.67440036 -24.779356 35.04270172 C-24.24720893 31.59531661 -23.73070422 28.14583873 -23.21485901 24.69598389 C-22.90273771 22.69122959 -22.58980801 20.68660091 -22.27587891 18.68212891 C-22.08814942 17.37165462 -22.08814942 17.37165462 -21.89662743 16.03470612 C-20.91821958 9.9554194 -19.11895133 5.79013496 -14.44877625 1.53744507 C-9.7107129 -0.29747858 -5.03577433 -0.02793946 0 0 Z " fill="#243B80" transform="translate(60.481201171875,-0.38818359375)"/>
<path d="M0 0 C0.78136322 -0.00525696 1.56272644 -0.01051392 2.36776733 -0.01593018 C4.94891447 -0.0291189 7.52944231 -0.02038511 10.1105957 -0.01025391 C11.92120989 -0.01227761 13.73182328 -0.01519151 15.54243469 -0.01895142 C19.34461193 -0.02337546 23.14657783 -0.01695092 26.94873047 -0.00292969 C31.77066384 0.01400352 36.59209033 0.0044235 41.41400433 -0.01364708 C45.16093075 -0.02461947 48.90774224 -0.02097518 52.65467262 -0.0132637 C54.4288826 -0.01129025 56.20310371 -0.01361803 57.97730064 -0.02070236 C78.55999199 -0.08475499 100.10841374 1.55652642 116.0324707 16.16162109 C125.46708806 26.10347594 128.62986333 39.20709172 128.28637695 52.64599609 C126.66774336 76.31851243 120.021423 98.49854329 102.34887695 115.07568359 C82.6884436 131.26886998 58.91422663 132.65197095 34.53027344 132.84448242 C32.2259518 132.8660758 29.92244714 132.90540933 27.6184082 132.94677734 C26.57158623 132.94695107 26.57158623 132.94695107 25.50361633 132.9471283 C22.57990608 133.00694147 20.36475538 133.25773255 17.72485352 134.55297852 C15.53641332 137.0230243 15.17565123 138.95098827 14.5637207 142.19287109 C14.32508301 143.44551758 14.08644531 144.69816406 13.84057617 145.98876953 C12.1523979 155.79450483 10.667513 165.63914459 9.2265625 175.48388672 C8.80432698 178.35290472 8.36155725 181.21813273 7.9152832 184.08349609 C7.73069298 185.397509 7.73069298 185.397509 7.54237366 186.73806763 C6.98444543 190.23327243 6.40390583 192.87265713 4.59106445 195.93652344 C0.66302689 198.22454375 -3.1250499 197.95916143 -7.5925293 197.91943359 C-8.53418442 197.9232605 -9.47583954 197.9270874 -10.44602966 197.93103027 C-12.43391999 197.93374911 -14.42184611 197.92638992 -16.40966797 197.90966797 C-19.45645593 197.88823401 -22.50089221 197.90948281 -25.54760742 197.93505859 C-27.47925326 197.93241578 -29.41089763 197.92729177 -31.3425293 197.91943359 C-32.25506973 197.92753052 -33.16761017 197.93562744 -34.10780334 197.94396973 C-34.95555832 197.93136108 -35.80331329 197.91875244 -36.67675781 197.90576172 C-37.7945034 197.90098816 -37.7945034 197.90098816 -38.93482971 197.89611816 C-41.74913599 197.16912417 -42.41974084 195.83799954 -43.90112305 193.38818359 C-44.06479454 191.18638992 -44.06479454 191.18638992 -43.74765015 188.69610596 C-43.62801281 187.71951271 -43.50837547 186.74291946 -43.38511276 185.73673248 C-43.22539616 184.63171135 -43.06567955 183.52669022 -42.90112305 182.38818359 C-42.72729725 181.15830467 -42.55347145 179.92842575 -42.3743782 178.66127777 C-41.73553007 174.25601493 -41.04617131 169.85899516 -40.35668945 165.46142578 C-40.09513037 163.77664346 -39.83385176 162.09181758 -39.5728302 160.4069519 C-38.86754585 155.86127162 -38.1576822 151.31631858 -37.44643831 146.77156734 C-37.00164683 143.92841901 -36.55775251 141.08513203 -36.11414719 138.2417984 C-34.56490383 128.31277297 -33.0115524 118.38439904 -31.45483398 108.45654297 C-30.00588016 99.21513614 -28.56659288 89.97225774 -27.1316191 80.72867084 C-25.89652815 72.77577881 -24.65429817 64.82402271 -23.40660799 56.87309766 C-22.66265858 52.13133168 -21.92167037 47.38914896 -21.18803787 42.64577484 C-20.49853197 38.1891257 -19.80015348 33.73395637 -19.09499168 29.27975845 C-18.8382176 27.64806432 -18.5845979 26.0158701 -18.33441734 24.38315201 C-17.99160767 22.149225 -17.6373109 19.91740603 -17.28018188 17.68572998 C-17.0851388 16.43808239 -16.89009571 15.1904348 -16.68914223 13.90497971 C-15.628621 9.17205314 -14.4636973 4.75099746 -10.70744324 1.47494507 C-7.10357241 0.07932814 -3.80787205 -0.03168301 0 0 Z M30.97973633 41.81347656 C28.2052579 45.61145807 27.84938782 49.41960741 27.17700195 54.00927734 C26.95243317 55.414645 26.95243317 55.414645 26.72332764 56.84840393 C26.2498658 59.83866058 25.79961213 62.83192651 25.34887695 65.82568359 C25.03127909 67.83697486 24.71228406 69.84804604 24.3918457 71.85888672 C24.08980971 73.78382047 23.78898773 75.70894518 23.48950195 77.63427734 C23.34893372 78.53649521 23.20836548 79.43871307 23.0635376 80.36827087 C22.45728899 84.40694519 21.91045929 88.29009941 22.09887695 92.38818359 C45.02808146 93.68481877 45.02808146 93.68481877 65.0246582 84.63037109 C72.06925548 77.19197646 74.48881051 68.59792603 74.3137207 58.40380859 C73.81330475 53.70899706 71.79923329 50.26863155 68.91137695 46.63818359 C61.03692325 40.33862064 51.05185006 40.20494167 41.34887695 40.07568359 C40.60766602 40.04667969 39.86645508 40.01767578 39.1027832 39.98779297 C35.92227932 39.95067757 33.65809941 40.01206139 30.97973633 41.81347656 Z " fill="#169BD7" transform="translate(914.901123046875,68.61181640625)"/>
<path d="M0 0 C1.16661415 -0.00503792 1.16661415 -0.00503792 2.35679626 -0.01017761 C4.93539012 -0.01969518 7.51391894 -0.021632 10.0925293 -0.02270508 C11.89316331 -0.02592021 13.69379707 -0.02928448 15.49443054 -0.03279114 C19.27819421 -0.0387866 23.06193504 -0.04063092 26.84570312 -0.04003906 C31.65900646 -0.03993813 36.47216 -0.05351684 41.28542805 -0.07081127 C45.01157786 -0.08202287 48.73769271 -0.08395538 52.46385765 -0.08342934 C54.23579608 -0.08459853 56.00773573 -0.08895967 57.77965736 -0.0967617 C76.65696708 -0.17201242 97.0790494 0.57666845 112.35424805 13.14526367 C113.28817383 13.89549805 113.28817383 13.89549805 114.2409668 14.66088867 C121.975899 21.57366973 126.54805802 32.08605968 127.57324219 42.33447266 C128.7960065 66.00606653 123.52782343 90.54723549 107.95581055 108.98510742 C93.62877961 124.29948506 74.06918906 131.32474026 53.33288574 132.23388672 C51.06148207 132.30622846 48.79034999 132.3625226 46.51831055 132.41088867 C45.73784363 132.42791336 44.95737671 132.44493805 44.15325928 132.46247864 C40.19366413 132.54098654 36.23648498 132.5864847 32.27612305 132.59130859 C30.79434992 132.6077867 29.31257897 132.62446136 27.83081055 132.64135742 C26.51161621 132.64321045 25.19242187 132.64506348 23.83325195 132.64697266 C19.6931383 133.23995315 18.11160561 134.00987113 15.35424805 137.14526367 C14.53236198 139.74059473 14.02944611 141.90216893 13.65893555 144.55932617 C13.54090073 145.28267151 13.42286591 146.00601685 13.30125427 146.75128174 C12.9244305 149.08832415 12.57698187 151.42873433 12.22924805 153.77026367 C11.97511487 155.36972515 11.71884604 156.96884874 11.46044922 158.56762695 C10.73449686 163.08996738 10.04042493 167.61674263 9.35424805 172.14526367 C8.91368999 175.02814696 8.47214841 177.91067016 8.0168457 180.79125977 C7.69474575 182.84200774 7.39267752 184.89587555 7.0925293 186.94995117 C5.97264289 191.79686695 4.4991365 194.3820047 0.35424805 197.14526367 C-1.54284668 197.40596008 -1.54284668 197.40596008 -3.70239258 197.41992188 C-4.51333374 197.42945389 -5.3242749 197.4389859 -6.15979004 197.44880676 C-7.46768494 197.44743965 -7.46768494 197.44743965 -8.80200195 197.44604492 C-9.70067993 197.45033005 -10.59935791 197.45461517 -11.52526855 197.45903015 C-13.42495888 197.46477211 -15.32467119 197.4652747 -17.22436523 197.4609375 C-20.13473876 197.45777564 -23.04409774 197.48124463 -25.9543457 197.5065918 C-27.7993965 197.50886457 -29.64445004 197.50956839 -31.48950195 197.50854492 C-32.36143188 197.51775467 -33.23336182 197.52696442 -34.13171387 197.53645325 C-34.94265503 197.53022446 -35.75359619 197.52399567 -36.58911133 197.51757812 C-37.65808655 197.51852226 -37.65808655 197.51852226 -38.74865723 197.51948547 C-41.26050262 197.02399767 -42.04712169 196.12041607 -43.64575195 194.14526367 C-45.39160319 185.55375416 -42.50816445 175.42951784 -41.15478516 166.85717773 C-40.886442 165.12170987 -40.6187127 163.38614699 -40.35154724 161.65049744 C-39.62748119 156.96160586 -38.89342147 152.2743344 -38.1563952 147.58746433 C-37.69584618 144.65651644 -37.23727401 141.725266 -36.77934837 138.79390717 C-35.18042728 128.5605789 -33.5726464 118.32868284 -31.95751953 108.09790039 C-30.45360583 98.56986563 -28.97039887 89.03875874 -27.49645358 79.50604653 C-26.22801963 71.3091158 -24.94440045 63.11465494 -23.64911717 54.92192435 C-22.87662388 50.03390907 -22.11045805 45.14510372 -21.35988808 40.25366974 C-20.65416457 35.65758616 -19.92960765 31.0648658 -19.19053078 26.47403145 C-18.92286198 24.79089452 -18.6619244 23.10667096 -18.40829086 21.42136192 C-18.0604567 19.11726671 -17.68833675 16.81836042 -17.31001282 14.519104 C-17.10814015 13.23236408 -16.90626749 11.94562416 -16.69827747 10.61989212 C-15.38578221 6.28704384 -13.82138944 4.34321285 -10.64575195 1.14526367 C-7.04189927 -0.05602055 -3.75121915 -0.00231614 0 0 Z M28.35424805 45.14526367 C27.26591122 48.51076577 26.8025556 51.90769328 26.3347168 55.40698242 C26.18641922 56.39398636 26.03812164 57.3809903 25.8853302 58.39790344 C25.41800664 61.54035871 24.97972689 64.68609855 24.54174805 67.83276367 C24.22916215 69.96129393 23.91472925 72.08955382 23.59838867 74.2175293 C22.04289466 83.14385136 22.04289466 83.14385136 21.35424805 92.14526367 C45.37369774 93.4125597 45.37369774 93.4125597 66.1940918 83.39135742 C72.58230613 75.65989998 73.91151236 66.86564676 73.63549805 57.06713867 C73.11599326 51.67006118 71.35517754 49.12395029 67.54174805 45.39526367 C59.70323559 39.86219606 50.38753862 40.05042651 41.10424805 39.77026367 C40.41862793 39.7320752 39.73300781 39.69388672 39.02661133 39.65454102 C33.59801054 39.56576478 31.61465913 40.91639393 28.35424805 45.14526367 Z " fill="#243A80" transform="translate(411.645751953125,68.854736328125)"/>
<path d="M0 0 C7.69238478 2.16348322 14.57018722 9.53724198 19 16 C29.24538925 34.92984661 28.43814272 58.5264186 22.64160156 78.87402344 C15.41320408 102.82565405 2.93468219 122.8533137 -19.58178711 135.21557617 C-36.28795146 143.94034116 -53.88030484 146.13769537 -72.484375 146.4296875 C-78.67967181 146.60098603 -83.61414148 146.79482876 -89 150 C-91.86468451 153.12183357 -92.6417076 155.84091033 -93.41796875 159.96875 C-93.53762497 160.60171997 -93.65728119 161.23468994 -93.78056335 161.88684082 C-95.02902591 168.72127317 -96.0214942 175.59872946 -97.05078125 182.46875 C-97.23389862 183.68159668 -97.41701599 184.89444336 -97.60568237 186.14404297 C-97.88498093 187.99473389 -97.88498093 187.99473389 -98.16992188 189.8828125 C-98.35868896 191.13352539 -98.54745605 192.38423828 -98.74194336 193.67285156 C-99.1242881 196.23752255 -99.49921563 198.80330962 -99.86694336 201.37011719 C-100.40611082 205.11501014 -100.97569147 208.85422763 -101.55078125 212.59375 C-101.78550896 214.30637024 -101.78550896 214.30637024 -102.02497864 216.05358887 C-103.08260954 222.72226004 -104.52418667 227.70131084 -110 232 C-113.08994258 233.02998086 -115.26931313 233.144908 -118.50952148 233.17700195 C-119.63756699 233.18983719 -120.76561249 233.20267242 -121.92784119 233.21589661 C-123.75600121 233.22697701 -123.75600121 233.22697701 -125.62109375 233.23828125 C-127.49825829 233.25038887 -127.49825829 233.25038887 -129.41334534 233.26274109 C-132.06214093 233.27657909 -134.71081217 233.28759711 -137.35961914 233.29516602 C-140.75046766 233.30624456 -144.14066248 233.34066849 -147.53127956 233.38033772 C-150.76948614 233.41277425 -154.00774946 233.41727913 -157.24609375 233.42578125 C-159.07121742 233.45204338 -159.07121742 233.45204338 -160.93321228 233.47883606 C-162.06440994 233.47591049 -163.1956076 233.47298492 -164.36108398 233.4699707 C-165.3557518 233.47583694 -166.35041962 233.48170319 -167.37522888 233.48774719 C-170.72952662 232.86443597 -171.89533655 231.62831268 -174 229 C-175.27112941 225.18817479 -174.91428274 222.03378666 -174.29296875 218.10546875 C-174.11830078 216.98462891 -173.94363281 215.86378906 -173.76367188 214.70898438 C-173.57353516 213.54689453 -173.38339844 212.38480469 -173.1875 211.1875 C-173.00896484 210.03701172 -172.83042969 208.88652344 -172.64648438 207.70117188 C-171.92908272 203.18180044 -171.19425171 198.75117385 -170.04766846 194.31732178 C-168.99548782 190.14187026 -168.27177531 185.96225416 -167.62719727 181.70727539 C-167.44379288 180.52751884 -167.44379288 180.52751884 -167.25668335 179.32392883 C-166.9937914 177.63058781 -166.73250607 175.93699672 -166.47268867 174.24318123 C-166.05989063 171.55522954 -165.64176883 168.86815442 -165.22215271 166.18125916 C-164.03057908 158.54659395 -162.84675348 150.9107459 -161.6706543 143.27368164 C-160.94876214 138.5885117 -160.21925425 133.90457819 -159.48512077 129.22131157 C-159.20834095 127.44570181 -158.93445148 125.66963884 -158.66360664 123.89311409 C-155.21262274 101.26677014 -155.21262274 101.26677014 -151.42124939 97.38261414 C-145.95819372 93.36913327 -140.48437893 93.3104063 -133.9140625 93.3984375 C-132.85826996 93.39043121 -131.80247742 93.38242493 -130.71469116 93.37417603 C-127.35106681 93.35121243 -123.98865513 93.3604994 -120.625 93.375 C-102.6379804 93.39600981 -84.90627811 93.40399738 -67.75 87.25 C-67.01241455 86.99250977 -66.2748291 86.73501953 -65.51489258 86.46972656 C-41.24568303 77.73794746 -23.28736195 62.21955854 -11.99511719 38.92724609 C-7.35792392 28.8908685 -4.40959079 18.76892944 -2 8 C-1.34683374 5.32975396 -0.67435119 2.66501235 0 0 Z " fill="#169AD6" transform="translate(238,79)"/>
<path d="M0 0 C1.70328319 1.6292274 3.38161281 3.28641357 5 5 C5.18175781 4.06027344 5.18175781 4.06027344 5.3671875 3.1015625 C5.53476563 2.28429687 5.70234375 1.46703125 5.875 0.625 C6.03742188 -0.18710938 6.19984375 -0.99921875 6.3671875 -1.8359375 C7 -4 7 -4 9 -6 C12.05005447 -6.21245194 15.00694627 -6.30395229 18.05859375 -6.30078125 C18.95868668 -6.30506638 19.8587796 -6.3093515 20.78614807 -6.31376648 C22.69181476 -6.3195153 24.59750339 -6.32000599 26.50317383 -6.31567383 C29.4224181 -6.31251631 32.34064694 -6.33595734 35.25976562 -6.36132812 C37.10937372 -6.36360127 38.95898454 -6.36430454 40.80859375 -6.36328125 C41.68366074 -6.372491 42.55872772 -6.38170074 43.46031189 -6.39118958 C44.68156517 -6.38184639 44.68156517 -6.38184639 45.92749023 -6.37231445 C46.64315659 -6.37294388 47.35882294 -6.3735733 48.09617615 -6.3742218 C50.65526977 -5.87119805 51.52278869 -5.14255878 53 -3 C54.07755366 8.98539465 50.16081418 22.66675579 48.2890625 34.46484375 C47.91637269 36.83083085 47.54384737 39.19684387 47.17147827 41.56288147 C46.39336646 46.49799243 45.61106288 51.432418 44.82617188 56.36645508 C43.82167701 62.68520658 42.83116636 69.00606411 41.84415627 75.3275671 C41.08061069 80.20396923 40.30798768 85.07890095 39.53278732 89.9534626 C39.16359483 92.2841309 38.7976215 94.61531153 38.4349556 96.94700432 C37.9278658 100.20055157 37.40815847 103.45184321 36.88525391 106.70288086 C36.73864822 107.66141464 36.59204254 108.61994843 36.44099426 109.60752869 C35.63309193 114.5406492 34.71841691 118.70256525 32 123 C28.15265102 125.56489932 24.96176675 125.30582459 20.5 125.30078125 C19.25186523 125.30720894 19.25186523 125.30720894 17.97851562 125.31376648 C16.22006134 125.31950693 14.46158331 125.32001213 12.703125 125.31567383 C10.01000601 125.31251175 7.31798332 125.33598298 4.625 125.36132812 C2.91666805 125.36360091 1.20833315 125.36430471 -0.5 125.36328125 C-1.30630859 125.372491 -2.11261719 125.38170074 -2.94335938 125.39118958 C-8.56738625 125.3445364 -8.56738625 125.3445364 -10.71801758 123.63175964 C-12.52582315 121.33071079 -12.2997869 119.69453041 -12.1875 116.8125 C-12.16042969 115.91144531 -12.13335938 115.01039063 -12.10546875 114.08203125 C-12.07066406 113.39496094 -12.03585937 112.70789063 -12 112 C-12.79921875 112.59167969 -13.5984375 113.18335938 -14.421875 113.79296875 C-31.94599169 126.5057526 -49.84044745 130.35803739 -71.34472656 127.71142578 C-85.0897821 125.33112212 -95.81829036 118.18007496 -104 107 C-114.79417554 89.11993242 -115.95967165 70.06830536 -111.50488281 50.02636719 C-106.49997267 29.93896186 -93.6316464 11.54711975 -75.91845703 0.73168945 C-54.41550659 -11.78779313 -20.95525217 -16.46484099 0 0 Z M-57.8125 39.625 C-64.63679228 48.12713246 -67.4482606 58.1874109 -67 69 C-65.72691063 77.68125702 -61.83026299 83.04750561 -55 88.3125 C-46.23018117 92.79442069 -35.23391664 92.90129103 -26 90 C-17.20404137 86.81113282 -9.97892173 81.31797961 -5.36328125 73.078125 C-1.08050964 63.80083178 0.86669021 54.30443995 -1.71875 44.1875 C-4.63645356 37.22265923 -9.46795266 32.71430143 -16 29 C-31.03763676 23.98745441 -46.79959392 28.1591822 -57.8125 39.625 Z " fill="#169BD7" transform="translate(1145,141)"/>
<path d="M0 0 C1.02718044 1.31250834 2.03344784 2.64222435 3 4 C3.19335938 3.28972656 3.38671875 2.57945312 3.5859375 1.84765625 C3.84632813 0.92855469 4.10671875 0.00945312 4.375 -0.9375 C4.75785156 -2.31228516 4.75785156 -2.31228516 5.1484375 -3.71484375 C6 -6 6 -6 8 -7 C11.03892708 -7.11150479 14.05424414 -7.16412607 17.09375 -7.16796875 C17.9962146 -7.17129715 18.8986792 -7.17462555 19.82849121 -7.17805481 C21.73835744 -7.18312194 23.64823253 -7.1854632 25.55810547 -7.18530273 C28.48810301 -7.18749111 31.41772528 -7.20565418 34.34765625 -7.22460938 C36.20051954 -7.22754289 38.05338463 -7.22952797 39.90625 -7.23046875 C40.78647827 -7.23765427 41.66670654 -7.24483978 42.5736084 -7.25224304 C48.77117452 -7.22882548 48.77117452 -7.22882548 51 -5 C51.86718692 1.95764772 50.58139467 9.07746684 49.47119141 15.93823242 C49.30859329 16.98183426 49.14599518 18.0254361 48.97846985 19.10066223 C48.44367332 22.52015929 47.89788675 25.9377961 47.3515625 29.35546875 C46.97466432 31.74570775 46.5983201 34.13603416 46.22250366 36.52644348 C45.43535174 41.52255119 44.64301233 46.51779874 43.84667969 51.51245117 C42.82742227 57.90662324 41.81883999 64.30242153 40.81383705 70.69884777 C40.03831261 75.629646 39.25831472 80.55972805 38.4768486 85.48958778 C38.10337364 87.84767522 37.73101059 90.20593905 37.3597908 92.56438255 C36.84008799 95.8602832 36.31465188 99.15521918 35.78759766 102.44995117 C35.63582565 103.41895355 35.48405365 104.38795593 35.3276825 105.38632202 C33.19287388 118.62216491 33.19287388 118.62216491 29.91845703 122.40429688 C25.95546287 124.57111382 22.75471894 124.57651658 18.3046875 124.53125 C17.47542755 124.5350769 16.6461676 124.53890381 15.79177856 124.54284668 C14.04525533 124.54556043 12.29869109 124.53823684 10.55224609 124.52148438 C7.8763621 124.50001093 5.20314613 124.52133035 2.52734375 124.546875 C0.82811907 124.54423269 -0.87110395 124.53910972 -2.5703125 124.53125 C-3.37034698 124.53934692 -4.17038147 124.54744385 -4.99465942 124.55578613 C-10.50747381 124.46241307 -10.50747381 124.46241307 -13.00854492 122.11425781 C-14.17058985 119.6362206 -14.30767781 117.97403027 -14.1875 115.25 C-14.16042969 114.45078125 -14.13335938 113.6515625 -14.10546875 112.828125 C-14.05326172 111.92320312 -14.05326172 111.92320312 -14 111 C-14.66644531 111.51949219 -15.33289063 112.03898437 -16.01953125 112.57421875 C-29.13092194 122.49486541 -42.42627955 127.60529678 -58.9375 127.375 C-59.99219482 127.36484863 -61.04688965 127.35469727 -62.13354492 127.34423828 C-76.20973477 127.06325902 -88.79742062 123.51721445 -99.3828125 113.7421875 C-112.41954218 99.69778789 -115.6603171 83.12040886 -115.3046875 64.64453125 C-114.56297219 46.44185667 -107.49638876 28.34789222 -95 15 C-94.22785156 14.14921875 -93.45570313 13.2984375 -92.66015625 12.421875 C-70.82487476 -10.62072853 -26.58495692 -22.15413077 0 0 Z M-61.4609375 41.84765625 C-67.86417489 50.80243748 -68.80651726 60.24248297 -68 71 C-66.30947629 78.71015881 -61.26295171 83.50916644 -55 88 C-46.67770164 92.07261409 -36.70556986 91.51217873 -28 89 C-17.07118104 84.74990374 -10.14487978 78.53920827 -5 68 C-1.36339985 59.19559963 -0.46952792 50.18908943 -3.90234375 41.16796875 C-7.30556885 34.44629639 -11.93936351 30.4432006 -18.88671875 27.69140625 C-35.32564462 22.31305157 -50.74283821 29.09850161 -61.4609375 41.84765625 Z " fill="#243A7F" transform="translate(643,142)"/>
<path d="M0 0 C0.82450653 -0.01913956 1.64901306 -0.03827911 2.49850464 -0.05799866 C3.38603424 -0.06133713 4.27356384 -0.0646756 5.18798828 -0.06811523 C6.5621843 -0.08309303 6.5621843 -0.08309303 7.96414185 -0.09837341 C9.9024809 -0.11356196 11.84089837 -0.12059898 13.77929688 -0.12011719 C16.74106631 -0.12667085 19.69946975 -0.18111987 22.66064453 -0.23803711 C24.54474766 -0.24684096 26.4288667 -0.25279398 28.31298828 -0.25561523 C29.19646942 -0.27717178 30.07995056 -0.29872833 30.99020386 -0.32093811 C35.21116023 -0.27404542 37.27133628 -0.03176242 40.69116211 2.58105469 C44.34505815 7.95430609 45.74381634 14.63238791 47.52783203 20.80297852 C47.94538711 22.20726092 48.36424637 23.61115613 48.78434753 25.01467896 C49.88068854 28.69009435 50.95935426 32.37046489 52.03430176 36.05218506 C53.13665935 39.81604764 54.25581956 43.57490408 55.37353516 47.33422852 C57.55984218 54.6966447 59.72748256 62.06438232 61.88330078 69.43579102 C62.54330078 69.43579102 63.20330078 69.43579102 63.88330078 69.43579102 C65.61895939 67.0543792 67.22924309 64.6623452 68.82080078 62.18579102 C69.9027262 60.53252504 70.986164 58.8802482 72.07080078 57.22875977 C72.97378906 55.85083252 72.97378906 55.85083252 73.89501953 54.44506836 C77.65083198 48.76062039 81.48923038 43.13181505 85.32080078 37.49829102 C85.7282251 36.89907837 86.13564941 36.29986572 86.55541992 35.68249512 C88.18026394 33.29287659 89.80518812 30.90331334 91.43103027 28.51437378 C93.9126392 24.86719753 96.38500597 21.21393815 98.85205078 17.55688477 C100.00819941 15.84978486 101.16444203 14.1427486 102.32080078 12.43579102 C102.83376709 11.67145752 103.3467334 10.90712402 103.87524414 10.11962891 C104.35098877 9.4195874 104.8267334 8.7195459 105.31689453 7.99829102 C105.719646 7.40145508 106.12239746 6.80461914 106.53735352 6.18969727 C106.98151611 5.6109082 107.42567871 5.03211914 107.88330078 4.43579102 C108.39562256 3.71182129 108.90794434 2.98785156 109.43579102 2.24194336 C113.25542942 -0.57677832 116.98435475 -0.09790202 121.60986328 -0.02514648 C122.55389008 -0.02423004 123.49791687 -0.0233136 124.47055054 -0.02236938 C126.4626774 -0.01633482 128.45479525 -0.00059317 130.44677734 0.02416992 C133.50408137 0.06074054 136.56017562 0.06518883 139.61767578 0.06469727 C141.55258214 0.07452604 143.48748026 0.08618199 145.42236328 0.09985352 C146.340065 0.10207916 147.25776672 0.10430481 148.20327759 0.1065979 C149.05110809 0.1193576 149.8989386 0.13211731 150.77246094 0.14526367 C151.51984528 0.15288727 152.26722961 0.16051086 153.03726196 0.16836548 C154.88330078 0.43579102 154.88330078 0.43579102 156.88330078 2.43579102 C157.54964365 8.15523397 156.17438879 11.4336745 152.88330078 15.93579102 C152.44324707 16.56614258 152.00319336 17.19649414 151.54980469 17.84594727 C150.55737584 19.26476043 149.55774075 20.67855103 148.55224609 22.08813477 C146.75420796 24.61738209 144.98462164 27.16490075 143.21923828 29.71704102 C139.82565802 34.62029511 136.41619713 39.51224141 133.00195312 44.40112305 C129.52004312 49.38846361 126.04497751 54.38056151 122.57080078 59.37329102 C121.89839355 60.33944336 121.22598633 61.3055957 120.53320312 62.30102539 C116.36987655 68.28702536 112.22762855 74.28688519 108.10473633 80.30078125 C103.36525037 87.20633634 98.57250522 94.07475448 93.78564453 100.94750977 C89.96758554 106.43189432 86.16177795 111.92406744 82.38330078 117.43579102 C77.22729008 124.95694424 72.01621054 132.43940363 66.80322266 139.92114258 C63.26845282 144.99709906 59.7458356 150.08061146 56.25268555 155.18530273 C54.13796764 158.27462321 52.01178449 161.35594625 49.88330078 164.43579102 C49.49674316 164.99814453 49.11018555 165.56049805 48.71191406 166.13989258 C47.6326475 167.70341571 46.53959793 169.25739837 45.44580078 170.81079102 C44.84896484 171.66415039 44.25212891 172.51750977 43.63720703 173.39672852 C41.39264254 176.00622221 39.34334608 177.24349467 35.90391541 177.69648743 C35.21125076 177.70109482 34.51858612 177.70570221 33.80493164 177.71044922 C33.01408676 177.71998123 32.22324188 177.72951324 31.40843201 177.73933411 C30.56353714 177.7384227 29.71864227 177.73751129 28.84814453 177.73657227 C27.97307755 177.74085739 27.09801056 177.74514252 26.19642639 177.7495575 C24.3497911 177.75529191 22.50313323 177.75580761 20.65649414 177.75146484 C17.82741008 177.74829841 14.99936547 177.77179695 12.17041016 177.79711914 C10.3754896 177.79939153 8.58056623 177.80009591 6.78564453 177.79907227 C5.51526588 177.81288689 5.51526588 177.81288689 4.21922302 177.82698059 C-1.67012339 177.78040976 -1.67012339 177.78040976 -3.83152771 176.11247253 C-5.11669922 174.43579102 -5.11669922 174.43579102 -5.62841797 171.23657227 C-4.95592174 166.24161935 -2.93948513 163.55878212 0.07080078 159.62329102 C0.60817871 158.89263428 1.14555664 158.16197754 1.69921875 157.40917969 C2.83767046 155.86220922 3.98269237 154.32005527 5.13378906 152.7824707 C7.42121574 149.71426736 9.65502721 146.60910365 11.88842773 143.50146484 C13.41511846 141.37790362 14.94908413 139.25981547 16.48486328 137.14282227 C16.96308029 136.45289688 17.4412973 135.7629715 17.93400574 135.05213928 C19.88330078 132.43579102 19.88330078 132.43579102 22.56253052 129.49163818 C26.65361306 124.818419 29.9482025 120.96754462 29.78372192 114.55131531 C28.78514493 110.18592385 27.05803191 106.11459212 25.33642578 101.99438477 C24.74046978 100.42852438 24.15160513 98.85994903 23.56939697 97.28892517 C22.34059274 93.99210913 21.08084655 90.70971777 19.7980957 87.43353271 C16.97439177 80.15396078 14.53009404 72.74726284 12.0579071 65.34276199 C10.70183592 61.29347688 9.32080685 57.25273285 7.94189453 53.21118164 C7.39351795 51.60027292 6.84517817 49.98935168 6.296875 48.37841797 C5.16940727 45.06844312 4.03850194 41.75966695 2.90527344 38.45166016 C1.50380159 34.35994518 0.10969921 30.26578619 -1.27941132 26.16985893 C-1.80139334 24.63516723 -2.32606679 23.10138798 -2.85358429 21.56859016 C-3.58015263 19.45640842 -4.29725225 17.34123364 -5.01220703 15.22509766 C-5.42013489 14.03018204 -5.82806274 12.83526642 -6.24835205 11.60414124 C-7.06330787 8.63060074 -7.54610841 6.48197152 -7.11669922 3.43579102 C-5.09563966 0.53235117 -3.45285265 0.05450811 0 0 Z " fill="#243A7F" transform="translate(717.11669921875,134.564208984375)"/>
<path d="M0 0 C0.83696411 -0.00540298 1.67392822 -0.01080597 2.53625488 -0.01637268 C5.29186899 -0.02883203 8.0464311 -0.0123692 10.80200195 0.00561523 C12.73948725 0.00545999 14.67697285 0.00396686 16.61445618 0.00120544 C20.67881991 -0.00017796 24.74283061 0.01235499 28.80712891 0.03515625 C33.95839201 0.06329366 39.10905805 0.06087033 44.26036358 0.04806614 C48.2681618 0.04102338 52.27582805 0.0489988 56.28360939 0.06132317 C58.17896832 0.06577241 60.07434178 0.06623313 61.96970177 0.06225777 C81.30952582 0.04071138 102.9374986 1.05391709 120.3527832 10.50170898 C117.30496627 37.3402523 105.80755405 64.18111736 84.77368164 81.82641602 C58.67678388 102.27139784 28.53399028 104.87301819 -3.32006836 104.80712891 C-6.64316877 104.80450214 -9.96492225 104.83264737 -13.2878418 104.86499023 C-14.29429749 104.85478348 -15.30075317 104.84457672 -16.33770752 104.83406067 C-23.29544099 104.92980024 -27.90264211 106.58011463 -33.6472168 110.50170898 C-32.2950053 98.2501039 -30.60218812 86.07593296 -28.71362305 73.89624023 C-28.57577833 73.0036167 -28.43793362 72.11099316 -28.29591179 71.19132042 C-27.56971741 66.4894707 -26.8399315 61.78819606 -26.10693359 57.08740234 C-25.35377189 52.2527356 -24.61302615 47.41624903 -23.87495518 42.57925892 C-23.30088802 38.83181116 -22.71784499 35.08579983 -22.13233757 31.34012413 C-21.85510927 29.55652023 -21.58122307 27.77239338 -21.31082344 25.98774147 C-20.93318202 23.50098301 -20.54285253 21.01652774 -20.14941406 18.53222656 C-20.04178238 17.80439468 -19.9341507 17.07656281 -19.82325745 16.32667542 C-18.81854297 10.13172889 -17.63852137 5.98465617 -12.50016785 2.1580658 C-8.36204349 0.06810089 -4.56767222 -0.05693466 0 0 Z " fill="#222D65" transform="translate(117.647216796875,68.498291015625)"/>
<path d="M0 0 C1.21340561 -0.00855011 1.21340561 -0.00855011 2.45132446 -0.01727295 C4.16447643 -0.0267259 5.8776466 -0.0332581 7.59082031 -0.03710938 C10.20930793 -0.04681107 12.82700932 -0.07782918 15.4453125 -0.109375 C17.10937034 -0.11590551 18.77343379 -0.12115579 20.4375 -0.125 C21.21991058 -0.1373468 22.00232117 -0.1496936 22.80844116 -0.16241455 C25.88277272 -0.14984474 28.49228551 0.06685949 31.37744141 1.16113281 C36.15387269 7.7775739 31.55713377 21.67475242 30.32885742 29.37768555 C30.05730211 31.11300993 29.78632659 32.84842513 29.5158844 34.58392334 C28.78263797 39.27684779 28.04058198 43.96833824 27.29634261 48.6595304 C26.67500849 52.58082937 26.05785978 56.50278249 25.44065076 60.42473251 C23.98464309 69.67585465 22.52132818 78.92580068 21.0534668 88.17504883 C19.54017207 97.71142312 18.03933322 107.24969911 16.54456633 116.78899354 C15.25919378 124.98907579 13.96607607 133.18791103 12.66675073 141.38579398 C11.8914587 146.27789411 11.11911449 151.17041318 10.35423851 156.06415367 C9.63512638 160.662905 8.90634682 165.26002146 8.17012596 169.85606384 C7.9018199 171.54134614 7.63691514 173.22717405 7.37569046 174.9135685 C7.01815039 177.21814987 6.64828809 179.52042907 6.27531433 181.82255554 C6.07159808 183.11059428 5.86788183 184.39863302 5.65799236 185.72570324 C4.47488682 190.82739545 3.27208501 194.25610999 -1.1484375 197.203125 C-3.94265628 197.41113824 -6.63479479 197.50715354 -9.4296875 197.50390625 C-10.6445282 197.51033394 -10.6445282 197.51033394 -11.88391113 197.51689148 C-13.59528672 197.52263138 -15.3066867 197.52313754 -17.01806641 197.51879883 C-19.63876834 197.51563667 -22.25834372 197.53910872 -24.87890625 197.56445312 C-26.54166524 197.56672591 -28.20442727 197.56742971 -29.8671875 197.56640625 C-30.65162231 197.575616 -31.43605713 197.58482574 -32.2442627 197.59431458 C-35.14225447 197.56961624 -37.55169063 197.50561443 -40.16601562 196.18041992 C-42.66754072 191.14566552 -40.93686772 183.84895275 -40.1056366 178.53062439 C-39.93730244 177.43747125 -39.93730244 177.43747125 -39.7655676 176.32223421 C-39.39142313 173.90260201 -39.00861475 171.48442577 -38.62573242 169.06616211 C-38.35424323 167.32274495 -38.08326567 165.57924804 -37.8127594 163.8356781 C-37.07877287 159.11589383 -36.33696773 154.39737041 -35.59321761 149.67911601 C-34.97223826 145.73553588 -34.35491515 141.79138685 -33.73752576 137.84724337 C-32.2808172 128.54203846 -30.8175784 119.23787636 -29.3503418 109.93432617 C-27.83798321 100.34387687 -26.33695826 90.75170185 -24.84144133 81.15861315 C-23.55552587 72.9127687 -22.26243247 64.66807155 -20.96362573 56.4242478 C-20.18863359 51.50466537 -19.41638977 46.5846916 -18.65111351 41.66358757 C-17.93133867 37.03705801 -17.20259987 32.41202779 -16.46700096 27.78798866 C-16.19895336 26.09340799 -15.93404907 24.39832658 -15.67256546 22.70272064 C-15.31435611 20.38324122 -14.94469499 18.06586207 -14.57218933 15.74864197 C-14.36847308 14.45285186 -14.16475683 13.15706175 -13.95486736 11.82200527 C-13.08064577 7.89890741 -11.93375481 4.79569714 -10.1484375 1.203125 C-6.95965384 -0.39126683 -3.50329036 0.01893113 0 0 Z " fill="#169BD7" transform="translate(1243.1484375,68.796875)"/>
</svg>
