<?xml version="1.0" encoding="UTF-8"?>
<svg version="1.1" xmlns="http://www.w3.org/2000/svg" width="2560" height="1066">
<path d="M0 0 C0.74685059 0.31694824 1.49370117 0.63389648 2.26318359 0.96044922 C35.09834787 15.10809985 65.01376174 38.874498 87 67 C87.88007691 68.09100167 88.76165767 69.1807915 89.64453125 70.26953125 C150.75907693 146.06233697 165.34807434 249.46381702 157.1875 365.83984375 C150.15486566 429.40665083 131.90263703 496.30249265 90.34130859 546.38232422 C89.01223777 547.98524072 87.70277127 549.60271981 86.39453125 551.22265625 C50.72982955 594.88425465 -0.85821324 623.10939576 -56.8828125 629.66015625 C-112.53566353 634.66919664 -160.54800389 621.21410224 -206 589 C-206.99 588.34 -207.98 587.68 -209 587 C-208.99861731 587.95375597 -208.99861731 587.95375597 -208.99720669 588.92677975 C-208.97463064 604.76373491 -208.95834497 620.60068413 -208.94818783 636.43765163 C-208.94313916 644.0978448 -208.93630215 651.75802682 -208.92456055 659.41821289 C-208.86065109 701.95610222 -209.19603872 744.46920865 -210 787 C-224.00839797 790.70694983 -238.17114407 793.65277652 -252.34955359 796.62714028 C-255.78801382 797.34911101 -259.22576207 798.07445761 -262.66360474 798.79936218 C-268.45093661 800.0191961 -274.23872894 801.23682345 -280.02685547 802.45288086 C-287.34151577 803.98966304 -294.65545548 805.52984478 -301.96914482 807.07124043 C-308.37833433 808.4219984 -314.78782213 809.77133907 -321.19737482 811.12037253 C-323.1946509 811.54077536 -325.19189802 811.96131556 -327.18914413 812.38186073 C-347.44785678 816.64586967 -367.72240591 820.82520122 -388 825 C-388 551.1 -388 277.2 -388 -5 C-336.19 -5 -284.38 -5 -231 -5 C-227.625 8.5 -227.625 8.5 -226.39453125 14.515625 C-226.13349609 15.78535156 -225.87246094 17.05507813 -225.60351562 18.36328125 C-225.34248047 19.64589844 -225.08144531 20.92851562 -224.8125 22.25 C-224.53734509 23.59249625 -224.2619557 24.93494446 -223.98632812 26.27734375 C-223.32192477 29.51776712 -222.65986018 32.758649 -222 36 C-218.9950946 36 -218.07587176 34.31868211 -215.9375 32.25 C-158.15351345 -20.63563137 -70.69741296 -30.21615828 0 0 Z M-200 167 C-200.76957031 167.64710938 -201.53914063 168.29421875 -202.33203125 168.9609375 C-207.96730767 173.40611932 -207.96730767 173.40611932 -210.23924732 179.91676998 C-210.23424056 181.11864736 -210.2292338 182.32052473 -210.22407532 183.55882263 C-210.22406708 184.22960277 -210.22405883 184.90038292 -210.22405034 185.59148973 C-210.22168095 187.84814911 -210.20506142 190.10448575 -210.1887207 192.36108398 C-210.18447348 193.98026632 -210.18117559 195.59945137 -210.17875481 197.21863747 C-210.17168917 200.72615173 -210.15847034 204.23356978 -210.14049339 207.741045 C-210.11163499 213.385815 -210.09535303 219.03057443 -210.0818634 224.67539978 C-210.07954631 225.63635553 -210.07722922 226.59731128 -210.07484192 227.58738691 C-210.0701088 229.55586202 -210.06541345 231.52433722 -210.0607549 233.49281251 C-210.05314029 236.52054301 -210.04418185 239.54826736 -210.03501797 242.57599354 C-209.9922755 257.53543039 -210.02370619 272.49372715 -210.08833909 287.45304751 C-210.160053 304.0809024 -210.18744397 320.70833443 -210.17875481 337.33634377 C-210.1750272 347.32702035 -210.19373474 357.31687877 -210.25708008 367.30737305 C-210.31388361 376.2799724 -210.33212412 385.2516861 -210.3040064 394.22443575 C-210.29064735 398.90177049 -210.29554036 403.57728503 -210.34822655 408.25438118 C-210.39656403 412.58613819 -210.39321974 416.91481308 -210.35058594 421.2466011 C-210.34403678 422.82078294 -210.35598273 424.39517743 -210.38863564 425.96903419 C-210.53079109 433.28457618 -210.33002653 439.33897556 -205.1509822 444.89948219 C-202.87599888 447.08442299 -200.49169471 449.06775276 -198 451 C-197.34230212 451.52245332 -196.68460424 452.04490664 -196.00697613 452.58319187 C-172.04592329 470.32443312 -140.87804216 476.01653744 -111.68359375 472.5703125 C-93.23334624 469.40070476 -77.36630161 459.79937854 -64 447 C-63.26136719 446.33613281 -62.52273438 445.67226563 -61.76171875 444.98828125 C-31.43394834 416.70750067 -18.63122125 367.52367123 -16.89299011 327.53840637 C-16.8371467 325.0213278 -16.80974797 322.50594314 -16.796875 319.98828125 C-16.78986069 319.06549881 -16.78284637 318.14271637 -16.77561951 317.19197083 C-16.75821864 314.23209696 -16.75176767 311.27242313 -16.75 308.3125 C-16.74932526 307.30145203 -16.74865051 306.29040405 -16.74795532 305.24871826 C-16.76348762 290.62020146 -17.15243765 276.39060779 -20 262 C-20.25740967 260.6087793 -20.25740967 260.6087793 -20.52001953 259.18945312 C-26.35918821 227.94285613 -37.53998841 199.56038202 -58 175 C-58.77537109 174.00419922 -58.77537109 174.00419922 -59.56640625 172.98828125 C-73.82066612 155.37587495 -95.75896095 144.55891525 -118 142 C-147.75266729 140.45016473 -177.03490394 147.33732271 -200 167 Z " fill="#625AFF" transform="translate(1840,241)"/>
<path d="M0 0 C67.70027075 -1.34489128 127.85864989 19.43981972 177.32958984 66.06201172 C178.06177734 66.75166016 178.79396484 67.44130859 179.54833984 68.15185547 C184.44492488 72.90270881 188.7872047 78.02891278 193.0078125 83.38525391 C193.94084739 84.56886743 194.87846751 85.74887338 195.81933594 86.92626953 C231.35110134 131.49153461 250.43318745 185.73820777 260.12753296 241.3291626 C260.37607449 242.75374462 260.6278745 244.17776463 260.88394165 245.60101318 C265.8183662 273.33472688 266.80753612 301.35096722 266.59387207 329.44702148 C266.57469117 332.45530787 266.57070722 335.4635329 266.56715775 338.47187233 C266.56191225 342.18163191 266.54753305 345.89134266 266.53271484 349.60107422 C266.52846497 350.90170807 266.52421509 352.20234192 266.51983643 353.54238892 C266.42893158 365.74717462 265.83877558 377.84155417 265.32958984 390.06201172 C150.48958984 390.06201172 35.64958984 390.06201172 -82.67041016 390.06201172 C-82.01041016 393.03201172 -81.35041016 396.00201172 -80.67041016 399.06201172 C-80.23919788 401.30627561 -79.80799877 403.55054256 -79.37866211 405.79516602 C-74.24702419 431.87985294 -62.06319794 456.616384 -39.67041016 472.06201172 C-38.73197266 472.71427734 -37.79353516 473.36654297 -36.82666016 474.03857422 C-21.81926807 483.854015 -5.17322216 489.59504397 12.32958984 493.06201172 C13.50763184 493.30757812 13.50763184 493.30757812 14.70947266 493.55810547 C78.60410606 506.25831186 154.05548688 491.47302546 212.61865234 465.16748047 C218.14478821 462.69767347 223.74225744 460.39006689 229.32958984 458.06201172 C229.32958984 505.58201172 229.32958984 553.10201172 229.32958984 602.06201172 C207.02853722 613.79940784 207.02853722 613.79940784 199.01708984 617.06201172 C197.53921997 617.66783081 197.53921997 617.66783081 196.03149414 618.28588867 C106.9445964 654.07683145 -6.17963214 662.12366533 -96.08520508 624.41821289 C-104.11671004 620.9525482 -111.95497311 617.18061478 -119.67041016 613.06201172 C-120.3163916 612.72234375 -120.96237305 612.38267578 -121.62792969 612.03271484 C-150.02565196 597.01959463 -175.82743261 575.30118625 -195.67041016 550.06201172 C-196.45029297 549.09908203 -197.23017578 548.13615234 -198.03369141 547.14404297 C-246.84678379 485.71895542 -262.95736673 404.0129836 -262.85791016 327.24951172 C-262.85697357 326.30736816 -262.85603699 325.36522461 -262.85507202 324.39453125 C-262.67084138 238.41781346 -240.27599396 148.04334927 -180.72509766 83.30029297 C-178.78938413 81.19161645 -176.91221039 79.04414844 -175.04541016 76.87451172 C-169.39337029 70.40390056 -163.24785183 64.58161644 -156.67041016 59.06201172 C-155.92887695 58.43383545 -155.92887695 58.43383545 -155.17236328 57.79296875 C-115.7977878 24.6335834 -68.51128416 6.77064011 -17.67041016 1.06201172 C-16.91904785 0.97725586 -16.16768555 0.8925 -15.39355469 0.80517578 C-10.26422735 0.26497451 -5.15298477 0.11966156 0 0 Z M-50.67041016 168.06201172 C-51.40517578 168.69623047 -52.13994141 169.33044922 -52.89697266 169.98388672 C-74.35665341 189.99012296 -82.08777514 218.82100281 -84.67041016 247.06201172 C-84.67041016 250.69201172 -84.67041016 254.32201172 -84.67041016 258.06201172 C-24.28041016 258.06201172 36.10958984 258.06201172 98.32958984 258.06201172 C96.49020877 223.11377124 90.05549157 190.68533606 63.56396484 165.85498047 C48.58655103 152.52288231 29.12470826 145.42355515 9.14208984 145.62451172 C8.05347656 145.63353516 6.96486328 145.64255859 5.84326172 145.65185547 C-15.78055933 146.11166501 -34.39138805 153.92616619 -50.67041016 168.06201172 Z " fill="#625AFF" transform="translate(2293.67041015625,223.93798828125)"/>
<path d="M0 0 C0 55.44 0 110.88 0 168 C-3.98994906 166.67001698 -7.20571042 165.46362341 -10.84082031 163.53930664 C-64.34141296 135.24001114 -148.23379951 109.71056915 -209 127 C-218.62049502 130.07061916 -227.34545123 134.71022968 -232.4375 143.8125 C-236.63126582 153.72679431 -236.49335684 162.98973291 -233.3203125 173.18359375 C-225.57498175 191.51420985 -202.14414193 199.66493003 -185.22763062 206.7043457 C-176.79802217 210.08820827 -168.18704466 212.97507723 -159.58206177 215.87600708 C-153.87438183 217.8013591 -148.17838655 219.76083298 -142.48046875 221.71484375 C-141.37875839 222.09172836 -140.27704803 222.46861298 -139.14195251 222.85691833 C-119.78010838 229.48725736 -100.6670968 236.5886508 -82 245 C-81.18595703 245.36448242 -80.37191406 245.72896484 -79.53320312 246.10449219 C-55.82289501 256.79016406 -34.24095232 270.4502196 -15 288 C-13.69675781 289.17755859 -13.69675781 289.17755859 -12.3671875 290.37890625 C18.36954314 319.58374195 33.53056538 361.52985982 35.12597656 403.2980957 C36.36157318 459.27140432 20.9036877 507.06219785 -17.21875 548.40625 C-63.8046883 596.51959611 -137.4117187 614.23088207 -202.11328125 615.28515625 C-274.48230509 616.18470292 -342.98796265 602.92168223 -410 575 C-410 518.9 -410 462.8 -410 405 C-405.57305018 405.88538996 -402.98125643 406.86582975 -399.07421875 408.921875 C-397.31634033 409.83199341 -397.31634033 409.83199341 -395.52294922 410.76049805 C-394.89998962 411.08448578 -394.27703003 411.40847351 -393.63519287 411.74227905 C-347.29871782 435.7164062 -296.67201948 451.86583691 -245 459 C-243.80141357 459.16689331 -243.80141357 459.16689331 -242.57861328 459.3371582 C-233.97574731 460.36350055 -225.27704884 460.2869357 -216.625 460.3125 C-215.77917358 460.31511841 -214.93334717 460.31773682 -214.06188965 460.32043457 C-201.30928507 460.3246671 -189.28961496 459.70354403 -177 456 C-175.47052734 455.54947266 -175.47052734 455.54947266 -173.91015625 455.08984375 C-164.61762019 451.86191017 -157.0146884 445.4330612 -152 437 C-147.26933553 427.14908693 -146.9073181 417.1404557 -149.94921875 406.74609375 C-151.63330885 402.34492148 -154.13488702 398.71273809 -157 395 C-157.62519531 394.16726563 -158.25039063 393.33453125 -158.89453125 392.4765625 C-178.02311866 369.9765172 -216.46781045 361.01453207 -243.07522583 351.37503052 C-288.2586981 334.99743872 -333.9035258 317.81388344 -370 285 C-370.92039062 284.16339844 -371.84078125 283.32679688 -372.7890625 282.46484375 C-399.10283913 257.32646637 -416.11888676 221.25565634 -417.17700195 184.64892578 C-417.2031781 183.08114014 -417.22333323 181.51324539 -417.23828125 179.9453125 C-417.25297203 178.66914818 -417.25297203 178.66914818 -417.26795959 177.36720276 C-417.75706603 123.81415715 -405.09190986 74.31411018 -367 35 C-366.49210937 34.46632813 -365.98421875 33.93265625 -365.4609375 33.3828125 C-325.6172697 -8.42359756 -266.39609614 -27.31132359 -210.03076172 -31.83691406 C-208.1558929 -31.98748059 -206.28287914 -32.16068813 -204.41015625 -32.3359375 C-138.24306691 -37.6522943 -59.66870412 -29.83435206 0 0 Z " fill="#625AFF" transform="translate(417,257)"/>
<path d="M0 0 C0.02357076 15.94477694 0.04109598 31.88954901 0.05181217 47.83433914 C0.05692458 55.24112792 0.06386828 62.64790576 0.07543945 70.0546875 C0.08554355 76.52558169 0.09188995 82.99646793 0.09408849 89.46736979 C0.09536952 92.87988061 0.09828302 96.29236874 0.10573006 99.70487213 C0.11317637 103.55488841 0.11398134 107.4048603 0.11352539 111.25488281 C0.11712067 112.33240814 0.12071594 113.40993347 0.12442017 114.52011108 C0.10792472 127.70378209 -0.52857552 140.80011466 -1 154 C43.55 154 88.1 154 134 154 C134 204.49 134 254.98 134 307 C89.45 307 44.9 307 -1 307 C-0.88025628 352.2627275 -0.88025628 352.2627275 -0.7421875 397.52539062 C-0.72218205 403.63972934 -0.70229802 409.75406843 -0.68261719 415.8684082 C-0.68014575 416.63465077 -0.67767431 417.40089333 -0.67512798 418.19035536 C-0.63550116 430.53102259 -0.60271822 442.87169887 -0.57250018 455.21239232 C-0.5412921 467.89463059 -0.50264337 480.57683076 -0.45720994 493.25902611 C-0.42944755 501.07299745 -0.40736201 508.88694121 -0.39273749 516.70094837 C-0.38086397 522.71134007 -0.3585955 528.72164936 -0.33261681 534.73199844 C-0.32360466 537.1839975 -0.31786582 539.63601131 -0.31578636 542.08802605 C-0.28965228 568.24123634 0.11090202 595.63849603 19.44140625 615.71875 C36.37416806 630.81605213 58.98377089 633.93051787 80.84814453 632.72875977 C97.49316549 631.53120019 113.36846197 627.72113295 129.17260742 622.48730469 C131 622 131 622 134 622 C134 669.85 134 717.7 134 767 C117.57575758 775.21212121 117.57575758 775.21212121 109.6875 777.625 C108.76437012 777.91149414 107.84124023 778.19798828 106.89013672 778.49316406 C44.8724327 797.07252644 -28.09216428 797.37813974 -85.92529297 766.49682617 C-93.0379326 762.56315575 -99.56645699 757.95089919 -106 753 C-106.91910156 752.30519531 -107.83820313 751.61039063 -108.78515625 750.89453125 C-145.87232944 721.7819196 -167.59212259 679.2842368 -174 633 C-174.75908658 626.61114271 -175.14506051 620.3196923 -175.12584114 613.88807964 C-175.12729458 613.02432416 -175.12874802 612.16056868 -175.13024551 611.27063879 C-175.13387907 608.3918895 -175.13043123 605.51319405 -175.12698364 602.63444519 C-175.12813659 600.54246837 -175.12972529 598.45049176 -175.13171089 596.35851556 C-175.13588227 590.61970229 -175.13382317 584.88090567 -175.13072467 579.14209235 C-175.12846105 572.94525199 -175.13195555 566.74841449 -175.13470459 560.55157471 C-175.13889812 549.1020739 -175.13852814 537.65258048 -175.13579312 526.20307971 C-175.13327058 515.58868193 -175.13262401 504.97428609 -175.13381577 494.35988808 C-175.13389215 493.65384779 -175.13396854 492.94780751 -175.13404724 492.22037207 C-175.13435865 489.35316892 -175.13467705 486.48596577 -175.135007 483.61876263 C-175.13806816 456.69372408 -175.13529266 429.76868886 -175.1299101 402.84365083 C-175.1251947 379.07651085 -175.12556312 355.30937625 -175.13037109 331.54223633 C-175.1357724 304.75330359 -175.1378208 277.96437382 -175.13475883 251.17544061 C-175.13443823 248.29537443 -175.13412538 245.41530826 -175.13381577 242.53524208 C-175.13373669 241.82627047 -175.13365761 241.11729887 -175.13357614 240.38684327 C-175.1325281 230.52762094 -175.13342066 220.66840057 -175.13580156 210.8091785 C-175.16362425 93.98839898 -175.16362425 93.98839898 -174 37 C-164.35708944 34.54244647 -154.70898475 32.21318883 -144.96972656 30.16259766 C-143.77366287 29.9083049 -142.57759918 29.65401215 -141.34529114 29.39201355 C-138.11555649 28.7059154 -134.88530211 28.02233573 -131.65478611 27.33992815 C-128.22551869 26.61485845 -124.79697488 25.8863822 -121.36834717 25.15829468 C-114.86847426 23.77852356 -108.36799666 22.40162454 -101.86727786 21.02584493 C-93.85242295 19.32949185 -85.8383025 17.62967939 -77.82421875 15.9296875 C-74.96954812 15.32414588 -72.11487371 14.71862214 -69.26019287 14.11312866 C-68.5641387 13.96549021 -67.86808452 13.81785176 -67.1509378 13.66573942 C-62.47582714 12.67421952 -57.80049372 11.68375639 -53.12506104 10.6937561 C-51.86915035 10.42771261 -50.61323967 10.16166912 -49.31927109 9.88756371 C-46.85713313 9.36606197 -44.39492818 8.84487639 -41.93265152 8.32402992 C-35.62382014 6.98772949 -29.31805327 5.63848315 -23.01599121 4.27069092 C-21.71104389 3.98820678 -20.40608571 3.70577283 -19.10111618 3.42339134 C-16.63156805 2.88823652 -14.16256784 2.35054511 -11.69420242 1.80996132 C-10.04621218 1.45318589 -10.04621218 1.45318589 -8.3649292 1.08920288 C-7.39823681 0.87826178 -6.43154442 0.66732067 -5.43555832 0.44998741 C-3 0 -3 0 0 0 Z " fill="#625AFF" transform="translate(661,82)"/>
<path d="M0 0 C0 54.45 0 108.9 0 165 C-9.405 163.02 -9.405 163.02 -19 161 C-51.72511442 156.9093607 -85.43342562 160.74908951 -113.00390625 180.109375 C-115.40858494 182.00374783 -117.7117807 183.96742425 -120 186 C-121.05574219 186.86044922 -121.05574219 186.86044922 -122.1328125 187.73828125 C-124.16947229 189.42259115 -126.08212522 191.1819175 -128 193 C-128.61796985 193.56651305 -129.23593969 194.1330261 -129.8726359 194.71670622 C-136.6129925 201.93624015 -135.97799297 209.80250278 -135.87974548 219.06507874 C-135.88693433 220.809402 -135.89719227 222.55371484 -135.91024405 224.29800409 C-135.93717032 229.07806968 -135.9206866 233.85714298 -135.89700234 238.63718927 C-135.87908186 243.79664754 -135.90157664 248.95594952 -135.91912842 254.11538696 C-135.94400769 263.05003697 -135.94335978 271.98439159 -135.92530632 280.91905403 C-135.89924127 293.8369657 -135.91177933 306.75461376 -135.93369765 319.6725226 C-135.9682132 340.63156794 -135.97156869 361.59049761 -135.95532227 382.54956055 C-135.93960842 402.90766269 -135.93857366 423.26567842 -135.95727539 443.6237793 C-135.95842332 444.87893992 -135.95957125 446.13410055 -135.96075397 447.42729635 C-135.96660342 453.72415488 -135.97274141 460.0210131 -135.97902286 466.31787121 C-136.03074926 518.5453097 -136.02616159 570.77253105 -136 623 C-194.74 623 -253.48 623 -314 623 C-314 417.41 -314 211.82 -314 0 C-263.18 0 -212.36 0 -160 0 C-155.50496814 16.85636949 -155.50496814 16.85636949 -154.11328125 23.61328125 C-153.9659404 24.31978317 -153.81859955 25.0262851 -153.66679382 25.75419617 C-153.21141608 27.93950242 -152.76142264 30.12585944 -152.3125 32.3125 C-151.85231748 34.54543381 -151.39087463 36.77807883 -150.92607117 39.01005554 C-150.51186787 40.99996667 -150.1021127 42.99080218 -149.69262695 44.98168945 C-149.14746516 47.90159896 -149.14746516 47.90159896 -148 50 C-147.5875 49.32195312 -147.175 48.64390625 -146.75 47.9453125 C-129.85768726 20.72154063 -105.95507805 3.00270395 -74.94873047 -4.49609375 C-49.72739757 -10.23387289 -24.54032147 -7.01152042 0 0 Z " fill="#625AFF" transform="translate(1165,236)"/>
<path d="M0 0 C59.07 0 118.14 0 179 0 C179 205.59 179 411.18 179 623 C119.93 623 60.86 623 0 623 C0 417.41 0 211.82 0 0 Z " fill="#625BFF" transform="translate(1207,236)"/>
<path d="M0 0 C0 47.85 0 95.7 0 145 C-29.86870051 151.89277704 -29.86870051 151.89277704 -39.61474609 153.97265625 C-41.32324989 154.33990311 -41.32324989 154.33990311 -43.06626892 154.71456909 C-46.71825741 155.49909537 -50.37083392 156.28084301 -54.0234375 157.0625 C-56.63208697 157.62230378 -59.24070193 158.18226605 -61.84927368 158.74243164 C-67.95937805 160.05416275 -74.06991228 161.36387926 -80.18061697 162.67281055 C-87.04067403 164.14236034 -93.90023245 165.61423096 -100.75975299 167.08628273 C-109.18840184 168.89502272 -117.61716237 170.70324155 -126.04623413 172.51000977 C-127.81305259 172.8887751 -127.81305259 172.8887751 -129.61556435 173.27519226 C-131.93194348 173.7714376 -134.24843766 174.26714624 -136.56505394 174.76228333 C-141.99990884 175.92448394 -147.4333893 177.09223291 -152.86305702 178.27846813 C-154.82087767 178.70593876 -156.77911645 179.13149296 -158.73736 179.55702209 C-161.20327998 180.09308608 -163.6685063 180.63235392 -166.13292503 181.17527771 C-167.23710085 181.41464554 -168.34127666 181.65401337 -169.47891235 181.90063477 C-170.45095926 182.11341568 -171.42300617 182.32619659 -172.42450905 182.54542542 C-175 183 -175 183 -179 183 C-179 134.82 -179 86.64 -179 37 C-141.9966796 28.90552366 -141.9966796 28.90552366 -124.21798706 25.16729736 C-122.93807766 24.89801674 -121.65816826 24.62873611 -120.33947372 24.35129547 C-119.36434271 24.14619527 -119.36434271 24.14619527 -118.36951208 23.93695164 C-114.91135603 23.20929076 -111.45351496 22.48013587 -107.99563599 21.75115967 C-101.48996002 20.379871 -94.98403607 19.00976302 -88.47800457 17.64016223 C-78.92961594 15.63005293 -69.38160301 13.61816033 -59.83360481 11.60619736 C-58.4095879 11.30612925 -56.98557095 11.00606135 -55.56155396 10.70599365 C-54.86540328 10.55929851 -54.16925261 10.41260337 -53.45200646 10.26146293 C-49.37821177 9.40306263 -45.3043401 8.54502893 -41.23039412 7.68734694 C-38.09740973 7.02772872 -34.96448414 6.36783127 -31.83154297 5.70800781 C-30.73525574 5.47732101 -29.63896851 5.24663422 -28.50946045 5.00895691 C-27.45944855 4.78776688 -26.40943665 4.56657684 -25.3276062 4.33868408 C-24.30387783 4.1239872 -23.28014946 3.90929031 -22.22539902 3.68808746 C-19.90316802 3.1926765 -17.5839155 2.68322901 -15.26669693 2.16487885 C-14.02716137 1.88961617 -12.78762581 1.61435349 -11.51052856 1.33074951 C-10.384946 1.07674755 -9.25936344 0.82274559 -8.09967232 0.5610466 C-5 -0 -5 -0 0 0 Z " fill="#625AFF" transform="translate(1386,0)"/>
</svg>
